<svg width="60" height="60" viewBox="0 0 60 60" fill="none" xmlns="http://www.w3.org/2000/svg">
<path fill-rule="evenodd" clip-rule="evenodd" d="M30.0001 18C31.0831 18 32.1217 17.5786 32.8874 16.8284C33.6532 16.0783 34.0834 15.0609 34.0834 14C34.0834 12.9391 33.6532 11.9217 32.8874 11.1716C32.1217 10.4214 31.0831 10 30.0001 10C28.9171 10 27.8785 10.4214 27.1127 11.1716C26.347 11.9217 25.9168 12.9391 25.9168 14C25.9168 15.0609 26.347 16.0783 27.1127 16.8284C27.8785 17.5786 28.9171 18 30.0001 18ZM30.0001 34C31.0831 34 32.1217 33.5786 32.8874 32.8284C33.6532 32.0783 34.0834 31.0609 34.0834 30C34.0834 28.9391 33.6532 27.9217 32.8874 27.1716C32.1217 26.4214 31.0831 26 30.0001 26C28.9171 26 27.8785 26.4214 27.1127 27.1716C26.347 27.9217 25.9168 28.9391 25.9168 30C25.9168 31.0609 26.347 32.0783 27.1127 32.8284C27.8785 33.5786 28.9171 34 30.0001 34ZM40.6096 24C40.8758 24.4586 41.2319 24.8611 41.6575 25.1843C42.0831 25.5075 42.5697 25.745 43.0894 25.8832C43.6091 26.0215 44.1516 26.0576 44.6856 25.9896C45.2197 25.9216 45.7347 25.7508 46.201 25.4871C46.6674 25.2233 47.0759 24.8718 47.403 24.4527C47.7301 24.0337 47.9694 23.5554 48.107 23.0454C48.2447 22.5354 48.278 22.0038 48.205 21.4811C48.1321 20.9584 47.9543 20.4551 47.6819 20C47.1366 19.0888 46.2455 18.4258 45.203 18.1558C44.1606 17.8859 43.0514 18.0308 42.1176 18.5589C41.1838 19.087 40.5012 19.9556 40.2186 20.9749C39.9361 21.9943 40.0767 23.0818 40.6096 24ZM40.6096 36C40.3373 36.4551 40.1595 36.9584 40.0865 37.4811C40.0136 38.0038 40.0469 38.5354 40.1845 39.0454C40.3222 39.5554 40.5614 40.0337 40.8886 40.4527C41.2157 40.8718 41.6242 41.2233 42.0905 41.4871C42.5569 41.7508 43.0719 41.9216 43.6059 41.9896C44.1399 42.0576 44.6824 42.0215 45.2021 41.8832C45.7218 41.745 46.2085 41.5075 46.634 41.1843C47.0596 40.8611 47.4158 40.4586 47.6819 40C48.2149 39.0818 48.3554 37.9943 48.0729 36.9749C47.7904 35.9556 47.1077 35.087 46.1739 34.5589C45.2401 34.0308 44.131 33.8859 43.0885 34.1558C42.0461 34.4258 41.1549 35.0888 40.6096 36ZM30.0001 42C28.9171 42 27.8785 42.4214 27.1127 43.1716C26.347 43.9217 25.9168 44.9391 25.9168 46C25.9168 47.0609 26.347 48.0783 27.1127 48.8284C27.8785 49.5786 28.9171 50 30.0001 50C31.0831 50 32.1217 49.5786 32.8874 48.8284C33.6532 48.0783 34.0834 47.0609 34.0834 46C34.0834 44.9391 33.6532 43.9217 32.8874 43.1716C32.1217 42.4214 31.0831 42 30.0001 42ZM19.3916 36C19.1254 35.5414 18.7693 35.1389 18.3437 34.8157C17.9181 34.4925 17.4314 34.255 16.9117 34.1168C16.3921 33.9785 15.8496 33.9424 15.3156 34.0104C14.7815 34.0784 14.2665 34.2492 13.8002 34.5129C13.3338 34.7767 12.9253 35.1282 12.5982 35.5473C12.2711 35.9663 12.0318 36.4446 11.8942 36.9546C11.7565 37.4646 11.7232 37.9962 11.7962 38.5189C11.8691 39.0416 12.0469 39.5449 12.3193 40C12.8646 40.9112 13.7557 41.5742 14.7982 41.8442C15.8406 42.1141 16.9498 41.9692 17.8836 41.4411C18.8174 40.913 19.5 40.0444 19.7826 39.0251C20.0651 38.0057 19.9245 36.9182 19.3916 36ZM19.3916 24C19.6639 23.5449 19.8417 23.0416 19.9147 22.5189C19.9876 21.9962 19.9543 21.4646 19.8167 20.9546C19.679 20.4446 19.4397 19.9663 19.1126 19.5473C18.7855 19.1282 18.377 18.7767 17.9107 18.5129C17.4443 18.2492 16.9293 18.0784 16.3953 18.0104C15.8613 17.9424 15.3188 17.9785 14.7991 18.1168C14.2794 18.255 13.7927 18.4925 13.3671 18.8157C12.9415 19.1389 12.5854 19.5414 12.3193 20C11.7863 20.9182 11.6458 22.0057 11.9283 23.0251C12.2108 24.0444 12.8934 24.913 13.8273 25.4411C14.7611 25.9692 15.8702 26.1141 16.9127 25.8442C17.9551 25.5742 18.8463 24.9112 19.3916 24Z" fill="#F0F0F0" stroke="#F0F0F0" stroke-width="3.66667" stroke-linecap="round" stroke-linejoin="round"/>
</svg>
