<svg width="60" height="60" viewBox="0 0 60 60" fill="none" xmlns="http://www.w3.org/2000/svg">
<path d="M29.0575 1.53654C29.4405 0.860241 30.4148 0.860241 30.7978 1.53654L36.4874 11.5833C36.8649 12.2499 36.3833 13.0761 35.6172 13.0761H24.2381C23.4719 13.0761 22.9904 12.2499 23.3679 11.5833L29.0575 1.53654Z" fill="#F0F0F0"/>
<path d="M49.8308 10.1037C50.5672 9.9025 51.241 10.5894 51.0437 11.3402L48.0984 22.5464C47.9011 23.2971 46.9807 23.5486 46.4416 22.999L38.395 14.7955C37.8559 14.2459 38.1025 13.3075 38.8389 13.1064L49.8308 10.1037Z" fill="#F0F0F0"/>
<path d="M17.1887 41.3876C16.5022 41.0464 15.7057 41.5943 15.7591 42.371L16.5547 53.9441C16.6078 54.7166 17.4627 55.1365 18.0958 54.701L27.529 48.212C28.162 47.7765 28.1001 46.8111 27.4174 46.4717L17.1887 41.3876Z" fill="#F0F0F0"/>
<path d="M41.7139 41.4545C42.4043 41.1218 43.1939 41.6791 43.1314 42.455L42.2 54.0175C42.1378 54.7895 41.2779 55.1993 40.65 54.7561L31.2938 48.1525C30.6659 47.7094 30.7394 46.7446 31.4263 46.4135L41.7139 41.4545Z" fill="#F0F0F0"/>
<path d="M8.99916 10.3995C8.25132 10.2514 7.62817 10.9824 7.87629 11.7167L11.5825 22.6858C11.8311 23.4216 12.7677 23.6088 13.2674 23.0226L20.7321 14.2658C21.2318 13.6796 20.9194 12.7602 20.17 12.6118L8.99916 10.3995Z" fill="#F0F0F0"/>
<path d="M57.219 34.0403C57.8003 34.5376 57.6382 35.4746 56.9251 35.7392L46.2322 39.707C45.5093 39.9752 44.7643 39.3529 44.896 38.5909L46.872 27.1661C47.0038 26.4041 47.9127 26.0791 48.502 26.5833L57.219 34.0403Z" fill="#F0F0F0"/>
<path d="M2.78103 34.0403C2.19972 34.5376 2.36178 35.4746 3.07486 35.7392L13.7678 39.707C14.4907 39.9752 15.2357 39.3529 15.104 38.5909L13.128 27.1661C12.9962 26.4041 12.0873 26.0791 11.498 26.5833L2.78103 34.0403Z" fill="#F0F0F0"/>
</svg>
