<svg width="375" height="504" viewBox="0 0 375 504" fill="none" xmlns="http://www.w3.org/2000/svg">
<path d="M134.577 142.09C85.0685 245.911 -153.009 382.486 -353.228 428.835" stroke="url(#paint0_linear_1_2442)" stroke-width="10.1803"/>
<path d="M151.544 139.545C89.6141 269.344 -115.681 391.29 -283.663 444.105" stroke="url(#paint1_linear_1_2442)" stroke-width="10.1803"/>
<path d="M152.392 159.906C101.144 273.619 -14.9348 372.419 -160.651 443.257" stroke="url(#paint2_linear_1_2442)" stroke-width="10.1803"/>
<path d="M154.938 171.783C103.698 285.472 37.6413 381.766 -108.053 452.589" stroke="url(#paint3_linear_1_2442)" stroke-width="10.1803"/>
<path d="M168.511 168.389C144.97 215.446 107.179 373.335 -19.8237 452.588" stroke="url(#paint4_linear_1_2442)" stroke-width="10.1803"/>
<path d="M181.237 150.573C157.684 197.756 168.221 329.372 45.4995 474.646" stroke="url(#paint5_linear_1_2442)" stroke-width="10.1803"/>
<path d="M174.845 152.27C186.254 217.825 177.847 358.575 138.819 491.613" stroke="url(#paint6_linear_1_2442)" stroke-width="10.1803"/>
<path d="M190.569 162.451C196.772 236.973 208.49 374.041 245.712 501.793" stroke="url(#paint7_linear_1_2442)" stroke-width="10.1803"/>
<path d="M199.052 160.754C211.387 230.707 253.586 388.583 337.334 482.281" stroke="url(#paint8_linear_1_2442)" stroke-width="10.1803"/>
<path d="M205.839 168.389C217.54 235.517 320.382 396.256 410.293 462.769" stroke="url(#paint9_linear_1_2442)" stroke-width="10.1803"/>
<path d="M213.474 165.844C225.2 233.63 382.576 403.405 487.493 459.375" stroke="url(#paint10_linear_1_2442)" stroke-width="10.1803"/>
<path d="M224.503 164.995C236.223 232.608 439.166 412.497 568.087 453.437" stroke="url(#paint11_linear_1_2442)" stroke-width="10.1803"/>
<path d="M224.503 139.545C240.503 222.088 477.833 391.518 657.165 442.409" stroke="url(#paint12_linear_1_2442)" stroke-width="10.1803"/>
<path d="M228.5 128C240.68 216.159 549.277 384.713 742 435.622" stroke="url(#paint13_linear_1_2442)" stroke-width="10.1803"/>
<g clip-path="url(#clip0_1_2442)">
<path d="M154.937 445.801C164.308 445.801 171.904 438.205 171.904 428.834C171.904 419.464 164.308 411.867 154.937 411.867C145.566 411.867 137.97 419.464 137.97 428.834C137.97 438.205 145.566 445.801 154.937 445.801Z" fill="#E6007A"/>
<path d="M155.225 418.892C151.294 418.892 148.082 422.086 148.082 426.035C148.082 426.83 148.213 427.605 148.459 428.36C148.546 428.609 148.728 428.814 148.964 428.931C149.201 429.048 149.474 429.067 149.725 428.984C149.974 428.897 150.179 428.715 150.296 428.479C150.412 428.242 150.431 427.969 150.349 427.718C150.141 427.13 150.045 426.507 150.066 425.884C150.141 423.22 152.296 421.027 154.961 420.895C155.659 420.859 156.357 420.964 157.013 421.206C157.669 421.448 158.269 421.82 158.776 422.301C159.283 422.782 159.688 423.361 159.964 424.003C160.241 424.645 160.384 425.336 160.385 426.035C160.383 427.35 159.88 428.614 158.977 429.57C158.074 430.525 156.84 431.1 155.528 431.176C155.528 431.176 154.526 431.232 154.035 431.309C153.789 431.346 153.6 431.384 153.468 431.403C153.41 431.422 153.354 431.365 153.372 431.308L153.543 430.477L154.469 426.206C154.523 425.951 154.474 425.684 154.332 425.465C154.191 425.245 153.968 425.091 153.714 425.034C153.458 424.98 153.192 425.029 152.972 425.171C152.753 425.313 152.598 425.535 152.542 425.79C152.542 425.79 150.312 436.185 150.293 436.298C150.239 436.554 150.288 436.82 150.429 437.04C150.571 437.259 150.794 437.414 151.049 437.47C151.304 437.524 151.571 437.475 151.79 437.333C152.01 437.192 152.164 436.969 152.22 436.714C152.238 436.6 152.542 435.221 152.542 435.221C152.649 434.715 152.91 434.255 153.289 433.903C153.668 433.551 154.146 433.325 154.658 433.255C155.029 433.214 155.401 433.183 155.773 433.16C157.567 433.021 159.243 432.209 160.465 430.889C161.688 429.568 162.368 427.835 162.369 426.035C162.369 422.086 159.156 418.892 155.225 418.892V418.892ZM155.735 435.334C155.581 435.301 155.422 435.299 155.267 435.327C155.112 435.356 154.965 435.415 154.833 435.501C154.701 435.587 154.588 435.699 154.5 435.829C154.411 435.959 154.349 436.106 154.318 436.26C154.185 436.903 154.583 437.545 155.244 437.678C155.398 437.711 155.557 437.714 155.712 437.685C155.867 437.656 156.015 437.597 156.146 437.511C156.278 437.425 156.392 437.313 156.48 437.183C156.569 437.052 156.63 436.906 156.662 436.751C156.793 436.09 156.396 435.466 155.735 435.334V435.334Z" fill="white"/>
</g>
<g clip-path="url(#clip1_1_2442)">
<path d="M359.39 377.085C368.761 377.085 376.358 369.488 376.358 360.118C376.358 350.747 368.761 343.15 359.39 343.15C350.02 343.15 342.423 350.747 342.423 360.118C342.423 369.488 350.02 377.085 359.39 377.085Z" fill="#C3A634"/>
<path fill-rule="evenodd" clip-rule="evenodd" d="M356.472 358.644H361.047V361.068H356.472V366.177H359.358C360.5 366.177 361.434 366.023 362.161 365.714C362.889 365.405 363.459 364.978 363.874 364.43C364.298 363.861 364.587 363.203 364.718 362.506C364.871 361.719 364.946 360.919 364.941 360.118C364.946 359.316 364.871 358.516 364.718 357.729C364.587 357.032 364.298 356.374 363.874 355.805C363.459 355.258 362.888 354.83 362.161 354.522C361.434 354.212 360.5 354.058 359.358 354.058H356.472V358.645V358.644ZM353.539 361.068H351.967V358.645H353.539V351.634H360.484C361.767 351.634 362.877 351.857 363.816 352.299C364.754 352.743 365.52 353.349 366.115 354.118C366.709 354.885 367.151 355.785 367.44 356.814C367.73 357.844 367.874 358.946 367.874 360.118C367.881 361.233 367.735 362.345 367.439 363.421C367.151 364.45 366.709 365.35 366.114 366.118C365.52 366.886 364.754 367.492 363.816 367.936C362.877 368.38 361.766 368.601 360.484 368.601H353.539V361.068V361.068Z" fill="white"/>
</g>
<g clip-path="url(#clip2_1_2442)">
<path d="M109.126 394.9C118.496 394.9 126.093 387.303 126.093 377.933C126.093 368.562 118.496 360.966 109.126 360.966C99.7549 360.966 92.1584 368.562 92.1584 377.933C92.1584 387.303 99.7549 394.9 109.126 394.9Z" fill="#F3BA2F"/>
<path d="M105.006 376.24L109.125 372.121L113.246 376.242L115.642 373.845L109.125 367.328L102.61 373.843L105.006 376.24ZM98.5205 377.932L100.917 375.536L103.314 377.932L100.917 380.329L98.5205 377.932ZM105.006 379.625L109.125 383.744L113.246 379.623L115.642 382.018L109.125 388.537L102.61 382.021L102.606 382.018L105.006 379.625ZM114.936 377.932L117.333 375.536L119.729 377.932L117.333 380.329L114.936 377.932ZM111.556 377.93H111.558V377.932L109.125 380.365L106.695 377.937L106.691 377.932L106.695 377.929L107.121 377.503L107.328 377.296L109.125 375.5L111.557 377.931L111.556 377.93Z" fill="white"/>
</g>
<g clip-path="url(#clip3_1_2442)">
<path d="M40.4088 417.806C49.7795 417.806 57.3759 410.209 57.3759 400.839C57.3759 391.468 49.7795 383.872 40.4088 383.872C31.0381 383.872 23.4417 391.468 23.4417 400.839C23.4417 410.209 31.0381 417.806 40.4088 417.806Z" fill="#627EEA"/>
<path d="M40.9373 388.113V397.519L48.8874 401.072L40.9373 388.113Z" fill="white" fill-opacity="0.602"/>
<path d="M40.9366 388.113L32.9854 401.072L40.9366 397.519V388.113Z" fill="white"/>
<path d="M40.9373 407.167V413.558L48.8927 402.552L40.9373 407.167Z" fill="white" fill-opacity="0.602"/>
<path d="M40.9366 413.558V407.166L32.9854 402.552L40.9366 413.558Z" fill="white"/>
<path d="M40.9373 405.687L48.8874 401.071L40.9373 397.521V405.687Z" fill="white" fill-opacity="0.2"/>
<path d="M32.9854 401.071L40.9366 405.687V397.521L32.9854 401.071Z" fill="white" fill-opacity="0.602"/>
</g>
<g clip-path="url(#clip4_1_2442)">
<path d="M294.067 440.713C303.438 440.713 311.034 433.116 311.034 423.745C311.034 414.375 303.438 406.778 294.067 406.778C284.696 406.778 277.1 414.375 277.1 423.745C277.1 433.116 284.696 440.713 294.067 440.713Z" fill="#F4C257"/>
<path d="M286.002 429.619L284.769 428.904V418.109L286.754 416.955L287.987 417.67L286.002 418.825V422.577L291.022 425.495V426.883L286.002 423.966V429.618V429.619ZM303.345 427.472V428.904L294.058 434.301L292.073 433.146V431.715L294.058 432.869L297.287 430.993V425.158L298.481 424.463V430.299L303.345 427.472V427.472ZM305.713 423.506V423.262L300.92 426.049V424.66L305.713 421.874V416.733L294.056 409.96L288.229 413.347L288.019 413.469L292.812 416.255L291.618 416.948L286.824 414.162L282.401 416.733V430.279L288.229 433.666L288.44 433.788V428.216L289.634 428.91V434.483L294.058 437.052L305.713 430.279V423.506V423.506ZM299.674 420.935L294.849 423.741V429.576L294.058 430.035L293.461 429.688V424.078L288.44 421.16V420.242L289.037 419.894L293.864 422.699L298.885 419.783L299.675 420.242V420.936L299.674 420.935ZM292.826 413.427L294.057 412.713L303.344 418.11V420.417L302.114 421.132V418.824L298.883 416.948L293.863 419.865L292.668 419.172L297.689 416.253L292.826 413.427Z" fill="white"/>
</g>
<g clip-path="url(#clip5_1_2442)">
<path d="M228.744 462.769C238.115 462.769 245.711 455.172 245.711 445.802C245.711 436.431 238.115 428.834 228.744 428.834C219.373 428.834 211.777 436.431 211.777 445.802C211.777 455.172 219.373 462.769 228.744 462.769Z" fill="#1E252C"/>
<path d="M226.857 445.366C226.433 445.366 226.026 445.198 225.727 444.898C225.427 444.598 225.259 444.192 225.259 443.768C225.259 443.344 225.427 442.938 225.727 442.638C226.026 442.338 226.433 442.17 226.857 442.17C227.281 442.17 227.687 442.338 227.987 442.638C228.286 442.938 228.455 443.344 228.455 443.768C228.455 444.192 228.286 444.598 227.987 444.898C227.687 445.198 227.281 445.366 226.857 445.366V445.366ZM230.778 445.366C230.354 445.366 229.948 445.198 229.648 444.898C229.349 444.598 229.18 444.192 229.18 443.768C229.18 443.344 229.349 442.938 229.648 442.638C229.948 442.338 230.354 442.17 230.778 442.17C231.202 442.17 231.609 442.338 231.908 442.638C232.208 442.938 232.376 443.344 232.376 443.768C232.376 444.192 232.208 444.598 231.908 444.898C231.609 445.198 231.202 445.366 230.778 445.366V445.366ZM226.856 449.289C226.432 449.289 226.025 449.12 225.726 448.821C225.426 448.521 225.258 448.114 225.258 447.691C225.258 447.267 225.426 446.86 225.726 446.561C226.025 446.261 226.432 446.092 226.856 446.092C227.28 446.092 227.686 446.261 227.986 446.561C228.285 446.86 228.454 447.267 228.454 447.691C228.454 448.114 228.285 448.521 227.986 448.821C227.686 449.12 227.28 449.289 226.856 449.289V449.289ZM230.778 449.289C230.354 449.289 229.948 449.12 229.648 448.821C229.349 448.521 229.18 448.114 229.18 447.691C229.18 447.267 229.349 446.86 229.648 446.561C229.948 446.261 230.354 446.092 230.778 446.092C231.202 446.092 231.609 446.261 231.908 446.561C232.208 446.86 232.376 447.267 232.376 447.691C232.376 448.114 232.208 448.521 231.908 448.821C231.609 449.12 231.202 449.289 230.778 449.289V449.289ZM234.7 444.93C234.547 444.93 234.396 444.9 234.255 444.842C234.114 444.783 233.986 444.698 233.878 444.59C233.77 444.482 233.684 444.354 233.626 444.213C233.568 444.072 233.538 443.921 233.538 443.768C233.538 443.615 233.568 443.464 233.626 443.323C233.684 443.182 233.77 443.054 233.878 442.946C233.986 442.838 234.114 442.753 234.255 442.694C234.396 442.636 234.547 442.606 234.7 442.606C235.008 442.606 235.304 442.728 235.522 442.946C235.74 443.164 235.862 443.46 235.862 443.768C235.862 444.076 235.74 444.372 235.522 444.59C235.304 444.808 235.008 444.93 234.7 444.93V444.93ZM234.7 448.853C234.392 448.853 234.096 448.73 233.878 448.512C233.66 448.294 233.538 447.999 233.538 447.691C233.538 447.382 233.66 447.087 233.878 446.869C234.096 446.651 234.392 446.528 234.7 446.528C235.008 446.528 235.304 446.651 235.522 446.869C235.74 447.087 235.862 447.382 235.862 447.691C235.862 447.999 235.74 448.294 235.522 448.512C235.304 448.73 235.008 448.853 234.7 448.853ZM222.789 444.93C222.481 444.93 222.185 444.808 221.967 444.59C221.749 444.372 221.627 444.076 221.627 443.768C221.627 443.46 221.749 443.164 221.967 442.946C222.185 442.728 222.481 442.606 222.789 442.606C223.097 442.606 223.393 442.728 223.611 442.946C223.829 443.164 223.951 443.46 223.951 443.768C223.951 444.076 223.829 444.372 223.611 444.59C223.393 444.808 223.097 444.93 222.789 444.93V444.93ZM222.789 448.853C222.481 448.853 222.185 448.73 221.967 448.512C221.749 448.294 221.627 447.999 221.627 447.691C221.627 447.382 221.749 447.087 221.967 446.869C222.185 446.651 222.481 446.528 222.789 446.528C223.097 446.528 223.393 446.651 223.611 446.869C223.829 447.087 223.951 447.382 223.951 447.691C223.951 447.999 223.829 448.294 223.611 448.512C223.393 448.73 223.097 448.853 222.789 448.853ZM226.856 452.774C226.7 452.779 226.545 452.752 226.4 452.696C226.255 452.64 226.123 452.555 226.011 452.447C225.9 452.338 225.811 452.209 225.75 452.066C225.69 451.922 225.658 451.768 225.658 451.613C225.658 451.457 225.69 451.303 225.75 451.16C225.811 451.016 225.9 450.887 226.011 450.778C226.123 450.67 226.255 450.585 226.4 450.529C226.545 450.473 226.7 450.446 226.856 450.451C227.158 450.46 227.444 450.586 227.655 450.803C227.865 451.02 227.983 451.31 227.983 451.613C227.983 451.915 227.865 452.205 227.655 452.422C227.444 452.639 227.158 452.765 226.856 452.774V452.774ZM230.778 452.774C230.623 452.779 230.468 452.752 230.323 452.696C230.178 452.64 230.046 452.555 229.934 452.447C229.822 452.338 229.733 452.209 229.673 452.066C229.612 451.922 229.581 451.768 229.581 451.613C229.581 451.457 229.612 451.303 229.673 451.16C229.733 451.016 229.822 450.887 229.934 450.778C230.046 450.67 230.178 450.585 230.323 450.529C230.468 450.473 230.623 450.446 230.778 450.451C231.08 450.46 231.367 450.586 231.577 450.803C231.788 451.02 231.905 451.31 231.905 451.613C231.905 451.915 231.788 452.205 231.577 452.422C231.367 452.639 231.08 452.765 230.778 452.774ZM226.856 441.009C226.7 441.013 226.545 440.987 226.4 440.931C226.255 440.874 226.123 440.789 226.011 440.681C225.9 440.573 225.811 440.443 225.75 440.3C225.69 440.157 225.658 440.003 225.658 439.847C225.658 439.691 225.69 439.537 225.75 439.394C225.811 439.251 225.9 439.121 226.011 439.013C226.123 438.905 226.255 438.82 226.4 438.763C226.545 438.707 226.7 438.681 226.856 438.685C227.158 438.694 227.444 438.821 227.655 439.038C227.865 439.255 227.983 439.545 227.983 439.847C227.983 440.149 227.865 440.439 227.655 440.656C227.444 440.873 227.158 441 226.856 441.009V441.009ZM230.778 441.009C230.623 441.013 230.468 440.987 230.323 440.931C230.178 440.874 230.046 440.789 229.934 440.681C229.822 440.573 229.733 440.443 229.673 440.3C229.612 440.157 229.581 440.003 229.581 439.847C229.581 439.691 229.612 439.537 229.673 439.394C229.733 439.251 229.822 439.121 229.934 439.013C230.046 438.905 230.178 438.82 230.323 438.763C230.468 438.707 230.623 438.681 230.778 438.685C231.08 438.694 231.367 438.821 231.577 439.038C231.788 439.255 231.905 439.545 231.905 439.847C231.905 440.149 231.788 440.439 231.577 440.656C231.367 440.873 231.08 441 230.778 441.009ZM226.856 436.65C226.758 436.654 226.661 436.638 226.569 436.603C226.478 436.568 226.395 436.516 226.324 436.448C226.254 436.38 226.198 436.299 226.16 436.209C226.121 436.119 226.102 436.022 226.102 435.924C226.102 435.827 226.121 435.73 226.16 435.64C226.198 435.55 226.254 435.469 226.324 435.401C226.395 435.333 226.478 435.28 226.569 435.246C226.661 435.211 226.758 435.195 226.856 435.199C227.048 435.199 227.233 435.275 227.369 435.411C227.506 435.548 227.582 435.732 227.582 435.925C227.582 436.118 227.506 436.302 227.369 436.439C227.233 436.575 227.048 436.651 226.856 436.651V436.65ZM230.778 436.65C230.681 436.654 230.583 436.638 230.492 436.603C230.401 436.568 230.317 436.516 230.247 436.448C230.176 436.38 230.12 436.299 230.082 436.209C230.044 436.119 230.024 436.022 230.024 435.924C230.024 435.827 230.044 435.73 230.082 435.64C230.12 435.55 230.176 435.469 230.247 435.401C230.317 435.333 230.401 435.28 230.492 435.246C230.583 435.211 230.681 435.195 230.778 435.199C230.971 435.199 231.156 435.275 231.292 435.411C231.428 435.548 231.505 435.732 231.505 435.925C231.505 436.118 231.428 436.302 231.292 436.439C231.156 436.575 230.971 436.651 230.778 436.651V436.65ZM238.622 444.495C238.43 444.495 238.245 444.419 238.109 444.283C237.973 444.146 237.896 443.962 237.896 443.769C237.896 443.576 237.973 443.392 238.109 443.255C238.245 443.119 238.43 443.043 238.622 443.043C238.815 443.043 239 443.119 239.136 443.255C239.272 443.392 239.349 443.576 239.349 443.769C239.349 443.962 239.272 444.146 239.136 444.283C239 444.419 238.815 444.495 238.622 444.495V444.495ZM238.622 448.418C238.43 448.418 238.245 448.342 238.109 448.205C237.973 448.069 237.896 447.884 237.896 447.692C237.896 447.499 237.973 447.314 238.109 447.178C238.245 447.042 238.43 446.965 238.622 446.965C238.815 446.965 239 447.042 239.136 447.178C239.272 447.314 239.349 447.499 239.349 447.692C239.349 447.884 239.272 448.069 239.136 448.205C239 448.342 238.815 448.418 238.622 448.418V448.418ZM218.866 444.495C218.674 444.495 218.489 444.419 218.353 444.283C218.216 444.146 218.14 443.962 218.14 443.769C218.14 443.576 218.216 443.392 218.353 443.255C218.489 443.119 218.674 443.043 218.866 443.043C219.059 443.043 219.244 443.119 219.38 443.255C219.516 443.392 219.593 443.576 219.593 443.769C219.593 443.962 219.516 444.146 219.38 444.283C219.244 444.419 219.059 444.495 218.866 444.495V444.495ZM218.866 448.418C218.674 448.418 218.489 448.342 218.353 448.205C218.216 448.069 218.14 447.884 218.14 447.692C218.14 447.499 218.216 447.314 218.353 447.178C218.489 447.042 218.674 446.965 218.866 446.965C219.059 446.965 219.244 447.042 219.38 447.178C219.516 447.314 219.593 447.499 219.593 447.692C219.593 447.884 219.516 448.069 219.38 448.205C219.244 448.342 219.059 448.418 218.866 448.418V448.418ZM226.856 456.406C226.663 456.406 226.478 456.33 226.342 456.194C226.206 456.057 226.129 455.873 226.129 455.68C226.129 455.487 226.206 455.303 226.342 455.166C226.478 455.03 226.663 454.954 226.856 454.954C227.048 454.954 227.233 455.03 227.369 455.166C227.506 455.303 227.582 455.487 227.582 455.68C227.582 455.873 227.506 456.057 227.369 456.194C227.233 456.33 227.048 456.406 226.856 456.406ZM230.778 456.406C230.586 456.406 230.401 456.33 230.265 456.194C230.128 456.057 230.052 455.873 230.052 455.68C230.052 455.487 230.128 455.303 230.265 455.166C230.401 455.03 230.586 454.954 230.778 454.954C230.971 454.954 231.156 455.03 231.292 455.166C231.428 455.303 231.505 455.487 231.505 455.68C231.505 455.873 231.428 456.057 231.292 456.194C231.156 456.33 230.971 456.406 230.778 456.406Z" fill="white"/>
</g>
<g clip-path="url(#clip6_1_2442)">
<path d="M371.268 444.955C380.639 444.955 388.235 437.358 388.235 427.987C388.235 418.617 380.639 411.02 371.268 411.02C361.897 411.02 354.301 418.617 354.301 427.987C354.301 437.358 361.897 444.955 371.268 444.955Z" fill="#26A17B"/>
<path fill-rule="evenodd" clip-rule="evenodd" d="M373.306 429.454V429.452C373.189 429.46 372.588 429.496 371.246 429.496C370.175 429.496 369.421 429.464 369.156 429.452V429.455C365.033 429.274 361.956 428.556 361.956 427.697C361.956 426.839 365.033 426.121 369.156 425.936V428.74C369.426 428.759 370.198 428.805 371.264 428.805C372.544 428.805 373.186 428.752 373.306 428.741V425.938C377.42 426.122 380.49 426.84 380.49 427.697C380.49 428.556 377.42 429.271 373.306 429.454V429.454ZM373.306 425.647V423.138H379.047V419.312H363.415V423.138H369.156V425.646C364.49 425.86 360.981 426.785 360.981 427.892C360.981 428.999 364.49 429.923 369.156 430.138V438.178H373.306V430.136C377.964 429.922 381.465 428.998 381.465 427.892C381.465 426.786 377.964 425.862 373.306 425.647" fill="white"/>
</g>
<g clip-path="url(#clip7_1_2442)">
<g clip-path="url(#paint14_diamond_1_2442_clip_path)" data-figma-skip-parse="true"><g transform="matrix(0.0330965 0.0573248 -0.0573248 0.0330965 186.772 57.7547)"><rect x="0" y="0" width="1012.99" height="1012.99" fill="url(#paint14_diamond_1_2442)" opacity="1" shape-rendering="crispEdges"/><rect x="0" y="0" width="1012.99" height="1012.99" transform="scale(1 -1)" fill="url(#paint14_diamond_1_2442)" opacity="1" shape-rendering="crispEdges"/><rect x="0" y="0" width="1012.99" height="1012.99" transform="scale(-1 1)" fill="url(#paint14_diamond_1_2442)" opacity="1" shape-rendering="crispEdges"/><rect x="0" y="0" width="1012.99" height="1012.99" transform="scale(-1)" fill="url(#paint14_diamond_1_2442)" opacity="1" shape-rendering="crispEdges"/></g></g><path d="M148.68 9.32813C151.76 3.84269 157.589 0.477036 163.88 0.552838L186.772 0.828713L209.665 0.552838C215.955 0.477036 221.785 3.84268 224.864 9.32812L236.072 29.2917L247.757 48.9794C250.968 54.389 250.968 61.1203 247.757 66.53L236.072 86.2177L224.864 106.181C221.785 111.667 215.955 115.032 209.665 114.957L186.772 114.681L163.88 114.957C157.589 115.032 151.76 111.667 148.68 106.181L137.473 86.2177L125.788 66.53C122.577 61.1203 122.577 54.389 125.788 48.9794L137.473 29.2917L148.68 9.32813Z" data-figma-gradient-fill="{&#34;type&#34;:&#34;GRADIENT_DIAMOND&#34;,&#34;stops&#34;:[{&#34;color&#34;:{&#34;r&#34;:0.89411765336990356,&#34;g&#34;:0.15294118225574493,&#34;b&#34;:0.17647059261798859,&#34;a&#34;:1.0},&#34;position&#34;:0.0},{&#34;color&#34;:{&#34;r&#34;:0.92156863212585449,&#34;g&#34;:0.51764708757400513,&#34;b&#34;:0.48627451062202454,&#34;a&#34;:1.0},&#34;position&#34;:1.0}],&#34;stopsVar&#34;:[{&#34;color&#34;:{&#34;r&#34;:0.89411765336990356,&#34;g&#34;:0.15294118225574493,&#34;b&#34;:0.17647059261798859,&#34;a&#34;:1.0},&#34;position&#34;:0.0},{&#34;color&#34;:{&#34;r&#34;:0.92156863212585449,&#34;g&#34;:0.51764708757400513,&#34;b&#34;:0.48627451062202454,&#34;a&#34;:1.0},&#34;position&#34;:1.0}],&#34;transform&#34;:{&#34;m00&#34;:66.192985534667969,&#34;m01&#34;:-114.64961242675781,&#34;m02&#34;:211.00068664550781,&#34;m10&#34;:114.64961242675781,&#34;m11&#34;:66.192985534667969,&#34;m12&#34;:-32.666618347167969},&#34;opacity&#34;:1.0,&#34;blendMode&#34;:&#34;NORMAL&#34;,&#34;visible&#34;:true}"/>
<path d="M163.096 63.0002V54.7822L161.388 55.2162V54.1662L163.614 53.2002H164.524V63.0002H163.096ZM169.242 63.0002V55.9442H170.502L170.6 56.9382C170.824 56.5742 171.123 56.2896 171.496 56.0842C171.869 55.8789 172.289 55.7762 172.756 55.7762C173.111 55.7762 173.433 55.8276 173.722 55.9302C174.011 56.0236 174.268 56.1682 174.492 56.3642C174.716 56.5602 174.898 56.8029 175.038 57.0922C175.29 56.6816 175.626 56.3596 176.046 56.1262C176.475 55.8929 176.928 55.7762 177.404 55.7762C177.973 55.7762 178.463 55.8929 178.874 56.1262C179.285 56.3502 179.597 56.6909 179.812 57.1482C180.027 57.5962 180.134 58.1562 180.134 58.8282V63.0002H178.748V58.9682C178.748 58.3149 178.613 57.8202 178.342 57.4842C178.081 57.1482 177.693 56.9802 177.18 56.9802C176.835 56.9802 176.527 57.0689 176.256 57.2462C175.985 57.4236 175.771 57.6802 175.612 58.0162C175.463 58.3522 175.388 58.7629 175.388 59.2482V63.0002H173.988V58.9682C173.988 58.3149 173.853 57.8202 173.582 57.4842C173.321 57.1482 172.933 56.9802 172.42 56.9802C172.093 56.9802 171.795 57.0689 171.524 57.2462C171.253 57.4236 171.039 57.6802 170.88 58.0162C170.721 58.3522 170.642 58.7629 170.642 59.2482V63.0002H169.242ZM181.621 63.0002V55.9442H183.021V63.0002H181.621ZM182.335 54.6142C182.064 54.6142 181.84 54.5302 181.663 54.3622C181.495 54.1942 181.411 53.9796 181.411 53.7182C181.411 53.4662 181.495 53.2609 181.663 53.1022C181.84 52.9342 182.064 52.8502 182.335 52.8502C182.596 52.8502 182.816 52.9342 182.993 53.1022C183.17 53.2609 183.259 53.4662 183.259 53.7182C183.259 53.9796 183.17 54.1942 182.993 54.3622C182.816 54.5302 182.596 54.6142 182.335 54.6142ZM184.603 63.0002V55.9442H185.863L185.947 57.1482C186.171 56.7282 186.488 56.3969 186.899 56.1542C187.31 55.9022 187.781 55.7762 188.313 55.7762C188.873 55.7762 189.354 55.8882 189.755 56.1122C190.156 56.3362 190.469 56.6769 190.693 57.1342C190.917 57.5822 191.029 58.1469 191.029 58.8282V63.0002H189.629V58.9682C189.629 58.3149 189.484 57.8202 189.195 57.4842C188.906 57.1482 188.486 56.9802 187.935 56.9802C187.571 56.9802 187.244 57.0689 186.955 57.2462C186.666 57.4142 186.432 57.6662 186.255 58.0022C186.087 58.3382 186.003 58.7489 186.003 59.2342V63.0002H184.603ZM194.99 63.1682C194.439 63.1682 193.959 63.0562 193.548 62.8322C193.147 62.6082 192.834 62.2722 192.61 61.8242C192.395 61.3762 192.288 60.8116 192.288 60.1302V55.9442H193.688V59.9762C193.688 60.6389 193.833 61.1382 194.122 61.4742C194.411 61.8102 194.827 61.9782 195.368 61.9782C195.732 61.9782 196.059 61.8896 196.348 61.7122C196.647 61.5349 196.88 61.2782 197.048 60.9422C197.216 60.6062 197.3 60.1956 197.3 59.7102V55.9442H198.7V63.0002H197.454L197.356 61.7962C197.141 62.2256 196.829 62.5616 196.418 62.8042C196.007 63.0469 195.531 63.1682 194.99 63.1682ZM203.109 63.0002C202.661 63.0002 202.273 62.9302 201.947 62.7902C201.62 62.6502 201.368 62.4169 201.191 62.0902C201.013 61.7636 200.925 61.3202 200.925 60.7602V57.1342H199.707V55.9442H200.925L201.093 54.1802H202.325V55.9442H204.327V57.1342H202.325V60.7742C202.325 61.1756 202.409 61.4509 202.577 61.6002C202.745 61.7402 203.034 61.8102 203.445 61.8102H204.257V63.0002H203.109ZM208.451 63.1682C207.779 63.1682 207.182 63.0142 206.659 62.7062C206.136 62.3982 205.726 61.9689 205.427 61.4182C205.138 60.8676 204.993 60.2282 204.993 59.5002C204.993 58.7536 205.138 58.1049 205.427 57.5542C205.726 56.9942 206.136 56.5602 206.659 56.2522C207.182 55.9349 207.788 55.7762 208.479 55.7762C209.17 55.7762 209.762 55.9302 210.257 56.2382C210.752 56.5462 211.134 56.9569 211.405 57.4702C211.676 57.9742 211.811 58.5342 211.811 59.1502C211.811 59.2436 211.806 59.3462 211.797 59.4582C211.797 59.5609 211.792 59.6776 211.783 59.8082H206.015V58.8142H210.411C210.383 58.2262 210.187 57.7689 209.823 57.4422C209.459 57.1062 209.006 56.9382 208.465 56.9382C208.082 56.9382 207.732 57.0269 207.415 57.2042C207.098 57.3722 206.841 57.6242 206.645 57.9602C206.458 58.2869 206.365 58.7022 206.365 59.2062V59.5982C206.365 60.1209 206.458 60.5642 206.645 60.9282C206.841 61.2829 207.098 61.5536 207.415 61.7402C207.732 61.9176 208.078 62.0062 208.451 62.0062C208.899 62.0062 209.268 61.9082 209.557 61.7122C209.846 61.5162 210.061 61.2502 210.201 60.9142H211.601C211.48 61.3436 211.274 61.7309 210.985 62.0762C210.696 62.4122 210.336 62.6782 209.907 62.8742C209.487 63.0702 209.002 63.1682 208.451 63.1682Z" fill="#F0F0F0"/>
</g>
<g clip-path="url(#clip8_1_2442)">
<g clip-path="url(#paint15_diamond_1_2442_clip_path)" data-figma-skip-parse="true"><g transform="matrix(0.0330965 0.0573248 -0.0573248 0.0330965 186.772 179.755)"><rect x="0" y="0" width="1012.99" height="1012.99" fill="url(#paint15_diamond_1_2442)" opacity="1" shape-rendering="crispEdges"/><rect x="0" y="0" width="1012.99" height="1012.99" transform="scale(1 -1)" fill="url(#paint15_diamond_1_2442)" opacity="1" shape-rendering="crispEdges"/><rect x="0" y="0" width="1012.99" height="1012.99" transform="scale(-1 1)" fill="url(#paint15_diamond_1_2442)" opacity="1" shape-rendering="crispEdges"/><rect x="0" y="0" width="1012.99" height="1012.99" transform="scale(-1)" fill="url(#paint15_diamond_1_2442)" opacity="1" shape-rendering="crispEdges"/></g></g><path d="M148.68 131.328C151.76 125.843 157.589 122.477 163.88 122.553L186.772 122.829L209.665 122.553C215.955 122.477 221.785 125.843 224.864 131.328L236.072 151.292L247.757 170.98C250.968 176.389 250.968 183.121 247.757 188.53L236.072 208.218L224.864 228.181C221.785 233.667 215.955 237.033 209.665 236.957L186.772 236.681L163.88 236.957C157.589 237.033 151.76 233.667 148.68 228.181L137.473 208.218L125.788 188.53C122.577 183.121 122.577 176.389 125.788 170.98L137.473 151.292L148.68 131.328Z" data-figma-gradient-fill="{&#34;type&#34;:&#34;GRADIENT_DIAMOND&#34;,&#34;stops&#34;:[{&#34;color&#34;:{&#34;r&#34;:0.39607843756675720,&#34;g&#34;:0.15294118225574493,&#34;b&#34;:0.76470589637756348,&#34;a&#34;:1.0},&#34;position&#34;:0.0},{&#34;color&#34;:{&#34;r&#34;:0.72156864404678345,&#34;g&#34;:0.54901963472366333,&#34;b&#34;:0.89803922176361084,&#34;a&#34;:1.0},&#34;position&#34;:1.0}],&#34;stopsVar&#34;:[{&#34;color&#34;:{&#34;r&#34;:0.39607843756675720,&#34;g&#34;:0.15294118225574493,&#34;b&#34;:0.76470589637756348,&#34;a&#34;:1.0},&#34;position&#34;:0.0},{&#34;color&#34;:{&#34;r&#34;:0.72156864404678345,&#34;g&#34;:0.54901963472366333,&#34;b&#34;:0.89803922176361084,&#34;a&#34;:1.0},&#34;position&#34;:1.0}],&#34;transform&#34;:{&#34;m00&#34;:66.192985534667969,&#34;m01&#34;:-114.64961242675781,&#34;m02&#34;:211.00068664550781,&#34;m10&#34;:114.64961242675781,&#34;m11&#34;:66.192985534667969,&#34;m12&#34;:89.333625793457031},&#34;opacity&#34;:1.0,&#34;blendMode&#34;:&#34;NORMAL&#34;,&#34;visible&#34;:true}"/>
<path d="M173.298 185V176.782L171.59 177.216V176.166L173.816 175.2H174.726V185H173.298ZM182.58 185.168C181.908 185.168 181.315 185.009 180.802 184.692C180.289 184.365 179.887 183.927 179.598 183.376C179.318 182.816 179.178 182.181 179.178 181.472C179.178 180.753 179.318 180.119 179.598 179.568C179.887 179.017 180.289 178.583 180.802 178.266C181.325 177.939 181.922 177.776 182.594 177.776C183.145 177.776 183.63 177.888 184.05 178.112C184.47 178.327 184.797 178.635 185.03 179.036V174.92H186.43V185H185.17L185.03 183.908C184.89 184.123 184.708 184.328 184.484 184.524C184.26 184.711 183.989 184.865 183.672 184.986C183.355 185.107 182.991 185.168 182.58 185.168ZM182.804 183.95C183.243 183.95 183.63 183.847 183.966 183.642C184.302 183.437 184.559 183.147 184.736 182.774C184.923 182.401 185.016 181.967 185.016 181.472C185.016 180.977 184.923 180.548 184.736 180.184C184.559 179.811 184.302 179.521 183.966 179.316C183.63 179.101 183.243 178.994 182.804 178.994C182.384 178.994 182.006 179.101 181.67 179.316C181.334 179.521 181.073 179.811 180.886 180.184C180.699 180.548 180.606 180.977 180.606 181.472C180.606 181.967 180.699 182.401 180.886 182.774C181.073 183.147 181.334 183.437 181.67 183.642C182.006 183.847 182.384 183.95 182.804 183.95ZM190.262 185.168C189.684 185.168 189.203 185.07 188.82 184.874C188.438 184.678 188.153 184.417 187.966 184.09C187.78 183.754 187.686 183.395 187.686 183.012C187.686 182.545 187.808 182.149 188.05 181.822C188.293 181.486 188.638 181.229 189.086 181.052C189.534 180.875 190.071 180.786 190.696 180.786H192.53C192.53 180.375 192.47 180.035 192.348 179.764C192.227 179.493 192.045 179.293 191.802 179.162C191.569 179.022 191.27 178.952 190.906 178.952C190.486 178.952 190.127 179.055 189.828 179.26C189.53 179.456 189.343 179.75 189.268 180.142H187.868C187.924 179.647 188.092 179.227 188.372 178.882C188.662 178.527 189.03 178.257 189.478 178.07C189.926 177.874 190.402 177.776 190.906 177.776C191.569 177.776 192.124 177.893 192.572 178.126C193.02 178.359 193.356 178.691 193.58 179.12C193.814 179.54 193.93 180.044 193.93 180.632V185H192.712L192.6 183.81C192.498 183.997 192.376 184.174 192.236 184.342C192.096 184.51 191.928 184.655 191.732 184.776C191.546 184.897 191.326 184.991 191.074 185.056C190.832 185.131 190.561 185.168 190.262 185.168ZM190.528 184.034C190.827 184.034 191.098 183.973 191.34 183.852C191.583 183.731 191.788 183.567 191.956 183.362C192.134 183.147 192.264 182.909 192.348 182.648C192.442 182.377 192.493 182.102 192.502 181.822V181.78H190.836C190.435 181.78 190.108 181.831 189.856 181.934C189.614 182.027 189.436 182.158 189.324 182.326C189.212 182.494 189.156 182.69 189.156 182.914C189.156 183.147 189.208 183.348 189.31 183.516C189.422 183.675 189.581 183.801 189.786 183.894C189.992 183.987 190.239 184.034 190.528 184.034ZM195.891 188.08L197.613 184.216H197.207L194.421 177.944H195.933L198.145 183.068L200.371 177.944H201.841L197.361 188.08H195.891Z" fill="#F0F0F0"/>
</g>
<g clip-path="url(#clip9_1_2442)">
<g clip-path="url(#paint16_diamond_1_2442_clip_path)" data-figma-skip-parse="true"><g transform="matrix(0.0330965 0.0573248 -0.0573248 0.0330965 79.7724 118.755)"><rect x="0" y="0" width="1012.99" height="1012.99" fill="url(#paint16_diamond_1_2442)" opacity="1" shape-rendering="crispEdges"/><rect x="0" y="0" width="1012.99" height="1012.99" transform="scale(1 -1)" fill="url(#paint16_diamond_1_2442)" opacity="1" shape-rendering="crispEdges"/><rect x="0" y="0" width="1012.99" height="1012.99" transform="scale(-1 1)" fill="url(#paint16_diamond_1_2442)" opacity="1" shape-rendering="crispEdges"/><rect x="0" y="0" width="1012.99" height="1012.99" transform="scale(-1)" fill="url(#paint16_diamond_1_2442)" opacity="1" shape-rendering="crispEdges"/></g></g><path d="M41.6805 70.3281C44.76 64.8427 50.5894 61.477 56.8797 61.5528L79.7724 61.8287L102.665 61.5528C108.955 61.477 114.785 64.8427 117.864 70.3281L129.072 90.2917L140.757 109.979C143.968 115.389 143.968 122.12 140.757 127.53L129.072 147.218L117.864 167.181C114.785 172.667 108.955 176.032 102.665 175.957L79.7724 175.681L56.8797 175.957C50.5894 176.032 44.76 172.667 41.6805 167.181L30.473 147.218L18.7878 127.53C15.577 122.12 15.577 115.389 18.7878 109.979L30.473 90.2917L41.6805 70.3281Z" data-figma-gradient-fill="{&#34;type&#34;:&#34;GRADIENT_DIAMOND&#34;,&#34;stops&#34;:[{&#34;color&#34;:{&#34;r&#34;:0.035294119268655777,&#34;g&#34;:0.16470588743686676,&#34;b&#34;:0.67058825492858887,&#34;a&#34;:1.0},&#34;position&#34;:0.0},{&#34;color&#34;:{&#34;r&#34;:0.49019607901573181,&#34;g&#34;:0.58547061681747437,&#34;b&#34;:0.90588235855102539,&#34;a&#34;:1.0},&#34;position&#34;:1.0}],&#34;stopsVar&#34;:[{&#34;color&#34;:{&#34;r&#34;:0.035294119268655777,&#34;g&#34;:0.16470588743686676,&#34;b&#34;:0.67058825492858887,&#34;a&#34;:1.0},&#34;position&#34;:0.0},{&#34;color&#34;:{&#34;r&#34;:0.49019607901573181,&#34;g&#34;:0.58547061681747437,&#34;b&#34;:0.90588235855102539,&#34;a&#34;:1.0},&#34;position&#34;:1.0}],&#34;transform&#34;:{&#34;m00&#34;:66.192985534667969,&#34;m01&#34;:-114.64961242675781,&#34;m02&#34;:104.00068664550781,&#34;m10&#34;:114.64961242675781,&#34;m11&#34;:66.192985534667969,&#34;m12&#34;:28.333381652832031},&#34;opacity&#34;:1.0,&#34;blendMode&#34;:&#34;NORMAL&#34;,&#34;visible&#34;:true}"/>
<path d="M53.4644 124.168C52.7738 124.168 52.1811 124.046 51.6864 123.804C51.1918 123.552 50.7998 123.216 50.5104 122.796C50.2211 122.366 50.0438 121.886 49.9784 121.354H51.3504C51.4438 121.83 51.6771 122.222 52.0504 122.53C52.4238 122.828 52.8951 122.978 53.4644 122.978C53.8938 122.978 54.2624 122.875 54.5704 122.67C54.8784 122.464 55.1164 122.189 55.2844 121.844C55.4524 121.498 55.5364 121.116 55.5364 120.696C55.5364 120.248 55.4478 119.86 55.2704 119.534C55.1024 119.198 54.8644 118.936 54.5564 118.75C54.2578 118.563 53.9078 118.47 53.5064 118.47C53.0211 118.47 52.6011 118.582 52.2464 118.806C51.9011 119.02 51.6491 119.296 51.4904 119.632H50.1324L50.9444 114.2H56.2224V115.418H52.0224L51.5044 118.162C51.7284 117.91 52.0271 117.704 52.4004 117.546C52.7831 117.387 53.2171 117.308 53.7024 117.308C54.1971 117.308 54.6404 117.396 55.0324 117.574C55.4244 117.742 55.7558 117.98 56.0264 118.288C56.3064 118.596 56.5164 118.955 56.6564 119.366C56.8058 119.776 56.8804 120.21 56.8804 120.668C56.8804 121.162 56.8011 121.62 56.6424 122.04C56.4838 122.46 56.2551 122.833 55.9564 123.16C55.6671 123.477 55.3078 123.724 54.8784 123.902C54.4584 124.079 53.9871 124.168 53.4644 124.168ZM61.3621 124V116.944H62.6221L62.7201 117.938C62.9441 117.574 63.2427 117.289 63.6161 117.084C63.9894 116.878 64.4094 116.776 64.8761 116.776C65.2307 116.776 65.5527 116.827 65.8421 116.93C66.1314 117.023 66.3881 117.168 66.6121 117.364C66.8361 117.56 67.0181 117.802 67.1581 118.092C67.4101 117.681 67.7461 117.359 68.1661 117.126C68.5954 116.892 69.0481 116.776 69.5241 116.776C70.0934 116.776 70.5834 116.892 70.9941 117.126C71.4047 117.35 71.7174 117.69 71.9321 118.148C72.1467 118.596 72.2541 119.156 72.2541 119.828V124H70.8681V119.968C70.8681 119.314 70.7327 118.82 70.4621 118.484C70.2007 118.148 69.8134 117.98 69.3001 117.98C68.9547 117.98 68.6467 118.068 68.3761 118.246C68.1054 118.423 67.8907 118.68 67.7321 119.016C67.5827 119.352 67.5081 119.762 67.5081 120.248V124H66.1081V119.968C66.1081 119.314 65.9727 118.82 65.7021 118.484C65.4407 118.148 65.0534 117.98 64.5401 117.98C64.2134 117.98 63.9147 118.068 63.6441 118.246C63.3734 118.423 63.1587 118.68 63.0001 119.016C62.8414 119.352 62.7621 119.762 62.7621 120.248V124H61.3621ZM73.7412 124V116.944H75.1412V124H73.7412ZM74.4552 115.614C74.1846 115.614 73.9606 115.53 73.7832 115.362C73.6152 115.194 73.5312 114.979 73.5312 114.718C73.5312 114.466 73.6152 114.26 73.7832 114.102C73.9606 113.934 74.1846 113.85 74.4552 113.85C74.7166 113.85 74.9359 113.934 75.1132 114.102C75.2906 114.26 75.3792 114.466 75.3792 114.718C75.3792 114.979 75.2906 115.194 75.1132 115.362C74.9359 115.53 74.7166 115.614 74.4552 115.614ZM76.7232 124V116.944H77.9832L78.0672 118.148C78.2912 117.728 78.6086 117.396 79.0192 117.154C79.4299 116.902 79.9012 116.776 80.4332 116.776C80.9932 116.776 81.4739 116.888 81.8752 117.112C82.2766 117.336 82.5892 117.676 82.8132 118.134C83.0372 118.582 83.1492 119.146 83.1492 119.828V124H81.7492V119.968C81.7492 119.314 81.6046 118.82 81.3152 118.484C81.0259 118.148 80.6059 117.98 80.0552 117.98C79.6912 117.98 79.3646 118.068 79.0752 118.246C78.7859 118.414 78.5526 118.666 78.3752 119.002C78.2072 119.338 78.1232 119.748 78.1232 120.234V124H76.7232ZM87.11 124.168C86.5594 124.168 86.0787 124.056 85.668 123.832C85.2667 123.608 84.954 123.272 84.73 122.824C84.5154 122.376 84.408 121.811 84.408 121.13V116.944H85.808V120.976C85.808 121.638 85.9527 122.138 86.242 122.474C86.5314 122.81 86.9467 122.978 87.488 122.978C87.852 122.978 88.1787 122.889 88.468 122.712C88.7667 122.534 89 122.278 89.168 121.942C89.336 121.606 89.42 121.195 89.42 120.71V116.944H90.82V124H89.574L89.476 122.796C89.2614 123.225 88.9487 123.561 88.538 123.804C88.1274 124.046 87.6514 124.168 87.11 124.168ZM95.2288 124C94.7808 124 94.3935 123.93 94.0668 123.79C93.7402 123.65 93.4882 123.416 93.3108 123.09C93.1335 122.763 93.0448 122.32 93.0448 121.76V118.134H91.8268V116.944H93.0448L93.2128 115.18H94.4448V116.944H96.4468V118.134H94.4448V121.774C94.4448 122.175 94.5288 122.45 94.6968 122.6C94.8648 122.74 95.1542 122.81 95.5648 122.81H96.3768V124H95.2288ZM100.571 124.168C99.8993 124.168 99.3019 124.014 98.7793 123.706C98.2566 123.398 97.8459 122.968 97.5473 122.418C97.2579 121.867 97.1133 121.228 97.1133 120.5C97.1133 119.753 97.2579 119.104 97.5473 118.554C97.8459 117.994 98.2566 117.56 98.7793 117.252C99.3019 116.934 99.9086 116.776 100.599 116.776C101.29 116.776 101.883 116.93 102.377 117.238C102.872 117.546 103.255 117.956 103.525 118.47C103.796 118.974 103.931 119.534 103.931 120.15C103.931 120.243 103.927 120.346 103.917 120.458C103.917 120.56 103.913 120.677 103.903 120.808H98.1353V119.814H102.531C102.503 119.226 102.307 118.768 101.943 118.442C101.579 118.106 101.127 117.938 100.585 117.938C100.203 117.938 99.8526 118.026 99.5353 118.204C99.2179 118.372 98.9613 118.624 98.7653 118.96C98.5786 119.286 98.4853 119.702 98.4853 120.206V120.598C98.4853 121.12 98.5786 121.564 98.7653 121.928C98.9613 122.282 99.2179 122.553 99.5353 122.74C99.8526 122.917 100.198 123.006 100.571 123.006C101.019 123.006 101.388 122.908 101.677 122.712C101.967 122.516 102.181 122.25 102.321 121.914H103.721C103.6 122.343 103.395 122.73 103.105 123.076C102.816 123.412 102.457 123.678 102.027 123.874C101.607 124.07 101.122 124.168 100.571 124.168ZM107.797 124.168C107.199 124.168 106.677 124.07 106.229 123.874C105.781 123.678 105.426 123.402 105.165 123.048C104.903 122.693 104.745 122.278 104.689 121.802H106.117C106.163 122.026 106.252 122.231 106.383 122.418C106.523 122.604 106.709 122.754 106.943 122.866C107.185 122.978 107.47 123.034 107.797 123.034C108.105 123.034 108.357 122.992 108.553 122.908C108.758 122.814 108.907 122.693 109.001 122.544C109.094 122.385 109.141 122.217 109.141 122.04C109.141 121.778 109.075 121.582 108.945 121.452C108.823 121.312 108.637 121.204 108.385 121.13C108.142 121.046 107.848 120.971 107.503 120.906C107.176 120.85 106.859 120.775 106.551 120.682C106.252 120.579 105.981 120.453 105.739 120.304C105.505 120.154 105.319 119.968 105.179 119.744C105.039 119.51 104.969 119.226 104.969 118.89C104.969 118.488 105.076 118.129 105.291 117.812C105.505 117.485 105.809 117.233 106.201 117.056C106.602 116.869 107.073 116.776 107.615 116.776C108.399 116.776 109.029 116.962 109.505 117.336C109.981 117.709 110.261 118.236 110.345 118.918H108.987C108.949 118.6 108.809 118.358 108.567 118.19C108.324 118.012 108.002 117.924 107.601 117.924C107.199 117.924 106.891 118.003 106.677 118.162C106.462 118.32 106.355 118.53 106.355 118.792C106.355 118.96 106.415 119.109 106.537 119.24C106.658 119.37 106.835 119.482 107.069 119.576C107.311 119.66 107.605 119.739 107.951 119.814C108.445 119.907 108.889 120.024 109.281 120.164C109.673 120.304 109.985 120.509 110.219 120.78C110.452 121.05 110.569 121.438 110.569 121.942C110.578 122.38 110.466 122.768 110.233 123.104C110.009 123.44 109.687 123.701 109.267 123.888C108.856 124.074 108.366 124.168 107.797 124.168Z" fill="#F0F0F0"/>
</g>
<g clip-path="url(#clip10_1_2442)">
<g clip-path="url(#paint17_diamond_1_2442_clip_path)" data-figma-skip-parse="true"><g transform="matrix(0.0330965 0.0573248 -0.0573248 0.0330965 294.772 118.755)"><rect x="0" y="0" width="1012.99" height="1012.99" fill="url(#paint17_diamond_1_2442)" opacity="1" shape-rendering="crispEdges"/><rect x="0" y="0" width="1012.99" height="1012.99" transform="scale(1 -1)" fill="url(#paint17_diamond_1_2442)" opacity="1" shape-rendering="crispEdges"/><rect x="0" y="0" width="1012.99" height="1012.99" transform="scale(-1 1)" fill="url(#paint17_diamond_1_2442)" opacity="1" shape-rendering="crispEdges"/><rect x="0" y="0" width="1012.99" height="1012.99" transform="scale(-1)" fill="url(#paint17_diamond_1_2442)" opacity="1" shape-rendering="crispEdges"/></g></g><path d="M256.68 70.3281C259.76 64.8427 265.589 61.477 271.879 61.5528L294.772 61.8287L317.665 61.5528C323.955 61.477 329.785 64.8427 332.864 70.3281L344.071 90.2917L355.757 109.979C358.967 115.389 358.968 122.12 355.757 127.53L344.071 147.218L332.864 167.181C329.785 172.667 323.955 176.032 317.665 175.957L294.772 175.681L271.879 175.957C265.589 176.032 259.76 172.667 256.68 167.181L245.473 147.218L233.788 127.53C230.577 122.12 230.577 115.389 233.788 109.979L245.473 90.2917L256.68 70.3281Z" data-figma-gradient-fill="{&#34;type&#34;:&#34;GRADIENT_DIAMOND&#34;,&#34;stops&#34;:[{&#34;color&#34;:{&#34;r&#34;:0.14607648551464081,&#34;g&#34;:0.49519231915473938,&#34;b&#34;:0.14284393191337585,&#34;a&#34;:1.0},&#34;position&#34;:0.0},{&#34;color&#34;:{&#34;r&#34;:0.58431375026702881,&#34;g&#34;:0.88235294818878174,&#34;b&#34;:0.54117649793624878,&#34;a&#34;:1.0},&#34;position&#34;:1.0}],&#34;stopsVar&#34;:[{&#34;color&#34;:{&#34;r&#34;:0.14607648551464081,&#34;g&#34;:0.49519231915473938,&#34;b&#34;:0.14284393191337585,&#34;a&#34;:1.0},&#34;position&#34;:0.0},{&#34;color&#34;:{&#34;r&#34;:0.58431375026702881,&#34;g&#34;:0.88235294818878174,&#34;b&#34;:0.54117649793624878,&#34;a&#34;:1.0},&#34;position&#34;:1.0}],&#34;transform&#34;:{&#34;m00&#34;:66.192985534667969,&#34;m01&#34;:-114.64961242675781,&#34;m02&#34;:319.00042724609375,&#34;m10&#34;:114.64961242675781,&#34;m11&#34;:66.192985534667969,&#34;m12&#34;:28.333381652832031},&#34;opacity&#34;:1.0,&#34;blendMode&#34;:&#34;NORMAL&#34;,&#34;visible&#34;:true}"/>
<path d="M279.078 124V115.782L277.37 116.216V115.166L279.596 114.2H280.506V124H279.078ZM285.224 124V113.92H286.624V118.092C286.858 117.681 287.18 117.359 287.59 117.126C288.01 116.892 288.472 116.776 288.976 116.776C289.536 116.776 290.017 116.892 290.418 117.126C290.82 117.35 291.128 117.69 291.342 118.148C291.557 118.596 291.664 119.16 291.664 119.842V124H290.278V119.982C290.278 119.328 290.138 118.834 289.858 118.498C289.578 118.152 289.163 117.98 288.612 117.98C288.239 117.98 287.903 118.068 287.604 118.246C287.306 118.423 287.068 118.684 286.89 119.03C286.713 119.366 286.624 119.776 286.624 120.262V124H285.224ZM296.255 124.168C295.592 124.168 294.995 124.014 294.463 123.706C293.94 123.398 293.525 122.968 293.217 122.418C292.918 121.858 292.769 121.214 292.769 120.486C292.769 119.739 292.923 119.09 293.231 118.54C293.539 117.98 293.959 117.546 294.491 117.238C295.023 116.93 295.62 116.776 296.283 116.776C296.955 116.776 297.552 116.93 298.075 117.238C298.597 117.546 299.008 117.975 299.307 118.526C299.615 119.076 299.769 119.725 299.769 120.472C299.769 121.218 299.615 121.867 299.307 122.418C299.008 122.968 298.593 123.398 298.061 123.706C297.529 124.014 296.927 124.168 296.255 124.168ZM296.255 122.964C296.637 122.964 296.983 122.87 297.291 122.684C297.608 122.497 297.86 122.222 298.047 121.858C298.243 121.484 298.341 121.022 298.341 120.472C298.341 119.921 298.247 119.464 298.061 119.1C297.874 118.726 297.622 118.446 297.305 118.26C296.997 118.073 296.656 117.98 296.283 117.98C295.909 117.98 295.564 118.073 295.247 118.26C294.929 118.446 294.673 118.726 294.477 119.1C294.29 119.464 294.197 119.921 294.197 120.472C294.197 121.022 294.29 121.484 294.477 121.858C294.673 122.222 294.925 122.497 295.233 122.684C295.55 122.87 295.891 122.964 296.255 122.964ZM303.586 124.168C303.035 124.168 302.554 124.056 302.144 123.832C301.742 123.608 301.43 123.272 301.206 122.824C300.991 122.376 300.884 121.811 300.884 121.13V116.944H302.284V120.976C302.284 121.638 302.428 122.138 302.718 122.474C303.007 122.81 303.422 122.978 303.964 122.978C304.328 122.978 304.654 122.889 304.944 122.712C305.242 122.534 305.476 122.278 305.644 121.942C305.812 121.606 305.896 121.195 305.896 120.71V116.944H307.296V124H306.05L305.952 122.796C305.737 123.225 305.424 123.561 305.014 123.804C304.603 124.046 304.127 124.168 303.586 124.168ZM308.792 124V116.944H310.052L310.178 118.274C310.337 117.956 310.542 117.69 310.794 117.476C311.046 117.252 311.34 117.079 311.676 116.958C312.022 116.836 312.414 116.776 312.852 116.776V118.26H312.348C312.059 118.26 311.784 118.297 311.522 118.372C311.261 118.437 311.028 118.554 310.822 118.722C310.626 118.89 310.472 119.118 310.36 119.408C310.248 119.697 310.192 120.056 310.192 120.486V124H308.792Z" fill="#F0F0F0"/>
</g>
<defs>
<clipPath id="paint14_diamond_1_2442_clip_path"><path d="M148.68 9.32813C151.76 3.84269 157.589 0.477036 163.88 0.552838L186.772 0.828713L209.665 0.552838C215.955 0.477036 221.785 3.84268 224.864 9.32812L236.072 29.2917L247.757 48.9794C250.968 54.389 250.968 61.1203 247.757 66.53L236.072 86.2177L224.864 106.181C221.785 111.667 215.955 115.032 209.665 114.957L186.772 114.681L163.88 114.957C157.589 115.032 151.76 111.667 148.68 106.181L137.473 86.2177L125.788 66.53C122.577 61.1203 122.577 54.389 125.788 48.9794L137.473 29.2917L148.68 9.32813Z"/></clipPath><clipPath id="paint15_diamond_1_2442_clip_path"><path d="M148.68 131.328C151.76 125.843 157.589 122.477 163.88 122.553L186.772 122.829L209.665 122.553C215.955 122.477 221.785 125.843 224.864 131.328L236.072 151.292L247.757 170.98C250.968 176.389 250.968 183.121 247.757 188.53L236.072 208.218L224.864 228.181C221.785 233.667 215.955 237.033 209.665 236.957L186.772 236.681L163.88 236.957C157.589 237.033 151.76 233.667 148.68 228.181L137.473 208.218L125.788 188.53C122.577 183.121 122.577 176.389 125.788 170.98L137.473 151.292L148.68 131.328Z"/></clipPath><clipPath id="paint16_diamond_1_2442_clip_path"><path d="M41.6805 70.3281C44.76 64.8427 50.5894 61.477 56.8797 61.5528L79.7724 61.8287L102.665 61.5528C108.955 61.477 114.785 64.8427 117.864 70.3281L129.072 90.2917L140.757 109.979C143.968 115.389 143.968 122.12 140.757 127.53L129.072 147.218L117.864 167.181C114.785 172.667 108.955 176.032 102.665 175.957L79.7724 175.681L56.8797 175.957C50.5894 176.032 44.76 172.667 41.6805 167.181L30.473 147.218L18.7878 127.53C15.577 122.12 15.577 115.389 18.7878 109.979L30.473 90.2917L41.6805 70.3281Z"/></clipPath><clipPath id="paint17_diamond_1_2442_clip_path"><path d="M256.68 70.3281C259.76 64.8427 265.589 61.477 271.879 61.5528L294.772 61.8287L317.665 61.5528C323.955 61.477 329.785 64.8427 332.864 70.3281L344.071 90.2917L355.757 109.979C358.967 115.389 358.968 122.12 355.757 127.53L344.071 147.218L332.864 167.181C329.785 172.667 323.955 176.032 317.665 175.957L294.772 175.681L271.879 175.957C265.589 176.032 259.76 172.667 256.68 167.181L245.473 147.218L233.788 127.53C230.577 122.12 230.577 115.389 233.788 109.979L245.473 90.2917L256.68 70.3281Z"/></clipPath><linearGradient id="paint0_linear_1_2442" x1="145.498" y1="155.686" x2="-301.274" y2="496.587" gradientUnits="userSpaceOnUse">
<stop stop-color="#0D0812"/>
<stop offset="0.495192" stop-color="#E44E66"/>
<stop offset="0.9375" stop-color="#010101"/>
</linearGradient>
<linearGradient id="paint1_linear_1_2442" x1="144.861" y1="183.756" x2="-238.922" y2="473.673" gradientUnits="userSpaceOnUse">
<stop stop-color="#12122A"/>
<stop offset="0.495192" stop-color="#5478B2"/>
<stop offset="1" stop-color="#010101"/>
</linearGradient>
<linearGradient id="paint2_linear_1_2442" x1="212.901" y1="184.14" x2="-159.198" y2="441.062" gradientUnits="userSpaceOnUse">
<stop stop-color="#13132B"/>
<stop offset="0.495192" stop-color="#5275D2"/>
<stop offset="1" stop-color="#010101"/>
</linearGradient>
<linearGradient id="paint3_linear_1_2442" x1="161.724" y1="153.119" x2="-118.321" y2="458.588" gradientUnits="userSpaceOnUse">
<stop stop-color="#0D1E30"/>
<stop offset="0.495192" stop-color="#0D1E30"/>
<stop offset="1" stop-color="#010101"/>
</linearGradient>
<linearGradient id="paint4_linear_1_2442" x1="168.511" y1="162.875" x2="-19.6682" y2="457.354" gradientUnits="userSpaceOnUse">
<stop stop-color="#12122A"/>
<stop offset="0.495192" stop-color="#627EEA"/>
<stop offset="0.962119" stop-color="#010101"/>
</linearGradient>
<linearGradient id="paint5_linear_1_2442" x1="168.935" y1="170.51" x2="45.0346" y2="474.456" gradientUnits="userSpaceOnUse">
<stop stop-color="#3B3B0A"/>
<stop offset="0.495192" stop-color="#F3BA2F"/>
<stop offset="1" stop-color="#010101"/>
</linearGradient>
<linearGradient id="paint6_linear_1_2442" x1="179.54" y1="186.809" x2="122.563" y2="499.008" gradientUnits="userSpaceOnUse">
<stop stop-color="#4C2F3B"/>
<stop offset="0.480842" stop-color="#BC3E81"/>
<stop offset="0.965095" stop-color="#010101"/>
</linearGradient>
<linearGradient id="paint7_linear_1_2442" x1="195.322" y1="192.473" x2="225.484" y2="522.293" gradientUnits="userSpaceOnUse">
<stop stop-color="#1E252C"/>
<stop offset="0.495092" stop-color="#E9B5CB"/>
<stop offset="0.943278" stop-color="#010101"/>
</linearGradient>
<linearGradient id="paint8_linear_1_2442" x1="203.959" y1="189.665" x2="318.545" y2="495.027" gradientUnits="userSpaceOnUse">
<stop stop-color="#322710"/>
<stop offset="0.495192" stop-color="#F4C257"/>
<stop offset="0.976807" stop-color="#010101"/>
</linearGradient>
<linearGradient id="paint9_linear_1_2442" x1="205.839" y1="175.176" x2="397.675" y2="470.952" gradientUnits="userSpaceOnUse">
<stop stop-color="#061B15"/>
<stop offset="0.495192" stop-color="#26A17B"/>
<stop offset="1" stop-color="#010101"/>
</linearGradient>
<linearGradient id="paint10_linear_1_2442" x1="204.566" y1="165.844" x2="472.035" y2="476.909" gradientUnits="userSpaceOnUse">
<stop stop-color="#010101"/>
<stop offset="0.495192" stop-color="#C3A634"/>
<stop offset="1" stop-color="#010101"/>
</linearGradient>
<linearGradient id="paint11_linear_1_2442" x1="215.595" y1="153.543" x2="556.368" y2="469.724" gradientUnits="userSpaceOnUse">
<stop stop-color="#23292F"/>
<stop offset="0.519231" stop-color="#E9B5CB"/>
<stop offset="1" stop-color="#010101"/>
</linearGradient>
<linearGradient id="paint12_linear_1_2442" x1="224.503" y1="155.24" x2="663.736" y2="431.979" gradientUnits="userSpaceOnUse">
<stop stop-color="#010101"/>
<stop offset="0.495192" stop-color="#C98635"/>
<stop offset="1" stop-color="#010101"/>
</linearGradient>
<linearGradient id="paint13_linear_1_2442" x1="219.5" y1="128" x2="673.432" y2="517.076" gradientUnits="userSpaceOnUse">
<stop stop-color="#010101"/>
<stop offset="0.49129" stop-color="#981755"/>
<stop offset="0.965556" stop-color="#010101"/>
</linearGradient>
<linearGradient id="paint14_diamond_1_2442" x1="0" y1="0" x2="500" y2="500" gradientUnits="userSpaceOnUse">
<stop stop-color="#E4272D"/>
<stop offset="1" stop-color="#EB847C"/>
</linearGradient>
<linearGradient id="paint15_diamond_1_2442" x1="0" y1="0" x2="500" y2="500" gradientUnits="userSpaceOnUse">
<stop stop-color="#6527C3"/>
<stop offset="1" stop-color="#B88CE5"/>
</linearGradient>
<linearGradient id="paint16_diamond_1_2442" x1="0" y1="0" x2="500" y2="500" gradientUnits="userSpaceOnUse">
<stop stop-color="#092AAB"/>
<stop offset="1" stop-color="#7D95E7"/>
</linearGradient>
<linearGradient id="paint17_diamond_1_2442" x1="0" y1="0" x2="500" y2="500" gradientUnits="userSpaceOnUse">
<stop stop-color="#257E24"/>
<stop offset="1" stop-color="#95E18A"/>
</linearGradient>
<clipPath id="clip0_1_2442">
<rect width="33.9343" height="33.9343" fill="white" transform="translate(137.97 411.868)"/>
</clipPath>
<clipPath id="clip1_1_2442">
<rect width="33.9343" height="33.9343" fill="white" transform="translate(342.424 343.151)"/>
</clipPath>
<clipPath id="clip2_1_2442">
<rect width="33.9343" height="33.9343" fill="white" transform="translate(92.1589 360.966)"/>
</clipPath>
<clipPath id="clip3_1_2442">
<rect width="33.9343" height="33.9343" fill="white" transform="translate(23.4421 383.872)"/>
</clipPath>
<clipPath id="clip4_1_2442">
<rect width="33.9343" height="33.9343" fill="white" transform="translate(277.1 406.777)"/>
</clipPath>
<clipPath id="clip5_1_2442">
<rect width="33.9343" height="33.9343" fill="white" transform="translate(211.777 428.835)"/>
</clipPath>
<clipPath id="clip6_1_2442">
<rect width="33.9343" height="33.9343" fill="white" transform="translate(354.302 411.019)"/>
</clipPath>
<clipPath id="clip7_1_2442">
<rect width="128" height="116" fill="white" transform="translate(123)"/>
</clipPath>
<clipPath id="clip8_1_2442">
<rect width="128" height="116" fill="white" transform="translate(123 122)"/>
</clipPath>
<clipPath id="clip9_1_2442">
<rect width="128" height="116" fill="white" transform="translate(16 61)"/>
</clipPath>
<clipPath id="clip10_1_2442">
<rect width="128" height="116" fill="white" transform="translate(231 61)"/>
</clipPath>
</defs>
</svg>
