<svg width="65" height="65" viewBox="0 0 65 65" fill="none" xmlns="http://www.w3.org/2000/svg">
<g clip-path="url(#paint0_diamond_1_397_clip_path)" data-figma-skip-parse="true"><g transform="matrix(0 0.0262308 -0.0262308 0 27.7308 27.7308)"><rect x="0" y="0" width="1114.37" height="1114.37" fill="url(#paint0_diamond_1_397)" opacity="1" shape-rendering="crispEdges"/><rect x="0" y="0" width="1114.37" height="1114.37" transform="scale(1 -1)" fill="url(#paint0_diamond_1_397)" opacity="1" shape-rendering="crispEdges"/><rect x="0" y="0" width="1114.37" height="1114.37" transform="scale(-1 1)" fill="url(#paint0_diamond_1_397)" opacity="1" shape-rendering="crispEdges"/><rect x="0" y="0" width="1114.37" height="1114.37" transform="scale(-1)" fill="url(#paint0_diamond_1_397)" opacity="1" shape-rendering="crispEdges"/></g></g><path d="M27.7308 53.9615C34.6876 53.9615 41.3595 51.1979 46.2787 46.2787C51.1979 41.3595 53.9615 34.6876 53.9615 27.7308C53.9615 20.7739 51.1979 14.102 46.2787 9.18282C41.3595 4.26359 34.6876 1.5 27.7308 1.5C20.7739 1.5 14.102 4.26359 9.18282 9.18282C4.26359 14.102 1.5 20.7739 1.5 27.7308C1.5 34.6876 4.26359 41.3595 9.18282 46.2787C14.102 51.1979 20.7739 53.9615 27.7308 53.9615Z" data-figma-gradient-fill="{&#34;type&#34;:&#34;GRADIENT_DIAMOND&#34;,&#34;stops&#34;:[{&#34;color&#34;:{&#34;r&#34;:0.94711536169052124,&#34;g&#34;:0.95901441574096680,&#34;b&#34;:1.0,&#34;a&#34;:1.0},&#34;position&#34;:0.0},{&#34;color&#34;:{&#34;r&#34;:0.41826921701431274,&#34;g&#34;:0.54915851354598999,&#34;b&#34;:1.0,&#34;a&#34;:1.0},&#34;position&#34;:1.0}],&#34;stopsVar&#34;:[{&#34;color&#34;:{&#34;r&#34;:0.94711536169052124,&#34;g&#34;:0.95901441574096680,&#34;b&#34;:1.0,&#34;a&#34;:1.0},&#34;position&#34;:0.0},{&#34;color&#34;:{&#34;r&#34;:0.41826921701431274,&#34;g&#34;:0.54915851354598999,&#34;b&#34;:1.0,&#34;a&#34;:1.0},&#34;position&#34;:1.0}],&#34;transform&#34;:{&#34;m00&#34;:3.2123430180670169e-15,&#34;m01&#34;:-52.461540222167969,&#34;m02&#34;:53.961540222167969,&#34;m10&#34;:52.461540222167969,&#34;m11&#34;:3.2123430180670169e-15,&#34;m12&#34;:1.50},&#34;opacity&#34;:1.0,&#34;blendMode&#34;:&#34;NORMAL&#34;,&#34;visible&#34;:true}"/>
<path d="M63.5 63.5L46.8077 46.8077M27.7308 53.9615C34.6876 53.9615 41.3595 51.1979 46.2787 46.2787C51.1979 41.3595 53.9615 34.6876 53.9615 27.7308C53.9615 20.7739 51.1979 14.102 46.2787 9.18282C41.3595 4.26359 34.6876 1.5 27.7308 1.5C20.7739 1.5 14.102 4.26359 9.18282 9.18282C4.26359 14.102 1.5 20.7739 1.5 27.7308C1.5 34.6876 4.26359 41.3595 9.18282 46.2787C14.102 51.1979 20.7739 53.9615 27.7308 53.9615Z" stroke="#2F36D4" stroke-width="3" stroke-linecap="round" stroke-linejoin="round"/>
<defs>
<clipPath id="paint0_diamond_1_397_clip_path"><path d="M27.7308 53.9615C34.6876 53.9615 41.3595 51.1979 46.2787 46.2787C51.1979 41.3595 53.9615 34.6876 53.9615 27.7308C53.9615 20.7739 51.1979 14.102 46.2787 9.18282C41.3595 4.26359 34.6876 1.5 27.7308 1.5C20.7739 1.5 14.102 4.26359 9.18282 9.18282C4.26359 14.102 1.5 20.7739 1.5 27.7308C1.5 34.6876 4.26359 41.3595 9.18282 46.2787C14.102 51.1979 20.7739 53.9615 27.7308 53.9615Z"/></clipPath><linearGradient id="paint0_diamond_1_397" x1="0" y1="0" x2="500" y2="500" gradientUnits="userSpaceOnUse">
<stop stop-color="#F2F5FF"/>
<stop offset="1" stop-color="#6B8CFF"/>
</linearGradient>
</defs>
</svg>
