<svg width="1294" height="638" viewBox="0 0 1294 638" fill="none" xmlns="http://www.w3.org/2000/svg">
<path d="M576.353 212C517.995 334.379 237.361 495.366 1.35316 550" stroke="url(#paint0_linear_1_161)" stroke-width="12"/>
<path d="M596.353 209C523.353 362 281.361 505.744 83.3532 568" stroke="url(#paint1_linear_1_161)" stroke-width="12"/>
<path d="M597.353 233C536.945 367.039 400.116 483.5 228.353 567" stroke="url(#paint2_linear_1_161)" stroke-width="12"/>
<path d="M600.353 247C539.954 381.011 462.09 494.518 290.353 578" stroke="url(#paint3_linear_1_161)" stroke-width="12"/>
<path d="M616.353 243C588.603 298.468 544.057 484.58 394.353 578" stroke="url(#paint4_linear_1_161)" stroke-width="12"/>
<path d="M631.353 222C603.591 277.617 616.011 432.759 471.353 604" stroke="url(#paint5_linear_1_161)" stroke-width="12"/>
<path d="M623.819 224C637.267 301.273 627.358 467.182 581.353 624" stroke="url(#paint6_linear_1_161)" stroke-width="12"/>
<path d="M642.353 236C649.666 323.843 663.478 485.412 707.353 636" stroke="url(#paint7_linear_1_161)" stroke-width="12"/>
<path d="M652.353 234C666.893 316.457 716.635 502.553 815.353 613" stroke="url(#paint8_linear_1_161)" stroke-width="12"/>
<path d="M660.353 243C674.145 322.128 795.371 511.598 901.353 590" stroke="url(#paint9_linear_1_161)" stroke-width="12"/>
<path d="M669.353 240C683.175 319.903 868.682 520.025 992.353 586" stroke="url(#paint10_linear_1_161)" stroke-width="12"/>
<path d="M682.353 239C696.168 318.699 935.387 530.742 1087.35 579" stroke="url(#paint11_linear_1_161)" stroke-width="12"/>
<path d="M682.353 209C701.213 306.297 980.966 506.012 1192.35 566" stroke="url(#paint12_linear_1_161)" stroke-width="12"/>
<path d="M700.353 206C714.71 309.917 1065.18 497.992 1292.35 558" stroke="url(#paint13_linear_1_161)" stroke-width="12"/>
<g clip-path="url(#clip0_1_161)">
<g clip-path="url(#paint14_diamond_1_161_clip_path)" data-figma-skip-parse="true"><g transform="matrix(0.0385 0.066684 -0.066684 0.0385 642.537 67.184)"><rect x="0" y="0" width="1012.99" height="1012.99" fill="url(#paint14_diamond_1_161)" opacity="1" shape-rendering="crispEdges"/><rect x="0" y="0" width="1012.99" height="1012.99" transform="scale(1 -1)" fill="url(#paint14_diamond_1_161)" opacity="1" shape-rendering="crispEdges"/><rect x="0" y="0" width="1012.99" height="1012.99" transform="scale(-1 1)" fill="url(#paint14_diamond_1_161)" opacity="1" shape-rendering="crispEdges"/><rect x="0" y="0" width="1012.99" height="1012.99" transform="scale(-1)" fill="url(#paint14_diamond_1_161)" opacity="1" shape-rendering="crispEdges"/></g></g><path d="M598.226 10.851C601.808 4.47 608.59 0.554861 615.907 0.64304L642.537 0.963956L669.167 0.643038C676.485 0.554859 683.266 4.46999 686.848 10.851L699.885 34.074L713.478 56.976C717.213 63.2688 717.213 71.0991 713.478 77.3919L699.885 100.294L686.848 123.517C683.266 129.898 676.485 133.813 669.167 133.725L642.537 133.404L615.907 133.725C608.59 133.813 601.808 129.898 598.226 123.517L585.189 100.294L571.596 77.3919C567.861 71.0991 567.861 63.2688 571.596 56.976L585.189 34.074L598.226 10.851Z" data-figma-gradient-fill="{&#34;type&#34;:&#34;GRADIENT_DIAMOND&#34;,&#34;stops&#34;:[{&#34;color&#34;:{&#34;r&#34;:0.89411765336990356,&#34;g&#34;:0.15294118225574493,&#34;b&#34;:0.17647059261798859,&#34;a&#34;:1.0},&#34;position&#34;:0.0},{&#34;color&#34;:{&#34;r&#34;:0.92156863212585449,&#34;g&#34;:0.51764708757400513,&#34;b&#34;:0.48627451062202454,&#34;a&#34;:1.0},&#34;position&#34;:1.0}],&#34;stopsVar&#34;:[{&#34;color&#34;:{&#34;r&#34;:0.89411765336990356,&#34;g&#34;:0.15294118225574493,&#34;b&#34;:0.17647059261798859,&#34;a&#34;:1.0},&#34;position&#34;:0.0},{&#34;color&#34;:{&#34;r&#34;:0.92156863212585449,&#34;g&#34;:0.51764708757400513,&#34;b&#34;:0.48627451062202454,&#34;a&#34;:1.0},&#34;position&#34;:1.0}],&#34;transform&#34;:{&#34;m00&#34;:77.0,&#34;m01&#34;:-133.36790466308594,&#34;m02&#34;:670.72106933593750,&#34;m10&#34;:133.36790466308594,&#34;m11&#34;:77.0,&#34;m12&#34;:-38.0},&#34;opacity&#34;:1.0,&#34;blendMode&#34;:&#34;NORMAL&#34;,&#34;visible&#34;:true}"/>
<path d="M615.895 73V63.608L613.943 64.104V62.904L616.487 61.8H617.527V73H615.895ZM622.919 73V64.968H624.359L624.471 66.088C624.727 65.6827 625.068 65.3627 625.495 65.128C625.922 64.8933 626.402 64.776 626.935 64.776C627.34 64.776 627.708 64.8293 628.039 64.936C628.38 65.0427 628.679 65.208 628.935 65.432C629.191 65.656 629.399 65.9387 629.559 66.28C629.836 65.8 630.215 65.432 630.695 65.176C631.186 64.9093 631.708 64.776 632.263 64.776C632.914 64.776 633.474 64.904 633.943 65.16C634.412 65.416 634.77 65.8053 635.015 66.328C635.26 66.8507 635.383 67.5013 635.383 68.28V73H633.799V68.44C633.799 67.6827 633.644 67.112 633.335 66.728C633.036 66.3333 632.594 66.136 632.007 66.136C631.612 66.136 631.26 66.2373 630.951 66.44C630.642 66.6427 630.396 66.9413 630.215 67.336C630.044 67.72 629.959 68.1893 629.959 68.744V73H628.359V68.44C628.359 67.6827 628.204 67.112 627.895 66.728C627.586 66.3333 627.143 66.136 626.567 66.136C626.183 66.136 625.836 66.2373 625.527 66.44C625.218 66.6427 624.972 66.9413 624.791 67.336C624.61 67.72 624.519 68.1893 624.519 68.744V73H622.919ZM637.067 73V64.968H638.667V73H637.067ZM637.867 63.432C637.568 63.432 637.317 63.336 637.115 63.144C636.923 62.952 636.827 62.7067 636.827 62.408C636.827 62.12 636.923 61.8853 637.115 61.704C637.317 61.512 637.568 61.416 637.867 61.416C638.176 61.416 638.432 61.512 638.635 61.704C638.837 61.8853 638.939 62.12 638.939 62.408C638.939 62.7067 638.837 62.952 638.635 63.144C638.432 63.336 638.176 63.432 637.867 63.432ZM640.475 73V64.968H641.915L642.011 66.344C642.267 65.864 642.629 65.4853 643.099 65.208C643.568 64.92 644.112 64.776 644.731 64.776C645.36 64.776 645.904 64.904 646.363 65.16C646.821 65.416 647.179 65.8053 647.435 66.328C647.691 66.84 647.819 67.4853 647.819 68.264V73H646.219V68.424C646.219 67.6773 646.053 67.112 645.723 66.728C645.392 66.3333 644.917 66.136 644.299 66.136C643.872 66.136 643.488 66.2373 643.147 66.44C642.816 66.6427 642.555 66.936 642.363 67.32C642.171 67.704 642.075 68.1787 642.075 68.744V73H640.475ZM652.329 73.192C651.7 73.192 651.156 73.064 650.697 72.808C650.239 72.552 649.881 72.168 649.625 71.656C649.38 71.1333 649.257 70.4827 649.257 69.704V64.968H650.857V69.544C650.857 70.3013 651.017 70.872 651.337 71.256C651.668 71.64 652.143 71.832 652.761 71.832C653.188 71.832 653.567 71.7307 653.897 71.528C654.239 71.3253 654.505 71.032 654.697 70.648C654.889 70.264 654.985 69.7947 654.985 69.24V64.968H656.585V73H655.161L655.049 71.624C654.804 72.104 654.441 72.488 653.961 72.776C653.492 73.0533 652.948 73.192 652.329 73.192ZM661.608 73C661.107 73 660.664 72.92 660.28 72.76C659.907 72.6 659.619 72.3333 659.416 71.96C659.224 71.5867 659.128 71.08 659.128 70.44V66.312H657.736V64.968H659.128L659.32 62.952H660.728V64.968H663V66.312H660.728V70.456C660.728 70.9147 660.819 71.2293 661 71.4C661.192 71.56 661.523 71.64 661.992 71.64H662.92V73H661.608ZM667.745 73.192C666.967 73.192 666.279 73.0213 665.681 72.68C665.084 72.328 664.615 71.8373 664.273 71.208C663.943 70.5787 663.777 69.8427 663.777 69C663.777 68.1573 663.943 67.4213 664.273 66.792C664.615 66.1627 665.084 65.672 665.681 65.32C666.279 64.9573 666.972 64.776 667.761 64.776C668.551 64.776 669.228 64.952 669.793 65.304C670.359 65.6453 670.796 66.1093 671.105 66.696C671.415 67.272 671.569 67.912 671.569 68.616C671.569 68.7227 671.569 68.84 671.569 68.968C671.569 69.0853 671.559 69.2133 671.537 69.352H664.945V68.232H669.969C669.937 67.5707 669.713 67.0533 669.297 66.68C668.881 66.296 668.364 66.104 667.745 66.104C667.319 66.104 666.919 66.2 666.545 66.392C666.183 66.584 665.889 66.872 665.665 67.256C665.452 67.6293 665.345 68.104 665.345 68.68V69.128C665.345 69.7253 665.452 70.2267 665.665 70.632C665.889 71.0373 666.183 71.3467 666.545 71.56C666.908 71.7627 667.303 71.864 667.729 71.864C668.241 71.864 668.663 71.752 668.993 71.528C669.335 71.2933 669.585 70.984 669.745 70.6H671.345C671.196 71.1013 670.956 71.5493 670.625 71.944C670.305 72.328 669.9 72.632 669.409 72.856C668.929 73.08 668.375 73.192 667.745 73.192Z" fill="#F0F0F0"/>
</g>
<g clip-path="url(#clip1_1_161)">
<g clip-path="url(#paint15_diamond_1_161_clip_path)" data-figma-skip-parse="true"><g transform="matrix(0.0385 0.066684 -0.066684 0.0385 642.537 209.184)"><rect x="0" y="0" width="1012.99" height="1012.99" fill="url(#paint15_diamond_1_161)" opacity="1" shape-rendering="crispEdges"/><rect x="0" y="0" width="1012.99" height="1012.99" transform="scale(1 -1)" fill="url(#paint15_diamond_1_161)" opacity="1" shape-rendering="crispEdges"/><rect x="0" y="0" width="1012.99" height="1012.99" transform="scale(-1 1)" fill="url(#paint15_diamond_1_161)" opacity="1" shape-rendering="crispEdges"/><rect x="0" y="0" width="1012.99" height="1012.99" transform="scale(-1)" fill="url(#paint15_diamond_1_161)" opacity="1" shape-rendering="crispEdges"/></g></g><path d="M598.226 152.851C601.808 146.47 608.59 142.555 615.907 142.643L642.537 142.964L669.167 142.643C676.485 142.555 683.266 146.47 686.848 152.851L699.885 176.074L713.478 198.976C717.213 205.269 717.213 213.099 713.478 219.392L699.885 242.294L686.848 265.517C683.266 271.898 676.485 275.813 669.167 275.725L642.537 275.404L615.907 275.725C608.59 275.813 601.808 271.898 598.226 265.517L585.189 242.294L571.596 219.392C567.861 213.099 567.861 205.269 571.596 198.976L585.189 176.074L598.226 152.851Z" data-figma-gradient-fill="{&#34;type&#34;:&#34;GRADIENT_DIAMOND&#34;,&#34;stops&#34;:[{&#34;color&#34;:{&#34;r&#34;:0.39607843756675720,&#34;g&#34;:0.15294118225574493,&#34;b&#34;:0.76470589637756348,&#34;a&#34;:1.0},&#34;position&#34;:0.0},{&#34;color&#34;:{&#34;r&#34;:0.72156864404678345,&#34;g&#34;:0.54901963472366333,&#34;b&#34;:0.89803922176361084,&#34;a&#34;:1.0},&#34;position&#34;:1.0}],&#34;stopsVar&#34;:[{&#34;color&#34;:{&#34;r&#34;:0.39607843756675720,&#34;g&#34;:0.15294118225574493,&#34;b&#34;:0.76470589637756348,&#34;a&#34;:1.0},&#34;position&#34;:0.0},{&#34;color&#34;:{&#34;r&#34;:0.72156864404678345,&#34;g&#34;:0.54901963472366333,&#34;b&#34;:0.89803922176361084,&#34;a&#34;:1.0},&#34;position&#34;:1.0}],&#34;transform&#34;:{&#34;m00&#34;:77.0,&#34;m01&#34;:-133.36790466308594,&#34;m02&#34;:670.72106933593750,&#34;m10&#34;:133.36790466308594,&#34;m11&#34;:77.0,&#34;m12&#34;:104.0},&#34;opacity&#34;:1.0,&#34;blendMode&#34;:&#34;NORMAL&#34;,&#34;visible&#34;:true}"/>
<path d="M627.105 215V205.608L625.153 206.104V204.904L627.697 203.8H628.737V215H627.105ZM637.713 215.192C636.945 215.192 636.267 215.011 635.681 214.648C635.094 214.275 634.635 213.773 634.305 213.144C633.985 212.504 633.825 211.779 633.825 210.968C633.825 210.157 633.985 209.437 634.305 208.808C634.635 208.179 635.094 207.683 635.681 207.32C636.278 206.957 636.966 206.776 637.745 206.776C638.374 206.776 638.929 206.904 639.409 207.16C639.889 207.405 640.262 207.752 640.529 208.2V203.48H642.129V215H640.689L640.529 213.752C640.358 213.997 640.145 214.232 639.889 214.456C639.633 214.669 639.323 214.845 638.961 214.984C638.609 215.123 638.193 215.192 637.713 215.192ZM637.985 213.8C638.475 213.8 638.913 213.683 639.297 213.448C639.681 213.213 639.979 212.888 640.193 212.472C640.406 212.045 640.513 211.549 640.513 210.984C640.513 210.419 640.406 209.928 640.193 209.512C639.979 209.085 639.681 208.755 639.297 208.52C638.913 208.285 638.47 208.168 637.969 208.168C637.489 208.168 637.057 208.285 636.673 208.52C636.289 208.755 635.99 209.085 635.777 209.512C635.563 209.928 635.457 210.419 635.457 210.984C635.457 211.539 635.563 212.029 635.777 212.456C635.99 212.883 636.289 213.213 636.673 213.448C637.057 213.683 637.494 213.8 637.985 213.8ZM646.493 215.192C645.831 215.192 645.282 215.08 644.845 214.856C644.407 214.632 644.082 214.333 643.869 213.96C643.655 213.587 643.549 213.176 643.549 212.728C643.549 212.205 643.682 211.757 643.949 211.384C644.226 211 644.621 210.707 645.133 210.504C645.655 210.301 646.274 210.2 646.989 210.2H649.085C649.085 209.731 649.015 209.341 648.877 209.032C648.738 208.723 648.53 208.493 648.253 208.344C647.986 208.184 647.645 208.104 647.229 208.104C646.749 208.104 646.333 208.221 645.981 208.456C645.639 208.691 645.431 209.032 645.357 209.48H643.741C643.805 208.904 643.997 208.419 644.317 208.024C644.647 207.619 645.069 207.309 645.581 207.096C646.093 206.883 646.642 206.776 647.229 206.776C647.975 206.776 648.605 206.909 649.117 207.176C649.639 207.443 650.029 207.821 650.285 208.312C650.551 208.792 650.685 209.363 650.685 210.024V215H649.293L649.165 213.64C649.047 213.853 648.909 214.056 648.749 214.248C648.589 214.44 648.397 214.605 648.173 214.744C647.959 214.883 647.709 214.989 647.421 215.064C647.143 215.149 646.834 215.192 646.493 215.192ZM646.797 213.896C647.138 213.896 647.447 213.827 647.725 213.688C648.002 213.549 648.237 213.363 648.429 213.128C648.631 212.883 648.781 212.611 648.877 212.312C648.983 212.013 649.042 211.699 649.053 211.368V211.336H647.149C646.69 211.336 646.317 211.395 646.029 211.512C645.751 211.619 645.549 211.768 645.421 211.96C645.293 212.152 645.229 212.376 645.229 212.632C645.229 212.888 645.287 213.112 645.405 213.304C645.533 213.485 645.714 213.629 645.949 213.736C646.183 213.843 646.466 213.896 646.797 213.896ZM652.925 218.52L654.893 214.104H654.429L651.245 206.936H652.973L655.501 212.792L658.045 206.936H659.725L654.605 218.52H652.925Z" fill="#F0F0F0"/>
</g>
<g clip-path="url(#clip2_1_161)">
<g clip-path="url(#paint16_diamond_1_161_clip_path)" data-figma-skip-parse="true"><g transform="matrix(0.0385 0.066684 -0.066684 0.0385 517.537 138.184)"><rect x="0" y="0" width="1012.99" height="1012.99" fill="url(#paint16_diamond_1_161)" opacity="1" shape-rendering="crispEdges"/><rect x="0" y="0" width="1012.99" height="1012.99" transform="scale(1 -1)" fill="url(#paint16_diamond_1_161)" opacity="1" shape-rendering="crispEdges"/><rect x="0" y="0" width="1012.99" height="1012.99" transform="scale(-1 1)" fill="url(#paint16_diamond_1_161)" opacity="1" shape-rendering="crispEdges"/><rect x="0" y="0" width="1012.99" height="1012.99" transform="scale(-1)" fill="url(#paint16_diamond_1_161)" opacity="1" shape-rendering="crispEdges"/></g></g><path d="M473.226 81.851C476.808 75.47 483.59 71.5549 490.907 71.643L517.537 71.964L544.167 71.643C551.485 71.5549 558.266 75.47 561.848 81.851L574.885 105.074L588.478 127.976C592.213 134.269 592.213 142.099 588.478 148.392L574.885 171.294L561.848 194.517C558.266 200.898 551.485 204.813 544.167 204.725L517.537 204.404L490.907 204.725C483.59 204.813 476.808 200.898 473.226 194.517L460.189 171.294L446.596 148.392C442.861 142.099 442.861 134.269 446.596 127.976L460.189 105.074L473.226 81.851Z" data-figma-gradient-fill="{&#34;type&#34;:&#34;GRADIENT_DIAMOND&#34;,&#34;stops&#34;:[{&#34;color&#34;:{&#34;r&#34;:0.035294119268655777,&#34;g&#34;:0.16470588743686676,&#34;b&#34;:0.67058825492858887,&#34;a&#34;:1.0},&#34;position&#34;:0.0},{&#34;color&#34;:{&#34;r&#34;:0.49019607901573181,&#34;g&#34;:0.58547061681747437,&#34;b&#34;:0.90588235855102539,&#34;a&#34;:1.0},&#34;position&#34;:1.0}],&#34;stopsVar&#34;:[{&#34;color&#34;:{&#34;r&#34;:0.035294119268655777,&#34;g&#34;:0.16470588743686676,&#34;b&#34;:0.67058825492858887,&#34;a&#34;:1.0},&#34;position&#34;:0.0},{&#34;color&#34;:{&#34;r&#34;:0.49019607901573181,&#34;g&#34;:0.58547061681747437,&#34;b&#34;:0.90588235855102539,&#34;a&#34;:1.0},&#34;position&#34;:1.0}],&#34;transform&#34;:{&#34;m00&#34;:77.0,&#34;m01&#34;:-133.36790466308594,&#34;m02&#34;:545.72106933593750,&#34;m10&#34;:133.36790466308594,&#34;m11&#34;:77.0,&#34;m12&#34;:33.0},&#34;opacity&#34;:1.0,&#34;blendMode&#34;:&#34;NORMAL&#34;,&#34;visible&#34;:true}"/>
<path d="M486.836 144.192C486.047 144.192 485.37 144.053 484.804 143.776C484.239 143.488 483.791 143.104 483.46 142.624C483.13 142.133 482.927 141.584 482.852 140.976H484.42C484.527 141.52 484.794 141.968 485.22 142.32C485.647 142.661 486.186 142.832 486.836 142.832C487.327 142.832 487.748 142.715 488.1 142.48C488.452 142.245 488.724 141.931 488.916 141.536C489.108 141.141 489.204 140.704 489.204 140.224C489.204 139.712 489.103 139.269 488.9 138.896C488.708 138.512 488.436 138.213 488.084 138C487.743 137.787 487.343 137.68 486.884 137.68C486.33 137.68 485.85 137.808 485.444 138.064C485.05 138.309 484.762 138.624 484.58 139.008H483.028L483.956 132.8H489.988V134.192H485.188L484.596 137.328C484.852 137.04 485.194 136.805 485.62 136.624C486.058 136.443 486.554 136.352 487.108 136.352C487.674 136.352 488.18 136.453 488.628 136.656C489.076 136.848 489.455 137.12 489.764 137.472C490.084 137.824 490.324 138.235 490.484 138.704C490.655 139.173 490.74 139.669 490.74 140.192C490.74 140.757 490.65 141.28 490.468 141.76C490.287 142.24 490.026 142.667 489.684 143.04C489.354 143.403 488.943 143.685 488.452 143.888C487.972 144.091 487.434 144.192 486.836 144.192ZM495.862 144V135.968H497.302L497.414 137.088C497.67 136.683 498.011 136.363 498.438 136.128C498.865 135.893 499.345 135.776 499.878 135.776C500.283 135.776 500.651 135.829 500.982 135.936C501.323 136.043 501.622 136.208 501.878 136.432C502.134 136.656 502.342 136.939 502.502 137.28C502.779 136.8 503.158 136.432 503.638 136.176C504.129 135.909 504.651 135.776 505.206 135.776C505.857 135.776 506.417 135.904 506.886 136.16C507.355 136.416 507.713 136.805 507.958 137.328C508.203 137.851 508.326 138.501 508.326 139.28V144H506.742V139.44C506.742 138.683 506.587 138.112 506.278 137.728C505.979 137.333 505.537 137.136 504.95 137.136C504.555 137.136 504.203 137.237 503.894 137.44C503.585 137.643 503.339 137.941 503.158 138.336C502.987 138.72 502.902 139.189 502.902 139.744V144H501.302V139.44C501.302 138.683 501.147 138.112 500.838 137.728C500.529 137.333 500.086 137.136 499.51 137.136C499.126 137.136 498.779 137.237 498.47 137.44C498.161 137.643 497.915 137.941 497.734 138.336C497.553 138.72 497.462 139.189 497.462 139.744V144H495.862ZM510.01 144V135.968H511.61V144H510.01ZM510.81 134.432C510.511 134.432 510.26 134.336 510.058 134.144C509.866 133.952 509.77 133.707 509.77 133.408C509.77 133.12 509.866 132.885 510.058 132.704C510.26 132.512 510.511 132.416 510.81 132.416C511.119 132.416 511.375 132.512 511.578 132.704C511.78 132.885 511.882 133.12 511.882 133.408C511.882 133.707 511.78 133.952 511.578 134.144C511.375 134.336 511.119 134.432 510.81 134.432ZM513.418 144V135.968H514.858L514.954 137.344C515.21 136.864 515.572 136.485 516.042 136.208C516.511 135.92 517.055 135.776 517.674 135.776C518.303 135.776 518.847 135.904 519.306 136.16C519.764 136.416 520.122 136.805 520.378 137.328C520.634 137.84 520.762 138.485 520.762 139.264V144H519.162V139.424C519.162 138.677 518.996 138.112 518.666 137.728C518.335 137.333 517.86 137.136 517.242 137.136C516.815 137.136 516.431 137.237 516.09 137.44C515.759 137.643 515.498 137.936 515.306 138.32C515.114 138.704 515.018 139.179 515.018 139.744V144H513.418ZM525.272 144.192C524.643 144.192 524.099 144.064 523.64 143.808C523.182 143.552 522.824 143.168 522.568 142.656C522.323 142.133 522.2 141.483 522.2 140.704V135.968H523.8V140.544C523.8 141.301 523.96 141.872 524.28 142.256C524.611 142.64 525.086 142.832 525.704 142.832C526.131 142.832 526.51 142.731 526.84 142.528C527.182 142.325 527.448 142.032 527.64 141.648C527.832 141.264 527.928 140.795 527.928 140.24V135.968H529.528V144H528.104L527.992 142.624C527.747 143.104 527.384 143.488 526.904 143.776C526.435 144.053 525.891 144.192 525.272 144.192ZM534.551 144C534.05 144 533.607 143.92 533.223 143.76C532.85 143.6 532.562 143.333 532.359 142.96C532.167 142.587 532.071 142.08 532.071 141.44V137.312H530.679V135.968H532.071L532.263 133.952H533.671V135.968H535.943V137.312H533.671V141.456C533.671 141.915 533.762 142.229 533.943 142.4C534.135 142.56 534.466 142.64 534.935 142.64H535.863V144H534.551ZM540.689 144.192C539.91 144.192 539.222 144.021 538.625 143.68C538.027 143.328 537.558 142.837 537.217 142.208C536.886 141.579 536.721 140.843 536.721 140C536.721 139.157 536.886 138.421 537.217 137.792C537.558 137.163 538.027 136.672 538.625 136.32C539.222 135.957 539.915 135.776 540.705 135.776C541.494 135.776 542.171 135.952 542.737 136.304C543.302 136.645 543.739 137.109 544.049 137.696C544.358 138.272 544.513 138.912 544.513 139.616C544.513 139.723 544.513 139.84 544.513 139.968C544.513 140.085 544.502 140.213 544.481 140.352H537.889V139.232H542.913C542.881 138.571 542.657 138.053 542.241 137.68C541.825 137.296 541.307 137.104 540.689 137.104C540.262 137.104 539.862 137.2 539.489 137.392C539.126 137.584 538.833 137.872 538.609 138.256C538.395 138.629 538.289 139.104 538.289 139.68V140.128C538.289 140.725 538.395 141.227 538.609 141.632C538.833 142.037 539.126 142.347 539.489 142.56C539.851 142.763 540.246 142.864 540.673 142.864C541.185 142.864 541.606 142.752 541.937 142.528C542.278 142.293 542.529 141.984 542.689 141.6H544.289C544.139 142.101 543.899 142.549 543.569 142.944C543.249 143.328 542.843 143.632 542.353 143.856C541.873 144.08 541.318 144.192 540.689 144.192ZM548.93 144.192C548.258 144.192 547.661 144.08 547.138 143.856C546.626 143.632 546.221 143.317 545.922 142.912C545.624 142.507 545.442 142.032 545.378 141.488H546.994C547.058 141.744 547.165 141.979 547.314 142.192C547.474 142.405 547.688 142.576 547.954 142.704C548.232 142.832 548.557 142.896 548.93 142.896C549.282 142.896 549.57 142.848 549.794 142.752C550.018 142.645 550.184 142.507 550.29 142.336C550.408 142.155 550.466 141.968 550.466 141.776C550.466 141.477 550.392 141.253 550.242 141.104C550.104 140.944 549.89 140.821 549.602 140.736C549.325 140.64 548.984 140.555 548.578 140.48C548.226 140.405 547.874 140.315 547.522 140.208C547.181 140.101 546.872 139.963 546.594 139.792C546.317 139.621 546.098 139.408 545.938 139.152C545.778 138.885 545.698 138.565 545.698 138.192C545.698 137.723 545.821 137.307 546.066 136.944C546.312 136.581 546.658 136.299 547.106 136.096C547.565 135.883 548.104 135.776 548.722 135.776C549.608 135.776 550.322 135.989 550.866 136.416C551.421 136.832 551.741 137.429 551.826 138.208H550.29C550.237 137.856 550.072 137.579 549.794 137.376C549.528 137.173 549.165 137.072 548.706 137.072C548.248 137.072 547.896 137.168 547.65 137.36C547.405 137.541 547.282 137.776 547.282 138.064C547.282 138.256 547.352 138.427 547.49 138.576C547.64 138.725 547.848 138.853 548.114 138.96C548.392 139.056 548.722 139.147 549.106 139.232C549.661 139.339 550.162 139.472 550.61 139.632C551.058 139.781 551.416 140.011 551.682 140.32C551.96 140.629 552.098 141.072 552.098 141.648C552.098 142.149 551.97 142.592 551.714 142.976C551.458 143.36 551.09 143.659 550.61 143.872C550.141 144.085 549.581 144.192 548.93 144.192Z" fill="#F0F0F0"/>
</g>
<g clip-path="url(#clip3_1_161)">
<g clip-path="url(#paint17_diamond_1_161_clip_path)" data-figma-skip-parse="true"><g transform="matrix(0.0385 0.066684 -0.066684 0.0385 767.537 138.184)"><rect x="0" y="0" width="1012.99" height="1012.99" fill="url(#paint17_diamond_1_161)" opacity="1" shape-rendering="crispEdges"/><rect x="0" y="0" width="1012.99" height="1012.99" transform="scale(1 -1)" fill="url(#paint17_diamond_1_161)" opacity="1" shape-rendering="crispEdges"/><rect x="0" y="0" width="1012.99" height="1012.99" transform="scale(-1 1)" fill="url(#paint17_diamond_1_161)" opacity="1" shape-rendering="crispEdges"/><rect x="0" y="0" width="1012.99" height="1012.99" transform="scale(-1)" fill="url(#paint17_diamond_1_161)" opacity="1" shape-rendering="crispEdges"/></g></g><path d="M723.226 81.851C726.808 75.47 733.59 71.5549 740.907 71.643L767.537 71.964L794.167 71.643C801.485 71.5549 808.266 75.47 811.848 81.851L824.885 105.074L838.478 127.976C842.213 134.269 842.213 142.099 838.478 148.392L824.885 171.294L811.848 194.517C808.266 200.898 801.485 204.813 794.167 204.725L767.537 204.404L740.907 204.725C733.59 204.813 726.808 200.898 723.226 194.517L710.189 171.294L696.596 148.392C692.861 142.099 692.861 134.269 696.596 127.976L710.189 105.074L723.226 81.851Z" data-figma-gradient-fill="{&#34;type&#34;:&#34;GRADIENT_DIAMOND&#34;,&#34;stops&#34;:[{&#34;color&#34;:{&#34;r&#34;:0.14607648551464081,&#34;g&#34;:0.49519231915473938,&#34;b&#34;:0.14284393191337585,&#34;a&#34;:1.0},&#34;position&#34;:0.0},{&#34;color&#34;:{&#34;r&#34;:0.58431375026702881,&#34;g&#34;:0.88235294818878174,&#34;b&#34;:0.54117649793624878,&#34;a&#34;:1.0},&#34;position&#34;:1.0}],&#34;stopsVar&#34;:[{&#34;color&#34;:{&#34;r&#34;:0.14607648551464081,&#34;g&#34;:0.49519231915473938,&#34;b&#34;:0.14284393191337585,&#34;a&#34;:1.0},&#34;position&#34;:0.0},{&#34;color&#34;:{&#34;r&#34;:0.58431375026702881,&#34;g&#34;:0.88235294818878174,&#34;b&#34;:0.54117649793624878,&#34;a&#34;:1.0},&#34;position&#34;:1.0}],&#34;transform&#34;:{&#34;m00&#34;:77.0,&#34;m01&#34;:-133.36790466308594,&#34;m02&#34;:795.72106933593750,&#34;m10&#34;:133.36790466308594,&#34;m11&#34;:77.0,&#34;m12&#34;:33.0},&#34;opacity&#34;:1.0,&#34;blendMode&#34;:&#34;NORMAL&#34;,&#34;visible&#34;:true}"/>
<path d="M749.087 144V134.608L747.135 135.104V133.904L749.679 132.8H750.719V144H749.087ZM756.111 144V132.48H757.711V137.28C757.978 136.811 758.346 136.443 758.815 136.176C759.295 135.909 759.823 135.776 760.399 135.776C761.039 135.776 761.588 135.904 762.047 136.16C762.506 136.416 762.858 136.805 763.103 137.328C763.348 137.851 763.471 138.501 763.471 139.28V144H761.887V139.456C761.887 138.688 761.727 138.112 761.407 137.728C761.087 137.333 760.612 137.136 759.983 137.136C759.556 137.136 759.167 137.243 758.815 137.456C758.474 137.659 758.202 137.952 757.999 138.336C757.807 138.72 757.711 139.195 757.711 139.76V144H756.111ZM768.717 144.192C767.96 144.192 767.277 144.021 766.669 143.68C766.072 143.328 765.597 142.837 765.245 142.208C764.904 141.568 764.733 140.827 764.733 139.984C764.733 139.141 764.909 138.405 765.261 137.776C765.613 137.136 766.093 136.645 766.701 136.304C767.309 135.952 767.986 135.776 768.733 135.776C769.501 135.776 770.184 135.952 770.781 136.304C771.389 136.645 771.864 137.131 772.205 137.76C772.557 138.389 772.733 139.131 772.733 139.984C772.733 140.827 772.557 141.568 772.205 142.208C771.853 142.837 771.373 143.328 770.765 143.68C770.168 144.021 769.485 144.192 768.717 144.192ZM768.717 142.816C769.154 142.816 769.549 142.715 769.901 142.512C770.264 142.299 770.552 141.979 770.765 141.552C770.989 141.125 771.101 140.603 771.101 139.984C771.101 139.355 770.994 138.832 770.781 138.416C770.568 137.989 770.28 137.675 769.917 137.472C769.565 137.259 769.176 137.152 768.749 137.152C768.333 137.152 767.938 137.259 767.565 137.472C767.202 137.675 766.909 137.989 766.685 138.416C766.472 138.832 766.365 139.355 766.365 139.984C766.365 140.603 766.472 141.125 766.685 141.552C766.909 141.979 767.197 142.299 767.549 142.512C767.912 142.715 768.301 142.816 768.717 142.816ZM777.079 144.192C776.45 144.192 775.906 144.064 775.447 143.808C774.989 143.552 774.631 143.168 774.375 142.656C774.13 142.133 774.007 141.483 774.007 140.704V135.968H775.607V140.544C775.607 141.301 775.767 141.872 776.087 142.256C776.418 142.64 776.893 142.832 777.511 142.832C777.938 142.832 778.317 142.731 778.647 142.528C778.989 142.325 779.255 142.032 779.447 141.648C779.639 141.264 779.735 140.795 779.735 140.24V135.968H781.335V144H779.911L779.799 142.624C779.554 143.104 779.191 143.488 778.711 143.776C778.242 144.053 777.698 144.192 777.079 144.192ZM783.046 144V135.968H784.486L784.63 137.488C784.811 137.125 785.041 136.821 785.318 136.576C785.606 136.32 785.942 136.123 786.326 135.984C786.721 135.845 787.163 135.776 787.654 135.776V137.456H787.126C786.785 137.456 786.465 137.499 786.166 137.584C785.867 137.669 785.601 137.808 785.366 138C785.142 138.192 784.966 138.453 784.838 138.784C784.71 139.115 784.646 139.525 784.646 140.016V144H783.046Z" fill="#F0F0F0"/>
</g>
<g clip-path="url(#clip4_1_161)">
<path d="M369.352 553.999C380.398 553.999 389.352 545.045 389.352 533.999C389.352 522.954 380.398 513.999 369.352 513.999C358.307 513.999 349.352 522.954 349.352 533.999C349.352 545.045 358.307 553.999 369.352 553.999Z" fill="#0D1E30"/>
<g filter="url(#filter0_d_1_161)">
<path d="M369.009 521.574C369.607 521.265 370.339 521.979 370.021 522.568C369.835 523.048 369.134 523.175 368.776 522.809C368.397 522.459 368.521 521.764 369.009 521.573V521.574ZM362.565 522.257C362.929 522.109 363.39 522.437 363.352 522.828C363.39 523.25 362.865 523.563 362.494 523.362C362.002 523.174 362.059 522.389 362.565 522.257V522.257ZM375.762 523.373C375.194 523.305 375.104 522.425 375.65 522.248C376.075 522.045 376.465 522.427 376.527 522.823C376.437 523.16 376.15 523.47 375.762 523.373V523.373ZM364.031 524.954C364.64 524.575 365.507 525.139 365.414 525.835C365.382 526.537 364.435 526.944 363.9 526.469C363.382 526.097 363.461 525.242 364.031 524.954ZM373.319 525.357C373.59 524.669 374.69 524.647 374.999 525.317C375.305 525.838 374.929 526.484 374.385 526.662C373.664 526.794 372.98 526.027 373.319 525.357ZM368.232 526.623C368.226 526.03 368.774 525.59 369.345 525.549C369.725 525.624 370.137 525.783 370.3 526.159C370.604 526.679 370.334 527.393 369.787 527.632C369.537 527.769 369.24 527.718 368.967 527.702C368.551 527.502 368.2 527.105 368.232 526.623ZM358.65 527.485C359.206 527.148 359.956 527.76 359.745 528.355C359.63 528.869 358.927 529.078 358.526 528.75C358.097 528.443 358.165 527.704 358.651 527.484L358.65 527.485ZM379.227 527.483C379.699 527.123 380.477 527.537 380.42 528.122C380.452 528.655 379.779 529.059 379.311 528.784C378.796 528.555 378.742 527.775 379.227 527.484V527.483ZM370.927 528.547C371.705 528.272 372.63 528.6 373.072 529.284C373.657 530.118 373.347 531.388 372.439 531.867C371.499 532.433 370.125 531.954 369.776 530.919C369.382 529.994 369.957 528.837 370.926 528.547H370.927ZM366.361 528.638C367.224 528.238 368.385 528.573 368.801 529.44C369.291 530.285 368.912 531.462 368.036 531.898C367.159 532.389 365.92 532.017 365.496 531.11C365.02 530.233 365.442 529.042 366.361 528.638V528.638ZM361.79 530.174C361.856 529.628 362.38 529.272 362.909 529.234C363.184 529.263 363.442 529.385 363.64 529.58C363.837 529.774 363.963 530.03 363.996 530.305C363.959 530.868 363.517 531.415 362.912 531.413C362.246 531.469 361.662 530.817 361.79 530.174V530.174ZM375.292 529.354C375.976 528.963 376.925 529.532 376.895 530.304C376.941 531.123 375.891 531.699 375.211 531.219C374.504 530.819 374.559 529.694 375.292 529.354ZM364.505 532.238C365.302 532.022 366.217 532.392 366.609 533.114C367.037 533.842 366.862 534.852 366.196 535.387C365.34 536.169 363.764 535.854 363.309 534.787C362.785 533.808 363.421 532.495 364.504 532.237L364.505 532.238ZM373.164 532.234C373.94 532.015 374.852 532.309 375.27 533.005C375.822 533.802 375.559 534.99 374.737 535.503C373.875 536.099 372.542 535.787 372.067 534.854C371.492 533.89 372.071 532.528 373.164 532.234V532.234ZM359.364 533.142C360.054 532.885 360.819 533.634 360.539 534.308C360.369 534.92 359.49 535.148 359.036 534.695C358.505 534.27 358.701 533.327 359.364 533.142V533.142ZM378.075 534.119C378.062 533.844 378.158 533.575 378.343 533.37C378.527 533.166 378.785 533.042 379.06 533.027C379.532 533.102 379.992 533.477 379.955 533.983C379.999 534.652 379.18 535.105 378.6 534.792C378.329 534.655 378.19 534.382 378.075 534.119ZM355.97 533.474C356.385 533.295 356.899 533.649 356.804 534.103C356.781 534.617 356.01 534.815 355.727 534.385C355.477 534.087 355.627 533.628 355.97 533.473V533.474ZM382.156 533.463C382.449 533.259 382.919 533.405 383.034 533.742C383.23 534.109 382.87 534.612 382.45 534.55C381.86 534.603 381.67 533.719 382.156 533.463ZM366.76 535.929C367.852 535.65 369.027 536.547 369.035 537.654C369.105 538.773 367.947 539.764 366.83 539.507C365.965 539.369 365.286 538.549 365.315 537.69C365.312 536.868 365.942 536.103 366.76 535.929V535.929ZM371.087 535.928C372.196 535.623 373.406 536.535 373.389 537.668C373.447 538.765 372.326 539.724 371.231 539.505C370.2 539.375 369.44 538.262 369.727 537.277C369.872 536.622 370.43 536.089 371.087 535.927V535.928ZM362.742 536.609C363.51 536.48 364.23 537.322 363.919 538.039C363.691 538.804 362.561 539.01 362.061 538.387C361.476 537.787 361.914 536.692 362.742 536.609V536.609ZM375.435 536.643C376.12 536.36 376.96 536.943 376.907 537.674C376.935 538.478 375.897 539.033 375.229 538.563C374.47 538.142 374.609 536.9 375.435 536.643V536.643ZM378.982 540.143C378.715 539.652 379.201 539 379.757 539.092C380.032 539.087 380.226 539.3 380.402 539.48C380.439 539.772 380.5 540.119 380.254 540.343C379.92 540.759 379.164 540.64 378.982 540.143V540.143ZM358.647 539.228C359.166 538.889 359.912 539.395 359.795 539.99C359.732 540.519 359.057 540.82 358.614 540.52C358.136 540.249 358.154 539.475 358.647 539.228V539.228ZM368.889 540.332C369.567 540.038 370.432 540.619 370.367 541.354C370.417 542.167 369.349 542.729 368.685 542.242C367.947 541.823 368.071 540.59 368.889 540.332V540.332ZM364.146 541.42C364.724 541.122 365.499 541.638 365.446 542.275C365.464 542.798 364.946 543.243 364.421 543.165C363.987 543.157 363.705 542.773 363.565 542.409C363.572 542.013 363.739 541.572 364.146 541.422V541.42ZM373.754 541.43C374.349 541.068 375.194 541.588 375.137 542.268C375.152 542.98 374.197 543.435 373.644 542.968C373.109 542.602 373.174 541.722 373.754 541.43ZM375.425 545.493C375.16 545.1 375.471 544.627 375.9 544.537C376.246 544.605 376.612 544.862 376.539 545.254C376.489 545.788 375.696 545.95 375.425 545.494V545.493ZM362.161 545.152C362.266 544.839 362.521 544.53 362.895 544.612C363.439 544.649 363.6 545.457 363.124 545.705C362.696 545.989 362.199 545.6 362.161 545.152ZM368.561 545.51C368.665 545.048 369.271 544.824 369.671 545.069C369.936 545.182 370.014 545.472 370.081 545.719C370.046 545.848 370.012 545.977 369.981 546.107C369.817 546.297 369.606 546.488 369.334 546.482C368.827 546.54 368.37 545.977 368.56 545.51H368.561Z" fill="black"/>
</g>
<path d="M369.009 521.574C369.607 521.265 370.339 521.979 370.021 522.568C369.835 523.048 369.134 523.175 368.776 522.809C368.397 522.459 368.521 521.764 369.009 521.573V521.574ZM362.565 522.257C362.929 522.109 363.39 522.437 363.352 522.828C363.39 523.25 362.865 523.563 362.494 523.362C362.002 523.174 362.059 522.389 362.565 522.257V522.257ZM375.762 523.373C375.194 523.305 375.104 522.425 375.65 522.248C376.075 522.045 376.465 522.427 376.527 522.823C376.437 523.16 376.15 523.47 375.762 523.373V523.373ZM364.031 524.954C364.64 524.575 365.507 525.139 365.414 525.835C365.382 526.537 364.435 526.944 363.9 526.469C363.382 526.097 363.461 525.242 364.031 524.954ZM373.319 525.357C373.59 524.669 374.69 524.647 374.999 525.317C375.305 525.838 374.929 526.484 374.385 526.662C373.664 526.794 372.98 526.027 373.319 525.357ZM368.232 526.623C368.226 526.03 368.774 525.59 369.345 525.549C369.725 525.624 370.137 525.783 370.3 526.159C370.604 526.679 370.334 527.393 369.787 527.632C369.537 527.769 369.24 527.718 368.967 527.702C368.551 527.502 368.2 527.105 368.232 526.623ZM358.65 527.485C359.206 527.148 359.956 527.76 359.745 528.355C359.63 528.869 358.927 529.078 358.526 528.75C358.097 528.443 358.165 527.704 358.651 527.484L358.65 527.485ZM379.227 527.483C379.699 527.123 380.477 527.537 380.42 528.122C380.452 528.655 379.779 529.059 379.311 528.784C378.796 528.555 378.742 527.775 379.227 527.484V527.483ZM370.927 528.547C371.705 528.272 372.63 528.6 373.072 529.284C373.657 530.118 373.347 531.388 372.439 531.867C371.499 532.433 370.125 531.954 369.776 530.919C369.382 529.994 369.957 528.837 370.926 528.547H370.927ZM366.361 528.638C367.224 528.238 368.385 528.573 368.801 529.44C369.291 530.285 368.912 531.462 368.036 531.898C367.159 532.389 365.92 532.017 365.496 531.11C365.02 530.233 365.442 529.042 366.361 528.638V528.638ZM361.79 530.174C361.856 529.628 362.38 529.272 362.909 529.234C363.184 529.263 363.442 529.385 363.64 529.58C363.837 529.774 363.963 530.03 363.996 530.305C363.959 530.868 363.517 531.415 362.912 531.413C362.246 531.469 361.662 530.817 361.79 530.174V530.174ZM375.292 529.354C375.976 528.963 376.925 529.532 376.895 530.304C376.941 531.123 375.891 531.699 375.211 531.219C374.504 530.819 374.559 529.694 375.292 529.354ZM364.505 532.238C365.302 532.022 366.217 532.392 366.609 533.114C367.037 533.842 366.862 534.852 366.196 535.387C365.34 536.169 363.764 535.854 363.309 534.787C362.785 533.808 363.421 532.495 364.504 532.237L364.505 532.238ZM373.164 532.234C373.94 532.015 374.852 532.309 375.27 533.005C375.822 533.802 375.559 534.99 374.737 535.503C373.875 536.099 372.542 535.787 372.067 534.854C371.492 533.89 372.071 532.528 373.164 532.234V532.234ZM359.364 533.142C360.054 532.885 360.819 533.634 360.539 534.308C360.369 534.92 359.49 535.148 359.036 534.695C358.505 534.27 358.701 533.327 359.364 533.142V533.142ZM378.075 534.119C378.062 533.844 378.158 533.575 378.343 533.37C378.527 533.166 378.785 533.042 379.06 533.027C379.532 533.102 379.992 533.477 379.955 533.983C379.999 534.652 379.18 535.105 378.6 534.792C378.329 534.655 378.19 534.382 378.075 534.119ZM355.97 533.474C356.385 533.295 356.899 533.649 356.804 534.103C356.781 534.617 356.01 534.815 355.727 534.385C355.477 534.087 355.627 533.628 355.97 533.473V533.474ZM382.156 533.463C382.449 533.259 382.919 533.405 383.034 533.742C383.23 534.109 382.87 534.612 382.45 534.55C381.86 534.603 381.67 533.719 382.156 533.463ZM366.76 535.929C367.852 535.65 369.027 536.547 369.035 537.654C369.105 538.773 367.947 539.764 366.83 539.507C365.965 539.369 365.286 538.549 365.315 537.69C365.312 536.868 365.942 536.103 366.76 535.929V535.929ZM371.087 535.928C372.196 535.623 373.406 536.535 373.389 537.668C373.447 538.765 372.326 539.724 371.231 539.505C370.2 539.375 369.44 538.262 369.727 537.277C369.872 536.622 370.43 536.089 371.087 535.927V535.928ZM362.742 536.609C363.51 536.48 364.23 537.322 363.919 538.039C363.691 538.804 362.561 539.01 362.061 538.387C361.476 537.787 361.914 536.692 362.742 536.609V536.609ZM375.435 536.643C376.12 536.36 376.96 536.943 376.907 537.674C376.935 538.478 375.897 539.033 375.229 538.563C374.47 538.142 374.609 536.9 375.435 536.643V536.643ZM378.982 540.143C378.715 539.652 379.201 539 379.757 539.092C380.032 539.087 380.226 539.3 380.402 539.48C380.439 539.772 380.5 540.119 380.254 540.343C379.92 540.759 379.164 540.64 378.982 540.143V540.143ZM358.647 539.228C359.166 538.889 359.912 539.395 359.795 539.99C359.732 540.519 359.057 540.82 358.614 540.52C358.136 540.249 358.154 539.475 358.647 539.228V539.228ZM368.889 540.332C369.567 540.038 370.432 540.619 370.367 541.354C370.417 542.167 369.349 542.729 368.685 542.242C367.947 541.823 368.071 540.59 368.889 540.332V540.332ZM364.146 541.42C364.724 541.122 365.499 541.638 365.446 542.275C365.464 542.798 364.946 543.243 364.421 543.165C363.987 543.157 363.705 542.773 363.565 542.409C363.572 542.013 363.739 541.572 364.146 541.422V541.42ZM373.754 541.43C374.349 541.068 375.194 541.588 375.137 542.268C375.152 542.98 374.197 543.435 373.644 542.968C373.109 542.602 373.174 541.722 373.754 541.43ZM375.425 545.493C375.16 545.1 375.471 544.627 375.9 544.537C376.246 544.605 376.612 544.862 376.539 545.254C376.489 545.788 375.696 545.95 375.425 545.494V545.493ZM362.161 545.152C362.266 544.839 362.521 544.53 362.895 544.612C363.439 544.649 363.6 545.457 363.124 545.705C362.696 545.989 362.199 545.6 362.161 545.152ZM368.561 545.51C368.665 545.048 369.271 544.824 369.671 545.069C369.936 545.182 370.014 545.472 370.081 545.719C370.046 545.848 370.012 545.977 369.981 546.107C369.817 546.297 369.606 546.488 369.334 546.482C368.827 546.54 368.37 545.977 368.56 545.51H368.561Z" fill="white"/>
</g>
<g clip-path="url(#clip5_1_161)">
<path d="M992.352 552.999C1003.4 552.999 1012.35 544.045 1012.35 532.999C1012.35 521.954 1003.4 512.999 992.352 512.999C981.307 512.999 972.352 521.954 972.352 532.999C972.352 544.045 981.307 552.999 992.352 552.999Z" fill="#23292F"/>
<path d="M1001.19 522.999H1004.8L997.284 530.446C995.97 531.741 994.198 532.467 992.353 532.467C990.507 532.467 988.736 531.741 987.422 530.446L979.897 522.999H983.515L989.228 528.653C990.06 529.474 991.182 529.935 992.35 529.935C993.519 529.935 994.641 529.474 995.473 528.653L1001.19 522.999ZM983.472 543.703H979.853L987.422 536.212C988.736 534.917 990.507 534.191 992.353 534.191C994.198 534.191 995.97 534.917 997.284 536.212L1004.85 543.702H1001.23L995.478 537.999C994.646 537.178 993.524 536.718 992.355 536.718C991.187 536.718 990.065 537.178 989.233 537.999L983.47 543.703H983.472Z" fill="white"/>
</g>
<g clip-path="url(#clip6_1_161)">
<path d="M389.353 490C400.399 490 409.353 481.046 409.353 470C409.353 458.954 400.399 450 389.353 450C378.308 450 369.353 458.954 369.353 470C369.353 481.046 378.308 490 389.353 490Z" fill="white"/>
<path d="M389.353 455.31L386.657 456.861L379.311 461.106L376.626 462.655V477.346L379.321 478.895L386.735 483.143L389.43 484.692L392.126 483.143L399.399 478.895L402.093 477.346V462.655L399.399 461.106L392.053 456.861L389.353 455.31ZM382.008 474.246V465.755L389.353 461.51L396.699 465.755V474.246L389.353 478.492L382.008 474.246Z" fill="#2A5ADA"/>
</g>
<g clip-path="url(#clip7_1_161)">
<path d="M349.352 428.001C360.398 428.001 369.352 419.047 369.352 408.001C369.352 396.956 360.398 388.001 349.352 388.001C338.307 388.001 329.352 396.956 329.352 408.001C329.352 419.047 338.307 428.001 349.352 428.001Z" fill="#EF0027"/>
<path d="M356.767 400.393L338.727 397.073L348.221 420.963L361.45 404.845L356.767 400.393ZM356.477 401.855L359.237 404.479L351.69 405.845L356.477 401.855V401.855ZM350.05 405.571L342.095 398.974L355.097 401.366L350.05 405.571V405.571ZM349.483 406.739L348.186 417.464L341.192 399.86L349.483 406.738V406.739ZM350.683 407.308L359.042 405.795L349.455 417.474L350.683 407.308Z" fill="white"/>
</g>
<g clip-path="url(#clip8_1_161)">
<path d="M214.353 493.999C209.069 494.015 204.006 496.127 200.277 499.872C196.549 503.617 194.459 508.689 194.466 513.974C194.474 519.259 196.579 524.324 200.318 528.059C204.058 531.793 209.127 533.89 214.412 533.89C219.696 533.89 224.765 531.793 228.505 528.059C232.245 524.324 234.349 519.259 234.357 513.974C234.365 508.689 232.275 503.617 228.546 499.872C224.817 496.127 219.755 494.015 214.47 493.999H214.353Z" fill="#345D9D"/>
<path d="M214.717 514.447L212.956 520.364H222.33C222.392 520.361 222.454 520.37 222.512 520.393C222.57 520.414 222.623 520.447 222.668 520.489C222.713 520.532 222.75 520.583 222.776 520.64C222.803 520.697 222.818 520.759 222.819 520.822V520.976L222.003 523.789C221.968 523.922 221.888 524.039 221.776 524.12C221.665 524.201 221.529 524.242 221.392 524.236H207.047L209.45 516.055L206.761 516.869L207.372 514.995L210.061 514.178L213.445 502.669C213.481 502.536 213.562 502.42 213.674 502.34C213.784 502.259 213.919 502.216 214.056 502.22H217.692C217.754 502.218 217.816 502.229 217.874 502.251C217.932 502.272 217.986 502.305 218.032 502.347C218.078 502.39 218.114 502.441 218.139 502.498C218.165 502.555 218.18 502.617 218.181 502.68V502.836L215.328 512.536L218.019 511.72L217.445 513.673L214.717 514.447Z" fill="white"/>
</g>
<g clip-path="url(#clip9_1_161)">
<path d="M1107.35 513.001C1118.4 513.001 1127.35 504.047 1127.35 493.001C1127.35 481.956 1118.4 473.001 1107.35 473.001C1096.31 473.001 1087.35 481.956 1087.35 493.001C1087.35 504.047 1096.31 513.001 1107.35 513.001Z" fill="#FF007A"/>
<path d="M1102.68 480.211C1102.32 480.156 1102.31 480.148 1102.47 480.123C1102.8 480.073 1103.56 480.142 1104.08 480.266C1105.3 480.557 1106.41 481.301 1107.6 482.622L1107.91 482.972L1108.36 482.901C1110.26 482.594 1112.2 482.838 1113.81 483.584C1114.26 483.789 1114.96 484.198 1115.05 484.304C1115.08 484.337 1115.13 484.553 1115.16 484.783C1115.28 485.579 1115.22 486.189 1114.98 486.646C1114.85 486.893 1114.84 486.971 1114.93 487.183C1114.97 487.271 1115.04 487.345 1115.12 487.397C1115.2 487.449 1115.3 487.477 1115.39 487.478C1115.8 487.478 1116.23 486.828 1116.43 485.924L1116.51 485.566L1116.67 485.744C1117.53 486.724 1118.21 488.061 1118.33 489.011L1118.36 489.259L1118.21 489.034C1117.96 488.647 1117.71 488.382 1117.39 488.168C1116.81 487.784 1116.19 487.654 1114.57 487.568C1113.1 487.491 1112.27 487.366 1111.45 487.097C1110.05 486.641 1109.34 486.032 1107.68 483.848C1106.94 482.878 1106.48 482.342 1106.03 481.911C1104.99 480.928 1103.98 480.413 1102.68 480.211V480.211Z" fill="white"/>
<path d="M1115.38 482.376C1115.42 481.726 1115.5 481.298 1115.68 480.906C1115.75 480.751 1115.82 480.624 1115.83 480.624C1115.82 480.712 1115.79 480.797 1115.76 480.879C1115.63 481.259 1115.61 481.779 1115.7 482.383C1115.81 483.15 1115.88 483.26 1116.69 484.089C1117.07 484.478 1117.51 484.968 1117.67 485.179L1117.96 485.561L1117.67 485.288C1117.31 484.954 1116.49 484.3 1116.31 484.208C1116.19 484.145 1116.17 484.146 1116.1 484.22C1116.03 484.29 1116.01 484.393 1116 484.881C1115.99 485.641 1115.89 486.131 1115.63 486.619C1115.5 486.881 1115.48 486.826 1115.6 486.528C1115.69 486.305 1115.7 486.208 1115.7 485.471C1115.7 483.991 1115.52 483.636 1114.49 483.026C1114.18 482.846 1113.86 482.681 1113.54 482.531C1113.38 482.467 1113.22 482.391 1113.07 482.304C1113.1 482.275 1114.1 482.568 1114.51 482.724C1115.11 482.955 1115.21 482.985 1115.28 482.956C1115.33 482.938 1115.36 482.795 1115.38 482.376V482.376ZM1103.37 484.908C1102.65 483.911 1102.2 482.383 1102.3 481.24L1102.33 480.886L1102.49 480.916C1102.8 480.973 1103.33 481.171 1103.58 481.324C1104.27 481.74 1104.57 482.289 1104.87 483.696C1104.96 484.109 1105.07 484.575 1105.13 484.734C1105.21 484.988 1105.54 485.581 1105.8 485.968C1105.99 486.245 1105.86 486.376 1105.44 486.339C1104.8 486.28 1103.93 485.68 1103.37 484.908ZM1114.5 492.326C1111.12 490.964 1109.93 489.781 1109.93 487.786C1109.93 487.493 1109.94 487.253 1109.95 487.253C1109.96 487.253 1110.09 487.349 1110.24 487.468C1110.93 488.018 1111.69 488.253 1113.82 488.563C1115.07 488.746 1115.78 488.894 1116.43 489.109C1118.49 489.794 1119.77 491.184 1120.07 493.076C1120.16 493.626 1120.11 494.658 1119.97 495.201C1119.85 495.631 1119.51 496.405 1119.42 496.435C1119.39 496.443 1119.37 496.346 1119.36 496.213C1119.32 495.503 1118.97 494.81 1118.36 494.291C1117.68 493.703 1116.75 493.233 1114.5 492.326H1114.5ZM1112.13 492.891C1112.09 492.65 1112.03 492.411 1111.96 492.176L1111.88 491.919L1112.04 492.099C1112.26 492.349 1112.43 492.666 1112.58 493.091C1112.7 493.415 1112.71 493.511 1112.71 494.038C1112.71 494.555 1112.69 494.663 1112.59 494.955C1112.44 495.384 1112.2 495.773 1111.87 496.09C1111.26 496.72 1110.46 497.068 1109.31 497.213C1109.11 497.238 1108.53 497.28 1108.02 497.306C1106.74 497.374 1105.89 497.511 1105.13 497.779C1105.06 497.81 1104.99 497.827 1104.91 497.831C1104.88 497.8 1105.4 497.491 1105.83 497.285C1106.43 496.994 1107.03 496.835 1108.38 496.611C1109.04 496.5 1109.73 496.366 1109.9 496.313C1111.55 495.808 1112.4 494.505 1112.13 492.891H1112.13Z" fill="white"/>
<path d="M1113.68 495.646C1113.23 494.679 1113.12 493.746 1113.37 492.876C1113.4 492.783 1113.44 492.707 1113.46 492.707C1113.55 492.738 1113.63 492.781 1113.7 492.834C1113.91 492.974 1114.32 493.21 1115.43 493.812C1116.81 494.566 1117.6 495.149 1118.13 495.814C1118.6 496.398 1118.89 497.063 1119.03 497.873C1119.11 498.332 1119.07 499.436 1118.95 499.898C1118.58 501.356 1117.71 502.501 1116.48 503.168C1116.37 503.235 1116.25 503.295 1116.12 503.347C1116.11 503.347 1116.17 503.181 1116.27 502.976C1116.68 502.111 1116.73 501.268 1116.42 500.331C1116.23 499.757 1115.83 499.056 1115.05 497.873C1114.13 496.498 1113.9 496.131 1113.68 495.646V495.646ZM1100.97 500.86C1102.22 499.8 1103.79 499.047 1105.21 498.816C1105.82 498.716 1106.84 498.756 1107.41 498.901C1108.32 499.133 1109.14 499.656 1109.56 500.277C1109.97 500.884 1110.15 501.415 1110.34 502.592C1110.41 503.057 1110.49 503.523 1110.51 503.63C1110.65 504.24 1110.92 504.728 1111.26 504.973C1111.79 505.362 1112.7 505.386 1113.6 505.036C1113.7 504.993 1113.8 504.962 1113.9 504.943C1113.93 504.976 1113.48 505.28 1113.16 505.44C1112.78 505.642 1112.36 505.744 1111.93 505.737C1111.11 505.737 1110.42 505.318 1109.85 504.462C1109.74 504.293 1109.48 503.789 1109.29 503.341C1108.68 501.966 1108.39 501.546 1107.69 501.087C1107.08 500.687 1106.29 500.616 1105.7 500.906C1104.92 501.287 1104.7 502.281 1105.26 502.91C1105.48 503.16 1105.89 503.376 1106.23 503.417C1106.38 503.437 1106.53 503.424 1106.67 503.381C1106.81 503.338 1106.94 503.264 1107.06 503.166C1107.17 503.067 1107.26 502.946 1107.32 502.811C1107.38 502.675 1107.41 502.528 1107.41 502.38C1107.41 501.965 1107.25 501.729 1106.85 501.548C1106.3 501.302 1105.71 501.589 1105.71 502.103C1105.72 502.322 1105.81 502.459 1106.03 502.559C1106.17 502.622 1106.17 502.628 1106.06 502.605C1105.56 502.5 1105.44 501.896 1105.84 501.495C1106.33 501.012 1107.33 501.224 1107.67 501.882C1107.82 502.158 1107.83 502.71 1107.71 503.042C1107.43 503.786 1106.6 504.176 1105.77 503.963C1105.2 503.818 1104.97 503.662 1104.29 502.957C1103.1 501.732 1102.64 501.494 1100.92 501.227L1100.59 501.176L1100.97 500.86H1100.97Z" fill="white"/>
<path fill-rule="evenodd" clip-rule="evenodd" d="M1095.1 477.189L1095.22 477.335C1099.85 483.01 1102.25 485.955 1102.4 486.165C1102.65 486.513 1102.56 486.824 1102.13 487.069C1101.89 487.205 1101.39 487.343 1101.15 487.343C1100.87 487.343 1100.56 487.209 1100.33 486.993C1100.17 486.839 1099.52 485.866 1098.01 483.533C1097.31 482.43 1096.59 481.333 1095.87 480.241C1095.81 480.184 1095.81 480.185 1097.89 483.911C1099.2 486.251 1099.64 487.078 1099.64 487.189C1099.64 487.414 1099.58 487.531 1099.3 487.841C1098.84 488.358 1098.64 488.938 1098.49 490.138C1098.32 491.484 1097.85 492.434 1096.54 494.06C1095.78 495.013 1095.66 495.188 1095.46 495.571C1095.22 496.054 1095.15 496.325 1095.13 496.935C1095.1 497.58 1095.15 497.998 1095.35 498.614C1095.52 499.154 1095.7 499.511 1096.16 500.224C1096.56 500.84 1096.79 501.298 1096.79 501.476C1096.79 501.619 1096.82 501.619 1097.43 501.48C1098.91 501.148 1100.1 500.561 1100.78 499.844C1101.19 499.4 1101.29 499.155 1101.29 498.546C1101.3 498.149 1101.28 498.065 1101.17 497.836C1101 497.464 1100.68 497.154 1099.98 496.674C1099.06 496.044 1098.66 495.536 1098.56 494.84C1098.47 494.269 1098.57 493.865 1099.08 492.798C1099.61 491.693 1099.74 491.223 1099.83 490.109C1099.88 489.389 1099.96 489.105 1100.17 488.878C1100.38 488.64 1100.58 488.559 1101.11 488.486C1101.98 488.368 1102.54 488.143 1102.99 487.724C1103.39 487.359 1103.55 487.008 1103.58 486.48L1103.6 486.08L1103.37 485.823C1103.06 485.453 1100.43 482.555 1095.49 477.128L1095.36 476.984L1095.1 477.19V477.189ZM1097.24 497.666C1097.33 497.512 1097.35 497.33 1097.31 497.158C1097.27 496.985 1097.17 496.834 1097.02 496.734C1096.74 496.544 1096.29 496.634 1096.29 496.881C1096.29 496.956 1096.33 497.011 1096.43 497.06C1096.59 497.141 1096.6 497.234 1096.47 497.42C1096.35 497.61 1096.36 497.778 1096.5 497.891C1096.74 498.074 1097.07 497.973 1097.24 497.666H1097.24ZM1104.14 488.696C1103.74 488.821 1103.34 489.255 1103.22 489.709C1103.14 489.985 1103.18 490.471 1103.3 490.621C1103.48 490.864 1103.65 490.928 1104.13 490.924C1105.06 490.918 1105.87 490.519 1105.96 490.02C1106.04 489.611 1105.68 489.045 1105.19 488.795C1104.94 488.668 1104.4 488.616 1104.14 488.696V488.696ZM1105.23 489.546C1105.38 489.343 1105.31 489.121 1105.07 488.974C1104.6 488.69 1103.9 488.924 1103.9 489.364C1103.9 489.581 1104.27 489.82 1104.6 489.82C1104.83 489.82 1105.13 489.686 1105.23 489.546Z" fill="white"/>
</g>
<g clip-path="url(#clip10_1_161)">
<path d="M600.352 569.999C611.398 569.999 620.352 561.045 620.352 549.999C620.352 538.954 611.398 529.999 600.352 529.999C589.307 529.999 580.352 538.954 580.352 549.999C580.352 561.045 589.307 569.999 600.352 569.999Z" fill="#E6007A"/>
<path d="M600.692 538.28C596.058 538.28 592.272 542.045 592.272 546.7C592.272 547.636 592.427 548.55 592.717 549.44C592.82 549.734 593.033 549.976 593.313 550.113C593.592 550.251 593.914 550.274 594.209 550.176C594.503 550.073 594.744 549.859 594.882 549.58C595.019 549.301 595.042 548.979 594.944 548.684C594.7 547.99 594.587 547.257 594.611 546.521C594.699 543.381 597.239 540.796 600.381 540.641C601.203 540.598 602.026 540.723 602.8 541.008C603.573 541.292 604.28 541.732 604.878 542.298C605.476 542.865 605.953 543.548 606.279 544.304C606.605 545.061 606.773 545.876 606.774 546.7C606.773 548.25 606.179 549.74 605.115 550.866C604.051 551.993 602.596 552.67 601.049 552.76C601.049 552.76 599.868 552.826 599.289 552.916C598.999 552.96 598.777 553.005 598.621 553.028C598.553 553.05 598.487 552.983 598.508 552.915L598.709 551.936L599.801 546.901C599.864 546.6 599.806 546.286 599.64 546.028C599.473 545.769 599.211 545.587 598.911 545.52C598.609 545.456 598.295 545.514 598.037 545.681C597.778 545.848 597.596 546.111 597.529 546.411C597.529 546.411 594.901 558.664 594.878 558.798C594.815 559.099 594.873 559.413 595.039 559.672C595.206 559.93 595.469 560.113 595.769 560.179C596.071 560.242 596.385 560.184 596.643 560.017C596.902 559.851 597.084 559.588 597.151 559.288C597.172 559.154 597.529 557.528 597.529 557.528C597.656 556.931 597.963 556.389 598.41 555.974C598.857 555.559 599.42 555.292 600.024 555.21C600.461 555.162 600.899 555.125 601.338 555.099C603.453 554.934 605.428 553.978 606.869 552.421C608.31 550.864 609.112 548.821 609.113 546.7C609.113 542.045 605.326 538.28 600.692 538.28V538.28ZM601.293 557.661C601.112 557.622 600.924 557.619 600.742 557.653C600.56 557.687 600.386 557.757 600.23 557.858C600.075 557.96 599.941 558.091 599.837 558.245C599.733 558.398 599.66 558.571 599.623 558.753C599.467 559.51 599.936 560.268 600.714 560.424C600.896 560.463 601.083 560.466 601.266 560.432C601.449 560.398 601.623 560.329 601.778 560.227C601.934 560.125 602.068 559.994 602.172 559.84C602.276 559.686 602.349 559.513 602.386 559.331C602.541 558.553 602.073 557.816 601.293 557.661V557.661Z" fill="white"/>
</g>
<g clip-path="url(#clip11_1_161)">
<path d="M841.352 488.999C852.398 488.999 861.352 480.045 861.352 468.999C861.352 457.954 852.398 448.999 841.352 448.999C830.307 448.999 821.352 457.954 821.352 468.999C821.352 480.045 830.307 488.999 841.352 488.999Z" fill="#C3A634"/>
<path fill-rule="evenodd" clip-rule="evenodd" d="M837.912 467.262H843.305V470.119H837.912V476.142H841.314C842.66 476.142 843.761 475.961 844.619 475.596C845.476 475.232 846.149 474.728 846.637 474.083C847.137 473.412 847.478 472.637 847.632 471.814C847.813 470.887 847.901 469.944 847.895 468.999C847.901 468.055 847.813 467.112 847.632 466.184C847.478 465.362 847.137 464.586 846.637 463.916C846.149 463.271 845.475 462.767 844.619 462.403C843.761 462.038 842.66 461.857 841.314 461.857H837.912V467.263V467.262ZM834.455 470.119H832.602V467.263H834.455V458.999H842.641C844.154 458.999 845.462 459.262 846.569 459.783C847.675 460.307 848.577 461.021 849.279 461.927C849.979 462.832 850.5 463.892 850.841 465.106C851.182 466.319 851.352 467.618 851.352 468.999C851.361 470.315 851.189 471.625 850.84 472.893C850.5 474.106 849.979 475.167 849.277 476.072C848.577 476.978 847.675 477.692 846.569 478.216C845.462 478.738 844.152 478.999 842.641 478.999H834.455V470.119V470.119Z" fill="white"/>
</g>
<g clip-path="url(#clip12_1_161)">
<path d="M546.352 509.999C557.398 509.999 566.352 501.045 566.352 489.999C566.352 478.954 557.398 469.999 546.352 469.999C535.307 469.999 526.352 478.954 526.352 489.999C526.352 501.045 535.307 509.999 546.352 509.999Z" fill="#F3BA2F"/>
<path d="M541.497 488.004L546.352 483.149L551.209 488.007L554.034 485.182L546.352 477.499L538.672 485.179L541.497 488.004ZM533.852 489.999L536.677 487.174L539.502 489.999L536.677 492.824L533.852 489.999ZM541.497 491.994L546.352 496.849L551.209 491.992L554.034 494.815L546.352 502.499L538.672 494.819L538.668 494.815L541.497 491.994ZM553.202 489.999L556.027 487.174L558.852 489.999L556.027 492.824L553.202 489.999ZM549.217 489.997H549.219V489.999L546.352 492.867L543.488 490.004L543.483 489.999L543.488 489.995L543.989 489.493L544.233 489.249L546.352 487.132L549.218 489.998L549.217 489.997Z" fill="white"/>
</g>
<g clip-path="url(#clip13_1_161)">
<path d="M465.352 536.999C476.398 536.999 485.352 528.045 485.352 516.999C485.352 505.954 476.398 496.999 465.352 496.999C454.307 496.999 445.352 505.954 445.352 516.999C445.352 528.045 454.307 536.999 465.352 536.999Z" fill="#627EEA"/>
<path d="M465.975 501.999V513.087L475.347 517.274L465.975 501.999Z" fill="white" fill-opacity="0.602"/>
<path d="M465.975 501.999L456.602 517.274L465.975 513.087V501.999Z" fill="white"/>
<path d="M465.975 524.459V531.993L475.353 519.019L465.975 524.459Z" fill="white" fill-opacity="0.602"/>
<path d="M465.975 531.993V524.458L456.602 519.019L465.975 531.993Z" fill="white"/>
<path d="M465.975 522.715L475.347 517.274L465.975 513.089V522.715Z" fill="white" fill-opacity="0.2"/>
<path d="M456.602 517.274L465.975 522.715V513.089L456.602 517.274Z" fill="white" fill-opacity="0.602"/>
</g>
<g clip-path="url(#clip14_1_161)">
<path d="M893.352 440.999C904.398 440.999 913.352 432.045 913.352 420.999C913.352 409.954 904.398 400.999 893.352 400.999C882.307 400.999 873.352 409.954 873.352 420.999C873.352 432.045 882.307 440.999 893.352 440.999Z" fill="#F7931A"/>
<path d="M902.339 418.524C902.731 415.904 900.735 414.495 898.007 413.555L898.892 410.005L896.732 409.468L895.87 412.924C895.302 412.782 894.72 412.649 894.139 412.517L895.007 409.038L892.847 408.499L891.962 412.048C891.492 411.94 891.03 411.835 890.582 411.723L890.585 411.712L887.605 410.968L887.03 413.275C887.03 413.275 888.634 413.643 888.6 413.665C889.475 413.884 889.632 414.463 889.606 414.923L888.599 418.967C888.659 418.982 888.736 419.004 888.824 419.038L888.595 418.982L887.182 424.647C887.075 424.912 886.804 425.31 886.191 425.159C886.214 425.19 884.621 424.768 884.621 424.768L883.549 427.24L886.361 427.942C886.884 428.073 887.396 428.21 887.9 428.339L887.006 431.929L889.165 432.467L890.05 428.917C890.64 429.075 891.212 429.223 891.772 429.363L890.89 432.898L893.05 433.435L893.944 429.853C897.629 430.55 900.399 430.269 901.565 426.937C902.505 424.254 901.519 422.705 899.58 421.697C900.992 421.372 902.055 420.443 902.339 418.524V418.524ZM897.401 425.447C896.735 428.13 892.216 426.679 890.751 426.315L891.939 421.559C893.404 421.925 898.1 422.649 897.401 425.447ZM898.07 418.485C897.461 420.927 893.701 419.685 892.482 419.382L893.557 415.069C894.776 415.373 898.705 415.939 898.07 418.485Z" fill="white"/>
</g>
<g clip-path="url(#clip15_1_161)">
<path d="M764.352 564.001C775.398 564.001 784.352 555.047 784.352 544.001C784.352 532.956 775.398 524.001 764.352 524.001C753.307 524.001 744.352 532.956 744.352 544.001C744.352 555.047 753.307 564.001 764.352 564.001Z" fill="#F4C257"/>
<path d="M754.845 550.925L753.393 550.081V537.358L755.733 535.998L757.185 536.84L754.845 538.201V542.624L760.763 546.064V547.7L754.845 544.261V550.924V550.925ZM775.289 548.394V550.081L764.342 556.444L762.002 555.083V553.395L764.342 554.755L768.148 552.544V545.666L769.555 544.848V551.726L775.289 548.394V548.394ZM778.08 543.719V543.431L772.43 546.716V545.079L778.08 541.795V535.735L764.339 527.751L757.47 531.744L757.223 531.888L762.873 535.171L761.465 535.989L755.815 532.705L750.602 535.735V551.703L757.47 555.695L757.719 555.839V549.271L759.127 550.089V556.658L764.342 559.686L778.08 551.703V543.719V543.719ZM770.962 540.689L765.274 543.996V550.874L764.342 551.415L763.638 551.006V544.394L757.719 540.954V539.871L758.423 539.461L764.113 542.768L770.032 539.33L770.963 539.871V540.69L770.962 540.689ZM762.889 531.839L764.34 530.996L775.288 537.359V540.078L773.838 540.92V538.2L770.029 535.989L764.112 539.428L762.703 538.61L768.622 535.17L762.889 531.839Z" fill="white"/>
</g>
<g clip-path="url(#clip16_1_161)">
<path d="M687.352 589.999C698.398 589.999 707.352 581.045 707.352 569.999C707.352 558.954 698.398 549.999 687.352 549.999C676.307 549.999 667.352 558.954 667.352 569.999C667.352 581.045 676.307 589.999 687.352 589.999Z" fill="#1E252C"/>
<path d="M685.128 569.486C684.628 569.486 684.149 569.288 683.796 568.934C683.443 568.581 683.244 568.102 683.244 567.602C683.244 567.103 683.443 566.624 683.796 566.27C684.149 565.917 684.628 565.718 685.128 565.718C685.627 565.718 686.107 565.917 686.46 566.27C686.813 566.624 687.012 567.103 687.012 567.602C687.012 568.102 686.813 568.581 686.46 568.934C686.107 569.288 685.627 569.486 685.128 569.486V569.486ZM689.75 569.486C689.251 569.486 688.772 569.288 688.418 568.934C688.065 568.581 687.867 568.102 687.867 567.602C687.867 567.103 688.065 566.624 688.418 566.27C688.772 565.917 689.251 565.718 689.75 565.718C690.25 565.718 690.729 565.917 691.082 566.27C691.436 566.624 691.634 567.103 691.634 567.602C691.634 568.102 691.436 568.581 691.082 568.934C690.729 569.288 690.25 569.486 689.75 569.486V569.486ZM685.127 574.11C684.627 574.11 684.148 573.911 683.795 573.558C683.441 573.205 683.243 572.726 683.243 572.226C683.243 571.726 683.441 571.247 683.795 570.894C684.148 570.541 684.627 570.342 685.127 570.342C685.626 570.342 686.105 570.541 686.459 570.894C686.812 571.247 687.01 571.726 687.01 572.226C687.01 572.726 686.812 573.205 686.459 573.558C686.105 573.911 685.626 574.11 685.127 574.11V574.11ZM689.75 574.11C689.251 574.11 688.772 573.911 688.418 573.558C688.065 573.205 687.867 572.726 687.867 572.226C687.867 571.726 688.065 571.247 688.418 570.894C688.772 570.541 689.251 570.342 689.75 570.342C690.25 570.342 690.729 570.541 691.082 570.894C691.436 571.247 691.634 571.726 691.634 572.226C691.634 572.726 691.436 573.205 691.082 573.558C690.729 573.911 690.25 574.11 689.75 574.11V574.11ZM694.373 568.972C694.193 568.972 694.015 568.937 693.849 568.868C693.682 568.799 693.531 568.698 693.404 568.571C693.277 568.444 693.176 568.293 693.107 568.127C693.038 567.96 693.003 567.782 693.003 567.602C693.003 567.422 693.038 567.244 693.107 567.078C693.176 566.912 693.277 566.761 693.404 566.634C693.531 566.506 693.682 566.405 693.849 566.337C694.015 566.268 694.193 566.232 694.373 566.232C694.736 566.232 695.085 566.377 695.342 566.634C695.599 566.89 695.743 567.239 695.743 567.602C695.743 567.966 695.599 568.314 695.342 568.571C695.085 568.828 694.736 568.972 694.373 568.972V568.972ZM694.373 573.596C694.01 573.596 693.661 573.452 693.404 573.195C693.147 572.938 693.003 572.589 693.003 572.226C693.003 571.863 693.147 571.514 693.404 571.257C693.661 571 694.01 570.856 694.373 570.856C694.736 570.856 695.085 571 695.342 571.257C695.599 571.514 695.743 571.863 695.743 572.226C695.743 572.589 695.599 572.938 695.342 573.195C695.085 573.452 694.736 573.596 694.373 573.596ZM680.333 568.972C679.97 568.972 679.621 568.828 679.364 568.571C679.107 568.314 678.963 567.966 678.963 567.602C678.963 567.239 679.107 566.89 679.364 566.634C679.621 566.377 679.97 566.232 680.333 566.232C680.696 566.232 681.045 566.377 681.302 566.634C681.559 566.89 681.703 567.239 681.703 567.602C681.703 567.966 681.559 568.314 681.302 568.571C681.045 568.828 680.696 568.972 680.333 568.972V568.972ZM680.333 573.596C679.97 573.596 679.621 573.452 679.364 573.195C679.107 572.938 678.963 572.589 678.963 572.226C678.963 571.863 679.107 571.514 679.364 571.257C679.621 571 679.97 570.856 680.333 570.856C680.696 570.856 681.045 571 681.302 571.257C681.559 571.514 681.703 571.863 681.703 572.226C681.703 572.589 681.559 572.938 681.302 573.195C681.045 573.452 680.696 573.596 680.333 573.596ZM685.127 578.218C684.943 578.224 684.761 578.193 684.59 578.126C684.419 578.06 684.263 577.96 684.131 577.832C684 577.705 683.895 577.552 683.824 577.383C683.752 577.214 683.715 577.033 683.715 576.849C683.715 576.666 683.752 576.484 683.824 576.315C683.895 576.146 684 575.994 684.131 575.866C684.263 575.738 684.419 575.638 684.59 575.572C684.761 575.506 684.943 575.474 685.127 575.48C685.483 575.491 685.82 575.639 686.068 575.895C686.317 576.151 686.455 576.493 686.455 576.849C686.455 577.205 686.317 577.547 686.068 577.803C685.82 578.059 685.483 578.208 685.127 578.218V578.218ZM689.75 578.218C689.567 578.224 689.384 578.193 689.214 578.126C689.043 578.06 688.887 577.96 688.755 577.832C688.623 577.705 688.519 577.552 688.447 577.383C688.376 577.214 688.339 577.033 688.339 576.849C688.339 576.666 688.376 576.484 688.447 576.315C688.519 576.146 688.623 575.994 688.755 575.866C688.887 575.738 689.043 575.638 689.214 575.572C689.384 575.506 689.567 575.474 689.75 575.48C690.106 575.491 690.444 575.639 690.692 575.895C690.94 576.151 691.079 576.493 691.079 576.849C691.079 577.205 690.94 577.547 690.692 577.803C690.444 578.059 690.106 578.208 689.75 578.218ZM685.127 564.35C684.943 564.355 684.761 564.324 684.59 564.258C684.419 564.191 684.263 564.091 684.131 563.964C684 563.836 683.895 563.683 683.824 563.514C683.752 563.345 683.715 563.164 683.715 562.98C683.715 562.797 683.752 562.615 683.824 562.447C683.895 562.278 684 562.125 684.131 561.997C684.263 561.869 684.419 561.769 684.59 561.703C684.761 561.637 684.943 561.605 685.127 561.611C685.483 561.622 685.82 561.771 686.068 562.026C686.317 562.282 686.455 562.624 686.455 562.98C686.455 563.337 686.317 563.679 686.068 563.934C685.82 564.19 685.483 564.339 685.127 564.35V564.35ZM689.75 564.35C689.567 564.355 689.384 564.324 689.214 564.258C689.043 564.191 688.887 564.091 688.755 563.964C688.623 563.836 688.519 563.683 688.447 563.514C688.376 563.345 688.339 563.164 688.339 562.98C688.339 562.797 688.376 562.615 688.447 562.447C688.519 562.278 688.623 562.125 688.755 561.997C688.887 561.869 689.043 561.769 689.214 561.703C689.384 561.637 689.567 561.605 689.75 561.611C690.106 561.622 690.444 561.771 690.692 562.026C690.94 562.282 691.079 562.624 691.079 562.98C691.079 563.337 690.94 563.679 690.692 563.934C690.444 564.19 690.106 564.339 689.75 564.35ZM685.127 559.212C685.011 559.217 684.897 559.198 684.789 559.157C684.681 559.116 684.583 559.053 684.5 558.974C684.417 558.894 684.351 558.798 684.306 558.692C684.261 558.586 684.238 558.472 684.238 558.357C684.238 558.241 684.261 558.127 684.306 558.021C684.351 557.915 684.417 557.82 684.5 557.74C684.583 557.66 684.681 557.597 684.789 557.556C684.897 557.515 685.011 557.497 685.127 557.501C685.354 557.501 685.571 557.591 685.732 557.752C685.893 557.912 685.983 558.13 685.983 558.357C685.983 558.584 685.893 558.802 685.732 558.963C685.571 559.123 685.354 559.213 685.127 559.213V559.212ZM689.75 559.212C689.635 559.217 689.52 559.198 689.413 559.157C689.305 559.116 689.207 559.053 689.124 558.974C689.041 558.894 688.975 558.798 688.93 558.692C688.885 558.586 688.861 558.472 688.861 558.357C688.861 558.241 688.885 558.127 688.93 558.021C688.975 557.915 689.041 557.82 689.124 557.74C689.207 557.66 689.305 557.597 689.413 557.556C689.52 557.515 689.635 557.497 689.75 557.501C689.977 557.501 690.195 557.591 690.356 557.752C690.516 557.912 690.607 558.13 690.607 558.357C690.607 558.584 690.516 558.802 690.356 558.963C690.195 559.123 689.977 559.213 689.75 559.213V559.212ZM698.997 568.46C698.77 568.46 698.552 568.37 698.391 568.209C698.231 568.048 698.14 567.831 698.14 567.603C698.14 567.376 698.231 567.159 698.391 566.998C698.552 566.837 698.77 566.747 698.997 566.747C699.224 566.747 699.441 566.837 699.602 566.998C699.763 567.159 699.853 567.376 699.853 567.603C699.853 567.831 699.763 568.048 699.602 568.209C699.441 568.37 699.224 568.46 698.997 568.46V568.46ZM698.997 573.083C698.77 573.083 698.552 572.993 698.391 572.833C698.231 572.672 698.14 572.454 698.14 572.227C698.14 572 698.231 571.782 698.391 571.622C698.552 571.461 698.77 571.371 698.997 571.371C699.224 571.371 699.441 571.461 699.602 571.622C699.763 571.782 699.853 572 699.853 572.227C699.853 572.454 699.763 572.672 699.602 572.833C699.441 572.993 699.224 573.083 698.997 573.083V573.083ZM675.709 568.46C675.482 568.46 675.264 568.37 675.104 568.209C674.943 568.048 674.853 567.831 674.853 567.603C674.853 567.376 674.943 567.159 675.104 566.998C675.264 566.837 675.482 566.747 675.709 566.747C675.936 566.747 676.154 566.837 676.315 566.998C676.475 567.159 676.565 567.376 676.565 567.603C676.565 567.831 676.475 568.048 676.315 568.209C676.154 568.37 675.936 568.46 675.709 568.46V568.46ZM675.709 573.083C675.482 573.083 675.264 572.993 675.104 572.833C674.943 572.672 674.853 572.454 674.853 572.227C674.853 572 674.943 571.782 675.104 571.622C675.264 571.461 675.482 571.371 675.709 571.371C675.936 571.371 676.154 571.461 676.315 571.622C676.475 571.782 676.565 572 676.565 572.227C676.565 572.454 676.475 572.672 676.315 572.833C676.154 572.993 675.936 573.083 675.709 573.083V573.083ZM685.127 582.5C684.9 582.5 684.682 582.41 684.521 582.249C684.361 582.088 684.27 581.871 684.27 581.643C684.27 581.416 684.361 581.199 684.521 581.038C684.682 580.877 684.9 580.787 685.127 580.787C685.354 580.787 685.571 580.877 685.732 581.038C685.893 581.199 685.983 581.416 685.983 581.643C685.983 581.871 685.893 582.088 685.732 582.249C685.571 582.41 685.354 582.5 685.127 582.5ZM689.75 582.5C689.523 582.5 689.305 582.41 689.145 582.249C688.984 582.088 688.894 581.871 688.894 581.643C688.894 581.416 688.984 581.199 689.145 581.038C689.305 580.877 689.523 580.787 689.75 580.787C689.977 580.787 690.195 580.877 690.356 581.038C690.516 581.199 690.607 581.416 690.607 581.643C690.607 581.871 690.516 582.088 690.356 582.249C690.195 582.41 689.977 582.5 689.75 582.5Z" fill="white"/>
</g>
<g clip-path="url(#clip17_1_161)">
<path d="M855.352 569.001C866.398 569.001 875.352 560.047 875.352 549.001C875.352 537.956 866.398 529.001 855.352 529.001C844.306 529.001 835.352 537.956 835.352 549.001C835.352 560.047 844.306 569.001 855.352 569.001Z" fill="#26A17B"/>
<path fill-rule="evenodd" clip-rule="evenodd" d="M857.754 550.73V550.728C857.616 550.738 856.908 550.78 855.326 550.78C854.064 550.78 853.175 550.743 852.863 550.728V550.731C848.003 550.518 844.375 549.671 844.375 548.659C844.375 547.648 848.003 546.801 852.863 546.584V549.889C853.18 549.911 854.09 549.965 855.348 549.965C856.856 549.965 857.613 549.903 857.754 549.89V546.586C862.604 546.803 866.223 547.649 866.223 548.659C866.223 549.671 862.604 550.515 857.754 550.73V550.73ZM857.754 546.243V543.285H864.521V538.775H846.095V543.285H852.863V546.241C847.363 546.494 843.226 547.584 843.226 548.889C843.226 550.194 847.363 551.283 852.863 551.536V561.014H857.754V551.534C863.245 551.281 867.371 550.193 867.371 548.889C867.371 547.585 863.245 546.496 857.754 546.243" fill="white"/>
</g>
<defs>
<clipPath id="paint14_diamond_1_161_clip_path"><path d="M598.226 10.851C601.808 4.47 608.59 0.554861 615.907 0.64304L642.537 0.963956L669.167 0.643038C676.485 0.554859 683.266 4.46999 686.848 10.851L699.885 34.074L713.478 56.976C717.213 63.2688 717.213 71.0991 713.478 77.3919L699.885 100.294L686.848 123.517C683.266 129.898 676.485 133.813 669.167 133.725L642.537 133.404L615.907 133.725C608.59 133.813 601.808 129.898 598.226 123.517L585.189 100.294L571.596 77.3919C567.861 71.0991 567.861 63.2688 571.596 56.976L585.189 34.074L598.226 10.851Z"/></clipPath><clipPath id="paint15_diamond_1_161_clip_path"><path d="M598.226 152.851C601.808 146.47 608.59 142.555 615.907 142.643L642.537 142.964L669.167 142.643C676.485 142.555 683.266 146.47 686.848 152.851L699.885 176.074L713.478 198.976C717.213 205.269 717.213 213.099 713.478 219.392L699.885 242.294L686.848 265.517C683.266 271.898 676.485 275.813 669.167 275.725L642.537 275.404L615.907 275.725C608.59 275.813 601.808 271.898 598.226 265.517L585.189 242.294L571.596 219.392C567.861 213.099 567.861 205.269 571.596 198.976L585.189 176.074L598.226 152.851Z"/></clipPath><clipPath id="paint16_diamond_1_161_clip_path"><path d="M473.226 81.851C476.808 75.47 483.59 71.5549 490.907 71.643L517.537 71.964L544.167 71.643C551.485 71.5549 558.266 75.47 561.848 81.851L574.885 105.074L588.478 127.976C592.213 134.269 592.213 142.099 588.478 148.392L574.885 171.294L561.848 194.517C558.266 200.898 551.485 204.813 544.167 204.725L517.537 204.404L490.907 204.725C483.59 204.813 476.808 200.898 473.226 194.517L460.189 171.294L446.596 148.392C442.861 142.099 442.861 134.269 446.596 127.976L460.189 105.074L473.226 81.851Z"/></clipPath><clipPath id="paint17_diamond_1_161_clip_path"><path d="M723.226 81.851C726.808 75.47 733.59 71.5549 740.907 71.643L767.537 71.964L794.167 71.643C801.485 71.5549 808.266 75.47 811.848 81.851L824.885 105.074L838.478 127.976C842.213 134.269 842.213 142.099 838.478 148.392L824.885 171.294L811.848 194.517C808.266 200.898 801.485 204.813 794.167 204.725L767.537 204.404L740.907 204.725C733.59 204.813 726.808 200.898 723.226 194.517L710.189 171.294L696.596 148.392C692.861 142.099 692.861 134.269 696.596 127.976L710.189 105.074L723.226 81.851Z"/></clipPath><filter id="filter0_d_1_161" x="355.421" y="521.409" width="27.8494" height="25.3498" filterUnits="userSpaceOnUse" color-interpolation-filters="sRGB">
<feFlood flood-opacity="0" result="BackgroundImageFix"/>
<feColorMatrix in="SourceAlpha" type="matrix" values="0 0 0 0 0 0 0 0 0 0 0 0 0 0 0 0 0 0 127 0" result="hardAlpha"/>
<feOffset dy="0.0909091"/>
<feGaussianBlur stdDeviation="0.0909091"/>
<feColorMatrix type="matrix" values="0 0 0 0 0 0 0 0 0 0 0 0 0 0 0 0 0 0 0.204257 0"/>
<feBlend mode="normal" in2="BackgroundImageFix" result="effect1_dropShadow_1_161"/>
<feBlend mode="normal" in="SourceGraphic" in2="effect1_dropShadow_1_161" result="shape"/>
</filter>
<linearGradient id="paint0_linear_1_161" x1="589.226" y1="228.026" x2="62.5934" y2="629.863" gradientUnits="userSpaceOnUse">
<stop stop-color="#0D0812"/>
<stop offset="0.495192" stop-color="#E44E66"/>
<stop offset="0.9375" stop-color="#010101"/>
</linearGradient>
<linearGradient id="paint1_linear_1_161" x1="588.476" y1="261.113" x2="136.092" y2="602.852" gradientUnits="userSpaceOnUse">
<stop stop-color="#12122A"/>
<stop offset="0.495192" stop-color="#5478B2"/>
<stop offset="1" stop-color="#010101"/>
</linearGradient>
<linearGradient id="paint2_linear_1_161" x1="668.678" y1="261.566" x2="230.067" y2="564.413" gradientUnits="userSpaceOnUse">
<stop stop-color="#13132B"/>
<stop offset="0.495192" stop-color="#5275D2"/>
<stop offset="1" stop-color="#010101"/>
</linearGradient>
<linearGradient id="paint3_linear_1_161" x1="608.353" y1="225" x2="278.249" y2="585.071" gradientUnits="userSpaceOnUse">
<stop stop-color="#0D1E30"/>
<stop offset="0.495192" stop-color="#0D1E30"/>
<stop offset="1" stop-color="#010101"/>
</linearGradient>
<linearGradient id="paint4_linear_1_161" x1="616.353" y1="236.5" x2="394.537" y2="583.617" gradientUnits="userSpaceOnUse">
<stop stop-color="#12122A"/>
<stop offset="0.495192" stop-color="#627EEA"/>
<stop offset="0.962119" stop-color="#010101"/>
</linearGradient>
<linearGradient id="paint5_linear_1_161" x1="616.853" y1="245.5" x2="470.805" y2="603.777" gradientUnits="userSpaceOnUse">
<stop stop-color="#3B3B0A"/>
<stop offset="0.495192" stop-color="#F3BA2F"/>
<stop offset="1" stop-color="#010101"/>
</linearGradient>
<linearGradient id="paint6_linear_1_161" x1="629.353" y1="264.712" x2="562.191" y2="632.717" gradientUnits="userSpaceOnUse">
<stop stop-color="#4C2F3B"/>
<stop offset="0.480842" stop-color="#BC3E81"/>
<stop offset="0.965095" stop-color="#010101"/>
</linearGradient>
<linearGradient id="paint7_linear_1_161" x1="647.957" y1="271.389" x2="683.51" y2="660.164" gradientUnits="userSpaceOnUse">
<stop stop-color="#1E252C"/>
<stop offset="0.495092" stop-color="#E9B5CB"/>
<stop offset="0.943278" stop-color="#010101"/>
</linearGradient>
<linearGradient id="paint8_linear_1_161" x1="658.137" y1="268.079" x2="793.205" y2="628.024" gradientUnits="userSpaceOnUse">
<stop stop-color="#322710"/>
<stop offset="0.495192" stop-color="#F4C257"/>
<stop offset="0.976807" stop-color="#010101"/>
</linearGradient>
<linearGradient id="paint9_linear_1_161" x1="660.353" y1="251" x2="886.48" y2="599.647" gradientUnits="userSpaceOnUse">
<stop stop-color="#061B15"/>
<stop offset="0.495192" stop-color="#26A17B"/>
<stop offset="1" stop-color="#010101"/>
</linearGradient>
<linearGradient id="paint10_linear_1_161" x1="658.853" y1="240" x2="974.131" y2="606.668" gradientUnits="userSpaceOnUse">
<stop stop-color="#010101"/>
<stop offset="0.495192" stop-color="#C3A634"/>
<stop offset="1" stop-color="#010101"/>
</linearGradient>
<linearGradient id="paint11_linear_1_161" x1="671.853" y1="225.5" x2="1073.54" y2="598.199" gradientUnits="userSpaceOnUse">
<stop stop-color="#23292F"/>
<stop offset="0.519231" stop-color="#E9B5CB"/>
<stop offset="1" stop-color="#010101"/>
</linearGradient>
<linearGradient id="paint12_linear_1_161" x1="682.353" y1="227.5" x2="1200.1" y2="553.706" gradientUnits="userSpaceOnUse">
<stop stop-color="#010101"/>
<stop offset="0.495192" stop-color="#C98635"/>
<stop offset="1" stop-color="#010101"/>
</linearGradient>
<linearGradient id="paint13_linear_1_161" x1="707.954" y1="220.636" x2="1216.85" y2="649.354" gradientUnits="userSpaceOnUse">
<stop stop-color="#311738"/>
<stop offset="0.49129" stop-color="#981755"/>
<stop offset="0.965556" stop-color="#010101"/>
</linearGradient>
<linearGradient id="paint14_diamond_1_161" x1="0" y1="0" x2="500" y2="500" gradientUnits="userSpaceOnUse">
<stop stop-color="#E4272D"/>
<stop offset="1" stop-color="#EB847C"/>
</linearGradient>
<linearGradient id="paint15_diamond_1_161" x1="0" y1="0" x2="500" y2="500" gradientUnits="userSpaceOnUse">
<stop stop-color="#6527C3"/>
<stop offset="1" stop-color="#B88CE5"/>
</linearGradient>
<linearGradient id="paint16_diamond_1_161" x1="0" y1="0" x2="500" y2="500" gradientUnits="userSpaceOnUse">
<stop stop-color="#092AAB"/>
<stop offset="1" stop-color="#7D95E7"/>
</linearGradient>
<linearGradient id="paint17_diamond_1_161" x1="0" y1="0" x2="500" y2="500" gradientUnits="userSpaceOnUse">
<stop stop-color="#257E24"/>
<stop offset="1" stop-color="#95E18A"/>
</linearGradient>
<clipPath id="clip0_1_161">
<rect width="149" height="135" fill="white" transform="translate(568.353)"/>
</clipPath>
<clipPath id="clip1_1_161">
<rect width="149" height="135" fill="white" transform="translate(568.353 142)"/>
</clipPath>
<clipPath id="clip2_1_161">
<rect width="149" height="135" fill="white" transform="translate(443.353 71)"/>
</clipPath>
<clipPath id="clip3_1_161">
<rect width="149" height="135" fill="white" transform="translate(693.353 71)"/>
</clipPath>
<clipPath id="clip4_1_161">
<rect width="40" height="40" fill="white" transform="translate(349.353 514)"/>
</clipPath>
<clipPath id="clip5_1_161">
<rect width="40" height="40" fill="white" transform="translate(972.353 513)"/>
</clipPath>
<clipPath id="clip6_1_161">
<rect width="40" height="40" fill="white" transform="translate(369.353 450)"/>
</clipPath>
<clipPath id="clip7_1_161">
<rect width="40" height="40" fill="white" transform="translate(329.353 388)"/>
</clipPath>
<clipPath id="clip8_1_161">
<rect width="40" height="40" fill="white" transform="translate(194.353 494)"/>
</clipPath>
<clipPath id="clip9_1_161">
<rect width="40" height="40" fill="white" transform="translate(1087.35 473)"/>
</clipPath>
<clipPath id="clip10_1_161">
<rect width="40" height="40" fill="white" transform="translate(580.353 530)"/>
</clipPath>
<clipPath id="clip11_1_161">
<rect width="40" height="40" fill="white" transform="translate(821.353 449)"/>
</clipPath>
<clipPath id="clip12_1_161">
<rect width="40" height="40" fill="white" transform="translate(526.353 470)"/>
</clipPath>
<clipPath id="clip13_1_161">
<rect width="40" height="40" fill="white" transform="translate(445.353 497)"/>
</clipPath>
<clipPath id="clip14_1_161">
<rect width="40" height="40" fill="white" transform="translate(873.353 401)"/>
</clipPath>
<clipPath id="clip15_1_161">
<rect width="40" height="40" fill="white" transform="translate(744.353 524)"/>
</clipPath>
<clipPath id="clip16_1_161">
<rect width="40" height="40" fill="white" transform="translate(667.353 550)"/>
</clipPath>
<clipPath id="clip17_1_161">
<rect width="40" height="40" fill="white" transform="translate(835.353 529)"/>
</clipPath>
</defs>
</svg>
