<svg width="60" height="60" viewBox="0 0 60 60" fill="none" xmlns="http://www.w3.org/2000/svg">
<path d="M47.5554 7H11.7776C8.94095 7 6.6665 9.27444 6.6665 12.1111V47.8889C6.6665 49.2444 7.20499 50.5445 8.16351 51.503C9.12203 52.4615 10.4221 53 11.7776 53H47.5554C50.3921 53 52.6665 50.7256 52.6665 47.8889V12.1111C52.6665 10.7556 52.128 9.45553 51.1695 8.49701C50.211 7.53849 48.9109 7 47.5554 7ZM21.5654 17.35C24.0698 17.35 26.0887 19.3689 26.0887 21.8989C26.0887 24.4033 24.0698 26.4222 21.5654 26.4222C19.0354 26.4222 17.0165 24.4033 17.0165 21.8989C17.0165 19.3689 19.0354 17.35 21.5654 17.35ZM37.8954 42.7778C35.3909 42.7778 33.3721 40.7333 33.3721 38.2289C33.3721 35.7244 35.3909 33.7056 37.8954 33.7056C40.3998 33.7056 42.4443 35.7244 42.4443 38.2289C42.4443 40.7333 40.3998 42.7778 37.8954 42.7778ZM20.7221 42.8544L16.8887 39.0211L38.6876 17.2222L42.521 21.0556L20.7221 42.8544Z" fill="#F0F0F0"/>
</svg>
