<svg width="1474" height="1520" viewBox="0 0 1474 1520" fill="none" xmlns="http://www.w3.org/2000/svg">
<path d="M18.4661 313.064L18.0225 313.737L18.3506 314.473L17.6775 314.03L16.9411 314.358L17.3847 313.685L17.0566 312.948L17.7297 313.392L18.4661 313.064Z" fill="white"/>
<path d="M209.876 370.473L209.432 371.147L209.76 371.883L209.087 371.439L208.351 371.767L208.794 371.094L208.466 370.358L209.139 370.801L209.876 370.473Z" fill="white"/>
<path d="M92.8758 436.473L92.4322 437.147L92.7603 437.883L92.0872 437.439L91.3508 437.767L91.7944 437.094L91.4663 436.358L92.1394 436.801L92.8758 436.473Z" fill="white"/>
<path d="M110.876 331.473L110.432 332.147L110.76 332.883L110.087 332.439L109.351 332.767L109.794 332.094L109.466 331.358L110.139 331.801L110.876 331.473Z" fill="white"/>
<path d="M55.8758 356.473L55.4322 357.147L55.7603 357.883L55.0872 357.439L54.3508 357.767L54.7944 357.094L54.4663 356.358L55.1394 356.801L55.8758 356.473Z" fill="white"/>
<path d="M403.876 419.473L403.432 420.147L403.76 420.883L403.087 420.439L402.351 420.767L402.794 420.094L402.466 419.358L403.139 419.801L403.876 419.473Z" fill="white"/>
<path d="M228.876 315.473L228.432 316.147L228.76 316.883L228.087 316.439L227.351 316.767L227.794 316.094L227.466 315.358L228.139 315.801L228.876 315.473Z" fill="white"/>
<path d="M652.876 373.473L652.432 374.147L652.76 374.883L652.087 374.439L651.351 374.767L651.794 374.094L651.466 373.358L652.139 373.801L652.876 373.473Z" fill="white"/>
<path d="M420.876 537.473L420.432 538.147L420.76 538.883L420.087 538.439L419.351 538.767L419.794 538.094L419.466 537.358L420.139 537.801L420.876 537.473Z" fill="white"/>
<path d="M227.876 458.473L227.432 459.147L227.76 459.883L227.087 459.439L226.351 459.767L226.794 459.094L226.466 458.358L227.139 458.801L227.876 458.473Z" fill="white"/>
<path d="M219.876 613.473L219.432 614.147L219.76 614.883L219.087 614.439L218.351 614.767L218.794 614.094L218.466 613.358L219.139 613.801L219.876 613.473Z" fill="white"/>
<path d="M817.876 599.473L817.432 600.147L817.76 600.883L817.087 600.439L816.351 600.767L816.794 600.094L816.466 599.358L817.139 599.801L817.876 599.473Z" fill="white"/>
<path d="M1010.88 402.473L1010.43 403.147L1010.76 403.883L1010.09 403.439L1009.35 403.767L1009.79 403.094L1009.47 402.358L1010.14 402.801L1010.88 402.473Z" fill="white"/>
<path d="M1285.88 578.473L1285.43 579.147L1285.76 579.883L1285.09 579.439L1284.35 579.767L1284.79 579.094L1284.47 578.358L1285.14 578.801L1285.88 578.473Z" fill="white"/>
<path d="M1159.88 892.473L1159.43 893.147L1159.76 893.883L1159.09 893.439L1158.35 893.767L1158.79 893.094L1158.47 892.358L1159.14 892.801L1159.88 892.473Z" fill="white"/>
<path d="M1288.88 1092.47L1288.43 1093.15L1288.76 1093.88L1288.09 1093.44L1287.35 1093.77L1287.79 1093.09L1287.47 1092.36L1288.14 1092.8L1288.88 1092.47Z" fill="white"/>
<path d="M979.876 1127.47L979.432 1128.15L979.76 1128.88L979.087 1128.44L978.351 1128.77L978.794 1128.09L978.466 1127.36L979.139 1127.8L979.876 1127.47Z" fill="white"/>
<path d="M623.876 1089.47L623.432 1090.15L623.76 1090.88L623.087 1090.44L622.351 1090.77L622.794 1090.09L622.466 1089.36L623.139 1089.8L623.876 1089.47Z" fill="white"/>
<path d="M799.876 710.473L799.432 711.147L799.76 711.883L799.087 711.439L798.351 711.767L798.794 711.094L798.466 710.358L799.139 710.801L799.876 710.473Z" fill="white"/>
<path d="M527.876 631.473L527.432 632.147L527.76 632.883L527.087 632.439L526.351 632.767L526.794 632.094L526.466 631.358L527.139 631.801L527.876 631.473Z" fill="white"/>
<path d="M318.876 1009.47L318.432 1010.15L318.76 1010.88L318.087 1010.44L317.351 1010.77L317.794 1010.09L317.466 1009.36L318.139 1009.8L318.876 1009.47Z" fill="white"/>
<path d="M75.8758 895.473L75.4322 896.147L75.7603 896.883L75.0872 896.439L74.3508 896.767L74.7944 896.094L74.4663 895.358L75.1394 895.801L75.8758 895.473Z" fill="white"/>
<path d="M78.8758 548.473L78.4322 549.147L78.7603 549.883L78.0872 549.439L77.3508 549.767L77.7944 549.094L77.4663 548.358L78.1394 548.801L78.8758 548.473Z" fill="white"/>
<path d="M400.876 581.473L400.432 582.147L400.76 582.883L400.087 582.439L399.351 582.767L399.794 582.094L399.466 581.358L400.139 581.801L400.876 581.473Z" fill="white"/>
<path d="M967.876 584.473L967.432 585.147L967.76 585.883L967.087 585.439L966.351 585.767L966.794 585.094L966.466 584.358L967.139 584.801L967.876 584.473Z" fill="white"/>
<path d="M858.876 819.473L858.432 820.147L858.76 820.883L858.087 820.439L857.351 820.767L857.794 820.094L857.466 819.358L858.139 819.801L858.876 819.473Z" fill="white"/>
<path d="M725.876 942.473L725.432 943.147L725.76 943.883L725.087 943.439L724.351 943.767L724.794 943.094L724.466 942.358L725.139 942.801L725.876 942.473Z" fill="white"/>
<path d="M541.876 664.473L541.432 665.147L541.76 665.883L541.087 665.439L540.351 665.767L540.794 665.094L540.466 664.358L541.139 664.801L541.876 664.473Z" fill="white"/>
<path d="M758.876 483.473L758.432 484.147L758.76 484.883L758.087 484.439L757.351 484.767L757.794 484.094L757.466 483.358L758.139 483.801L758.876 483.473Z" fill="white"/>
<path d="M113.876 998.473L113.432 999.147L113.76 999.883L113.087 999.439L112.351 999.767L112.794 999.094L112.466 998.358L113.139 998.801L113.876 998.473Z" fill="white"/>
<path d="M89.8758 696.473L89.4322 697.147L89.7603 697.883L89.0872 697.439L88.3508 697.767L88.7944 697.094L88.4663 696.358L89.1394 696.801L89.8758 696.473Z" fill="white"/>
<path d="M640.876 685.473L640.432 686.147L640.76 686.883L640.087 686.439L639.351 686.767L639.794 686.094L639.466 685.358L640.139 685.801L640.876 685.473Z" fill="white"/>
<path d="M861.876 1110.47L861.432 1111.15L861.76 1111.88L861.087 1111.44L860.351 1111.77L860.794 1111.09L860.466 1110.36L861.139 1110.8L861.876 1110.47Z" fill="white"/>
<path d="M483.876 1198.47L483.432 1199.15L483.76 1199.88L483.087 1199.44L482.351 1199.77L482.794 1199.09L482.466 1198.36L483.139 1198.8L483.876 1198.47Z" fill="white"/>
<path d="M480.876 829.473L480.432 830.147L480.76 830.883L480.087 830.439L479.351 830.767L479.794 830.094L479.466 829.358L480.139 829.801L480.876 829.473Z" fill="white"/>
<path d="M1256.88 376.473L1256.43 377.147L1256.76 377.883L1256.09 377.439L1255.35 377.767L1255.79 377.094L1255.47 376.358L1256.14 376.801L1256.88 376.473Z" fill="white"/>
<path d="M1341.88 334.473L1341.43 335.147L1341.76 335.883L1341.09 335.439L1340.35 335.767L1340.79 335.094L1340.47 334.358L1341.14 334.801L1341.88 334.473Z" fill="white"/>
<path d="M1352.88 1124.47L1352.43 1125.15L1352.76 1125.88L1352.09 1125.44L1351.35 1125.77L1351.79 1125.09L1351.47 1124.36L1352.14 1124.8L1352.88 1124.47Z" fill="white"/>
<path d="M1146.88 1245.47L1146.43 1246.15L1146.76 1246.88L1146.09 1246.44L1145.35 1246.77L1145.79 1246.09L1145.47 1245.36L1146.14 1245.8L1146.88 1245.47Z" fill="white"/>
<path d="M1011.88 814.473L1011.43 815.147L1011.76 815.883L1011.09 815.439L1010.35 815.767L1010.79 815.094L1010.47 814.358L1011.14 814.801L1011.88 814.473Z" fill="white"/>
<path d="M587.523 898.236L586.636 899.582L587.292 901.055L585.946 900.168L584.473 900.824L585.36 899.478L584.704 898.005L586.05 898.892L587.523 898.236Z" fill="white"/>
<path d="M340.048 728.236L339.161 729.582L339.817 731.055L338.47 730.168L336.998 730.824L337.885 729.478L337.229 728.005L338.575 728.892L340.048 728.236Z" fill="white"/>
<path d="M938.048 440.236L937.161 441.582L937.817 443.055L936.47 442.168L934.998 442.824L935.885 441.478L935.229 440.005L936.575 440.892L938.048 440.236Z" fill="white"/>
<path d="M705.048 314.236L704.161 315.582L704.817 317.055L703.47 316.168L701.998 316.824L702.885 315.478L702.229 314.005L703.575 314.892L705.048 314.236Z" fill="white"/>
<path d="M487.048 317.236L486.161 318.582L486.817 320.055L485.47 319.168L483.998 319.824L484.885 318.478L484.229 317.005L485.575 317.892L487.048 317.236Z" fill="white"/>
<path d="M1115.05 285.236L1114.16 286.582L1114.82 288.055L1113.47 287.168L1112 287.824L1112.88 286.478L1112.23 285.005L1113.57 285.892L1115.05 285.236Z" fill="white"/>
<path d="M913.048 901.236L912.161 902.582L912.817 904.055L911.47 903.168L909.998 903.824L910.885 902.478L910.229 901.005L911.575 901.892L913.048 901.236Z" fill="white"/>
<path d="M215.048 877.236L214.161 878.582L214.817 880.055L213.47 879.168L211.998 879.824L212.885 878.478L212.229 877.005L213.575 877.892L215.048 877.236Z" fill="white"/>
<path d="M182.048 1193.24L181.161 1194.58L181.817 1196.05L180.47 1195.17L178.998 1195.82L179.885 1194.48L179.229 1193L180.575 1193.89L182.048 1193.24Z" fill="white"/>
<path d="M72.0477 818.236L71.1606 819.582L71.8167 821.055L70.4705 820.168L68.9977 820.824L69.8849 819.478L69.2287 818.005L70.575 818.892L72.0477 818.236Z" fill="white"/>
<path d="M61.0477 1131.24L60.1606 1132.58L60.8167 1134.05L59.4705 1133.17L57.9977 1133.82L58.8849 1132.48L58.2287 1131L59.575 1131.89L61.0477 1131.24Z" fill="white"/>
<path d="M23.0477 585.236L22.1606 586.582L22.8167 588.055L21.4705 587.168L19.9977 587.824L20.8849 586.478L20.2287 585.005L21.575 585.892L23.0477 585.236Z" fill="white"/>
<path d="M552.412 1.0782L551.622 1.24055L551.334 1.99321L551.171 1.20359L550.419 0.914899L551.208 0.752557L551.497 -0.000109471L551.659 0.789509L552.412 1.0782Z" fill="white"/>
<path d="M647.164 177.02L646.375 177.182L646.086 177.935L645.924 177.145L645.171 176.856L645.96 176.694L646.249 175.941L646.412 176.731L647.164 177.02Z" fill="white"/>
<path d="M517.764 140.957L516.974 141.119L516.685 141.872L516.523 141.083L515.77 140.794L516.56 140.631L516.849 139.879L517.011 140.668L517.764 140.957Z" fill="white"/>
<path d="M604.738 79.439L603.948 79.6014L603.66 80.3541L603.497 79.5644L602.745 79.2757L603.534 79.1134L603.823 78.3607L603.985 79.1503L604.738 79.439Z" fill="white"/>
<path d="M548.169 58.2257L547.38 58.388L547.091 59.1407L546.929 58.3511L546.176 58.0624L546.966 57.9L547.254 57.1474L547.417 57.937L548.169 58.2257Z" fill="white"/>
<path d="M749.695 348.847L748.905 349.009L748.616 349.762L748.454 348.972L747.701 348.683L748.491 348.521L748.78 347.768L748.942 348.558L749.695 348.847Z" fill="white"/>
<path d="M699.49 151.564L698.701 151.726L698.412 152.479L698.249 151.689L697.497 151.401L698.286 151.238L698.575 150.486L698.737 151.275L699.49 151.564Z" fill="white"/>
<path d="M958.291 492.389L957.502 492.552L957.213 493.304L957.05 492.515L956.298 492.226L957.087 492.064L957.376 491.311L957.538 492.101L958.291 492.389Z" fill="white"/>
<path d="M678.277 444.306L677.487 444.468L677.199 445.221L677.036 444.431L676.284 444.143L677.073 443.98L677.362 443.228L677.524 444.017L678.277 444.306Z" fill="white"/>
<path d="M597.667 251.973L596.877 252.136L596.589 252.888L596.426 252.099L595.674 251.81L596.463 251.648L596.752 250.895L596.914 251.685L597.667 251.973Z" fill="white"/>
<path d="M482.408 355.918L481.619 356.08L481.33 356.833L481.168 356.043L480.415 355.754L481.205 355.592L481.493 354.839L481.656 355.629L482.408 355.918Z" fill="white"/>
<path d="M915.158 768.868L914.368 769.03L914.079 769.783L913.917 768.993L913.164 768.705L913.954 768.542L914.243 767.79L914.405 768.579L915.158 768.868Z" fill="white"/>
<path d="M1190.93 766.04L1190.14 766.202L1189.85 766.955L1189.69 766.165L1188.94 765.876L1189.73 765.714L1190.01 764.961L1190.18 765.751L1190.93 766.04Z" fill="white"/>
<path d="M1260.93 1084.94L1260.14 1085.11L1259.85 1085.86L1259.69 1085.07L1258.94 1084.78L1259.73 1084.62L1260.02 1083.87L1260.18 1084.66L1260.93 1084.94Z" fill="white"/>
<path d="M949.806 1217.88L949.016 1218.04L948.728 1218.8L948.565 1218.01L947.813 1217.72L948.602 1217.56L948.891 1216.8L949.053 1217.59L949.806 1217.88Z" fill="white"/>
<path d="M899.601 1450.52L898.812 1450.68L898.523 1451.43L898.361 1450.64L897.608 1450.36L898.398 1450.19L898.686 1449.44L898.849 1450.23L899.601 1450.52Z" fill="white"/>
<path d="M656.357 1256.77L655.567 1256.93L655.278 1257.69L655.116 1256.9L654.363 1256.61L655.153 1256.45L655.442 1255.69L655.604 1256.48L656.357 1256.77Z" fill="white"/>
<path d="M431.497 978.172L430.707 978.334L430.418 979.087L430.256 978.297L429.503 978.008L430.293 977.846L430.582 977.093L430.744 977.883L431.497 978.172Z" fill="white"/>
<path d="M823.941 834.629L823.151 834.791L822.863 835.544L822.7 834.754L821.948 834.466L822.737 834.303L823.026 833.551L823.188 834.34L823.941 834.629Z" fill="white"/>
<path d="M687.469 586.435L686.68 586.597L686.391 587.35L686.229 586.56L685.476 586.271L686.266 586.109L686.554 585.356L686.717 586.146L687.469 586.435Z" fill="white"/>
<path d="M272.398 705.936L271.608 706.098L271.319 706.851L271.157 706.061L270.404 705.772L271.194 705.61L271.483 704.857L271.645 705.647L272.398 705.936Z" fill="white"/>
<path d="M181.181 453.498L180.391 453.661L180.102 454.413L179.94 453.624L179.187 453.335L179.977 453.173L180.266 452.42L180.428 453.21L181.181 453.498Z" fill="white"/>
<path d="M428.668 210.253L427.879 210.416L427.59 211.169L427.428 210.379L426.675 210.09L427.465 209.928L427.753 209.175L427.916 209.965L428.668 210.253Z" fill="white"/>
<path d="M633.022 461.277L632.232 461.439L631.944 462.192L631.781 461.402L631.029 461.113L631.818 460.951L632.107 460.198L632.269 460.988L633.022 461.277Z" fill="white"/>
<path d="M1031.83 864.327L1031.04 864.49L1030.75 865.242L1030.59 864.453L1029.84 864.164L1030.63 864.002L1030.92 863.249L1031.08 864.039L1031.83 864.327Z" fill="white"/>
<path d="M788.586 953.423L787.796 953.585L787.507 954.338L787.345 953.548L786.592 953.26L787.382 953.097L787.671 952.345L787.833 953.134L788.586 953.423Z" fill="white"/>
<path d="M607.566 946.352L606.777 946.514L606.488 947.267L606.326 946.477L605.573 946.189L606.363 946.026L606.651 945.274L606.814 946.063L607.566 946.352Z" fill="white"/>
<path d="M674.034 619.669L673.245 619.831L672.956 620.584L672.794 619.794L672.041 619.505L672.831 619.343L673.119 618.59L673.282 619.38L674.034 619.669Z" fill="white"/>
<path d="M955.463 645.124L954.673 645.287L954.384 646.039L954.222 645.25L953.469 644.961L954.259 644.799L954.548 644.046L954.71 644.836L955.463 645.124Z" fill="white"/>
<path d="M135.219 553.201L134.429 553.363L134.141 554.116L133.978 553.326L133.226 553.037L134.015 552.875L134.304 552.122L134.466 552.912L135.219 553.201Z" fill="white"/>
<path d="M331.795 322.684L331.005 322.846L330.716 323.599L330.554 322.809L329.801 322.52L330.591 322.358L330.88 321.605L331.042 322.395L331.795 322.684Z" fill="white"/>
<path d="M729.189 704.521L728.399 704.684L728.11 705.436L727.948 704.647L727.195 704.358L727.985 704.196L728.274 703.443L728.436 704.233L729.189 704.521Z" fill="white"/>
<path d="M584.939 1161.31L584.149 1161.47L583.861 1162.23L583.698 1161.44L582.946 1161.15L583.735 1160.99L584.024 1160.23L584.186 1161.02L584.939 1161.31Z" fill="white"/>
<path d="M255.427 956.251L254.638 956.414L254.349 957.166L254.186 956.377L253.434 956.088L254.223 955.926L254.512 955.173L254.674 955.963L255.427 956.251Z" fill="white"/>
<path d="M514.228 693.208L513.439 693.37L513.15 694.123L512.988 693.333L512.235 693.044L513.024 692.882L513.313 692.129L513.475 692.919L514.228 693.208Z" fill="white"/>
<path d="M1383.26 921.603L1382.47 921.765L1382.18 922.518L1382.02 921.728L1381.27 921.44L1382.06 921.277L1382.35 920.525L1382.51 921.314L1383.26 921.603Z" fill="white"/>
<path d="M1473.07 952.009L1472.28 952.171L1471.99 952.924L1471.82 952.134L1471.07 951.845L1471.86 951.683L1472.15 950.93L1472.31 951.72L1473.07 952.009Z" fill="white"/>
<path d="M922.229 1518.4L921.439 1518.56L921.151 1519.32L920.988 1518.53L920.236 1518.24L921.025 1518.08L921.314 1517.32L921.476 1518.11L922.229 1518.4Z" fill="white"/>
<path d="M691.005 1458.3L690.215 1458.46L689.926 1459.21L689.764 1458.42L689.011 1458.13L689.801 1457.97L690.09 1457.22L690.252 1458.01L691.005 1458.3Z" fill="white"/>
<path d="M900.308 1058.07L899.519 1058.24L899.23 1058.99L899.068 1058.2L898.315 1057.91L899.105 1057.75L899.393 1057L899.556 1057.79L900.308 1058.07Z" fill="white"/>
<path d="M541.017 817.241L539.437 817.566L538.86 819.071L538.535 817.492L537.03 816.914L538.609 816.59L539.187 815.084L539.511 816.663L541.017 817.241Z" fill="white"/>
<path d="M486.233 522.041L484.654 522.366L484.077 523.871L483.752 522.292L482.247 521.715L483.826 521.39L484.403 519.885L484.728 521.464L486.233 522.041Z" fill="white"/>
<path d="M1112.73 741.245L1111.15 741.569L1110.57 743.075L1110.25 741.495L1108.74 740.918L1110.32 740.593L1110.9 739.088L1111.22 740.667L1112.73 741.245Z" fill="white"/>
<path d="M1037.07 487.393L1035.49 487.718L1034.91 489.223L1034.59 487.644L1033.08 487.067L1034.66 486.742L1035.24 485.237L1035.56 486.816L1037.07 487.393Z" fill="white"/>
<path d="M880.799 335.365L879.22 335.69L878.642 337.195L878.318 335.616L876.812 335.039L878.392 334.714L878.969 333.209L879.294 334.788L880.799 335.365Z" fill="white"/>
<path d="M1347.49 756.801L1345.91 757.126L1345.33 758.631L1345.01 757.052L1343.5 756.474L1345.08 756.15L1345.66 754.644L1345.98 756.224L1347.49 756.801Z" fill="white"/>
<path d="M769.076 1049.54L767.497 1049.87L766.92 1051.37L766.595 1049.79L765.09 1049.22L766.669 1048.89L767.246 1047.39L767.571 1048.97L769.076 1049.54Z" fill="white"/>
<path d="M292.486 539.012L290.907 539.337L290.329 540.842L290.005 539.263L288.499 538.686L290.079 538.361L290.656 536.855L290.981 538.435L292.486 539.012Z" fill="white"/>
<path d="M45.7058 739.123L44.1266 739.448L43.5492 740.953L43.2245 739.374L41.7192 738.797L43.2984 738.472L43.8758 736.967L44.2005 738.546L45.7058 739.123Z" fill="white"/>
<path d="M233.089 396.176L231.51 396.501L230.933 398.006L230.608 396.427L229.102 395.85L230.682 395.525L231.259 394.02L231.584 395.599L233.089 396.176Z" fill="white"/>
<path d="M3.9866 609.723L2.40736 610.047L1.82997 611.553L1.50529 609.974L-4.58509e-05 609.396L1.57919 609.072L2.15658 607.566L2.48126 609.145L3.9866 609.723Z" fill="white"/>
<path d="M363.197 196.772L361.618 197.097L361.04 198.602L360.715 197.023L359.21 196.446L360.789 196.121L361.367 194.616L361.691 196.195L363.197 196.772Z" fill="white"/>
</svg>
