<svg width="62" height="62" viewBox="0 0 62 62" fill="none" xmlns="http://www.w3.org/2000/svg">
<g clip-path="url(#paint0_diamond_1_410_clip_path)" data-figma-skip-parse="true"><g transform="matrix(0.0035 0.0345 -0.0345 0.0035 27.5 37)"><rect x="0" y="0" width="1173.18" height="1129.11" fill="url(#paint0_diamond_1_410)" opacity="1" shape-rendering="crispEdges"/><rect x="0" y="0" width="1173.18" height="1129.11" transform="scale(1 -1)" fill="url(#paint0_diamond_1_410)" opacity="1" shape-rendering="crispEdges"/><rect x="0" y="0" width="1173.18" height="1129.11" transform="scale(-1 1)" fill="url(#paint0_diamond_1_410)" opacity="1" shape-rendering="crispEdges"/><rect x="0" y="0" width="1173.18" height="1129.11" transform="scale(-1)" fill="url(#paint0_diamond_1_410)" opacity="1" shape-rendering="crispEdges"/></g></g><path d="M44.3631 0.974576L45.5618 4.66318C45.9339 5.78548 46.5635 6.80514 47.4003 7.6406C48.2371 8.47605 49.2578 9.10411 50.3808 9.47454L54.07 10.6731L54.1424 10.6937C54.4269 10.7939 54.6734 10.9799 54.8477 11.226C55.022 11.4722 55.1156 11.7663 55.1156 12.0679C55.1156 12.3695 55.022 12.6637 54.8477 12.9098C54.6734 13.156 54.4269 13.342 54.1424 13.4421L50.4532 14.6407C49.3302 15.0111 48.3094 15.6391 47.4726 16.4746C46.6359 17.3101 46.0062 18.3297 45.6341 19.452L44.4354 23.1372C44.3352 23.4217 44.1492 23.6681 43.903 23.8424C43.6569 24.0167 43.3627 24.1103 43.061 24.1103C42.7593 24.1103 42.4651 24.0167 42.2189 23.8424C41.9728 23.6681 41.7868 23.4217 41.6866 23.1372L40.4844 19.452C40.1153 18.3272 39.4876 17.3045 38.6519 16.466C37.8156 15.6259 36.7939 14.9936 35.6688 14.62L31.9796 13.4214C31.6951 13.3213 31.4486 13.1353 31.2743 12.8892C31.1 12.643 31.0064 12.3489 31.0064 12.0473C31.0064 11.7457 31.1 11.4515 31.2743 11.2053C31.4486 10.9592 31.6951 10.7732 31.9796 10.6731L35.6688 9.47454C36.7778 9.09409 37.7834 8.46155 38.6065 7.62667C39.4295 6.7918 40.0476 5.77736 40.4121 4.66318L41.6108 0.97802C41.7102 0.69233 41.8962 0.444673 42.1428 0.269417C42.3893 0.0941615 42.6844 0 42.9869 0C43.2895 0 43.5845 0.0941615 43.8311 0.269417C44.0777 0.444673 44.2636 0.688886 44.3631 0.974576ZM61.259 28.2929L58.6204 27.4388C57.8198 27.1712 57.0923 26.721 56.4957 26.1239C55.8991 25.5267 55.4495 24.799 55.1827 23.9982L54.3215 21.3669C54.2502 21.1635 54.1174 20.9872 53.9415 20.8625C53.7657 20.7378 53.5554 20.6709 53.3398 20.6709C53.1242 20.6709 52.9139 20.7378 52.738 20.8625C52.5622 20.9872 52.4294 21.1635 52.3581 21.3669L51.5038 23.9982C51.2418 24.7938 50.7996 25.5183 50.2117 26.1151C49.6238 26.7118 48.906 27.1649 48.1143 27.4388L45.4791 28.2929C45.2772 28.3658 45.1027 28.4992 44.9793 28.6748C44.856 28.8505 44.7898 29.0599 44.7898 29.2745C44.7898 29.4891 44.856 29.6985 44.9793 29.8742C45.1027 30.0498 45.2772 30.1832 45.4791 30.2561L48.1143 31.1136C48.9173 31.3814 49.6468 31.8328 50.2448 32.4318C50.8427 33.0309 51.2927 33.7612 51.5589 34.5646L52.4132 37.1959C52.4845 37.3993 52.6173 37.5756 52.7931 37.7003C52.969 37.825 53.1793 37.8919 53.3949 37.8919C53.6105 37.8919 53.8208 37.825 53.9966 37.7003C54.1725 37.5756 54.3053 37.3993 54.3766 37.1959L55.2343 34.5646C55.5015 33.7635 55.9516 33.0355 56.5489 32.4383C57.1461 31.8411 57.8742 31.3912 58.6755 31.124L61.3107 30.2698C61.5126 30.197 61.6871 30.0636 61.8105 29.888C61.9338 29.7123 62 29.5029 62 29.2883C62 29.0737 61.9338 28.8643 61.8105 28.6886C61.6871 28.5129 61.5126 28.3796 61.3107 28.3067L61.259 28.2929ZM53.4018 41.3322C52.4853 41.3311 51.5901 41.0552 50.8321 40.5401C50.0743 39.989 49.5231 39.2623 49.1787 38.4013L48.2831 35.6392C48.1922 35.3484 48.0258 35.0869 47.8008 34.8815C47.5866 34.6671 47.3279 34.5025 47.043 34.3993L44.4182 33.5383C43.4881 33.1939 42.7303 32.6394 42.1792 31.8817C41.628 31.124 41.3525 30.2251 41.3525 29.2917C41.3525 28.6374 41.4902 27.983 41.7658 27.3975C41.2147 27.2597 40.698 27.0186 40.2157 26.6742C39.3961 26.0735 38.7719 25.2445 38.4211 24.2909L37.181 20.53C36.871 19.7379 36.561 19.2901 36.1821 18.9113C35.7195 18.4646 35.1662 18.1228 34.5596 17.9091L30.9049 16.7037C30.3094 16.5056 29.7583 16.1932 29.2825 15.7841V59.4205C30.63 60.6157 32.2691 61.4344 34.0343 61.7939C35.7994 62.1535 37.6282 62.0411 39.336 61.4682C41.0438 60.8953 42.5703 59.8821 43.7614 58.5309C44.9524 57.1796 45.766 55.5382 46.1198 53.7722L46.2473 53.1282C48.9421 52.5567 51.3316 51.0118 52.9586 48.789C54.5855 46.5663 55.3357 43.8219 55.0655 41.0808C54.5284 41.2549 53.9664 41.3399 53.4018 41.3322ZM25.8378 8.48265C24.7054 7.66025 23.3842 7.13581 21.9959 6.95759C20.6076 6.77937 19.1968 6.95308 17.8933 7.46276C16.5897 7.97243 15.4353 8.80169 14.5363 9.87424C13.6372 10.9468 13.0223 12.2282 12.7482 13.6005L12.3177 15.76L10.9191 16.0389C8.81269 16.4614 6.91748 17.6 5.5555 19.2612C4.19351 20.9224 3.44874 23.0039 3.44773 25.152V25.8339C3.44773 28.3343 4.51557 30.5867 6.22066 32.1606C4.138 33.1925 2.42845 34.8472 1.3295 36.895C0.23056 38.9428 -0.203215 41.282 0.0884389 43.5876C0.380093 45.8932 1.38269 48.0507 2.95696 49.7604C4.53123 51.4702 6.599 52.6473 8.87303 53.1282L9.00048 53.7653C9.35387 55.5316 10.167 57.1734 11.3579 58.5251C12.5488 59.8767 14.0752 60.8903 15.7831 61.4636C17.491 62.0369 19.32 62.1496 21.0853 61.7902C22.8507 61.4309 24.49 60.6123 25.8378 59.417V8.48265Z" data-figma-gradient-fill="{&#34;type&#34;:&#34;GRADIENT_DIAMOND&#34;,&#34;stops&#34;:[{&#34;color&#34;:{&#34;r&#34;:1.0,&#34;g&#34;:0.66826921701431274,&#34;b&#34;:0.83966344594955444,&#34;a&#34;:1.0},&#34;position&#34;:0.0},{&#34;color&#34;:{&#34;r&#34;:1.0,&#34;g&#34;:0.8750,&#34;b&#34;:0.91374999284744263,&#34;a&#34;:1.0},&#34;position&#34;:0.50480771064758301},{&#34;color&#34;:{&#34;r&#34;:0.86057692766189575,&#34;g&#34;:0.26479288935661316,&#34;b&#34;:0.50310647487640381,&#34;a&#34;:1.0},&#34;position&#34;:1.0}],&#34;stopsVar&#34;:[{&#34;color&#34;:{&#34;r&#34;:1.0,&#34;g&#34;:0.66826921701431274,&#34;b&#34;:0.83966344594955444,&#34;a&#34;:1.0},&#34;position&#34;:0.0},{&#34;color&#34;:{&#34;r&#34;:1.0,&#34;g&#34;:0.8750,&#34;b&#34;:0.91374999284744263,&#34;a&#34;:1.0},&#34;position&#34;:0.50480771064758301},{&#34;color&#34;:{&#34;r&#34;:0.86057692766189575,&#34;g&#34;:0.26479288935661316,&#34;b&#34;:0.50310647487640381,&#34;a&#34;:1.0},&#34;position&#34;:1.0}],&#34;transform&#34;:{&#34;m00&#34;:7.0000004768371582,&#34;m01&#34;:-69.000007629394531,&#34;m02&#34;:58.500003814697266,&#34;m10&#34;:69.000007629394531,&#34;m11&#34;:7.0000004768371582,&#34;m12&#34;:-1.0000019073486328},&#34;opacity&#34;:1.0,&#34;blendMode&#34;:&#34;NORMAL&#34;,&#34;visible&#34;:true}"/>
<defs>
<clipPath id="paint0_diamond_1_410_clip_path"><path d="M44.3631 0.974576L45.5618 4.66318C45.9339 5.78548 46.5635 6.80514 47.4003 7.6406C48.2371 8.47605 49.2578 9.10411 50.3808 9.47454L54.07 10.6731L54.1424 10.6937C54.4269 10.7939 54.6734 10.9799 54.8477 11.226C55.022 11.4722 55.1156 11.7663 55.1156 12.0679C55.1156 12.3695 55.022 12.6637 54.8477 12.9098C54.6734 13.156 54.4269 13.342 54.1424 13.4421L50.4532 14.6407C49.3302 15.0111 48.3094 15.6391 47.4726 16.4746C46.6359 17.3101 46.0062 18.3297 45.6341 19.452L44.4354 23.1372C44.3352 23.4217 44.1492 23.6681 43.903 23.8424C43.6569 24.0167 43.3627 24.1103 43.061 24.1103C42.7593 24.1103 42.4651 24.0167 42.2189 23.8424C41.9728 23.6681 41.7868 23.4217 41.6866 23.1372L40.4844 19.452C40.1153 18.3272 39.4876 17.3045 38.6519 16.466C37.8156 15.6259 36.7939 14.9936 35.6688 14.62L31.9796 13.4214C31.6951 13.3213 31.4486 13.1353 31.2743 12.8892C31.1 12.643 31.0064 12.3489 31.0064 12.0473C31.0064 11.7457 31.1 11.4515 31.2743 11.2053C31.4486 10.9592 31.6951 10.7732 31.9796 10.6731L35.6688 9.47454C36.7778 9.09409 37.7834 8.46155 38.6065 7.62667C39.4295 6.7918 40.0476 5.77736 40.4121 4.66318L41.6108 0.97802C41.7102 0.69233 41.8962 0.444673 42.1428 0.269417C42.3893 0.0941615 42.6844 0 42.9869 0C43.2895 0 43.5845 0.0941615 43.8311 0.269417C44.0777 0.444673 44.2636 0.688886 44.3631 0.974576ZM61.259 28.2929L58.6204 27.4388C57.8198 27.1712 57.0923 26.721 56.4957 26.1239C55.8991 25.5267 55.4495 24.799 55.1827 23.9982L54.3215 21.3669C54.2502 21.1635 54.1174 20.9872 53.9415 20.8625C53.7657 20.7378 53.5554 20.6709 53.3398 20.6709C53.1242 20.6709 52.9139 20.7378 52.738 20.8625C52.5622 20.9872 52.4294 21.1635 52.3581 21.3669L51.5038 23.9982C51.2418 24.7938 50.7996 25.5183 50.2117 26.1151C49.6238 26.7118 48.906 27.1649 48.1143 27.4388L45.4791 28.2929C45.2772 28.3658 45.1027 28.4992 44.9793 28.6748C44.856 28.8505 44.7898 29.0599 44.7898 29.2745C44.7898 29.4891 44.856 29.6985 44.9793 29.8742C45.1027 30.0498 45.2772 30.1832 45.4791 30.2561L48.1143 31.1136C48.9173 31.3814 49.6468 31.8328 50.2448 32.4318C50.8427 33.0309 51.2927 33.7612 51.5589 34.5646L52.4132 37.1959C52.4845 37.3993 52.6173 37.5756 52.7931 37.7003C52.969 37.825 53.1793 37.8919 53.3949 37.8919C53.6105 37.8919 53.8208 37.825 53.9966 37.7003C54.1725 37.5756 54.3053 37.3993 54.3766 37.1959L55.2343 34.5646C55.5015 33.7635 55.9516 33.0355 56.5489 32.4383C57.1461 31.8411 57.8742 31.3912 58.6755 31.124L61.3107 30.2698C61.5126 30.197 61.6871 30.0636 61.8105 29.888C61.9338 29.7123 62 29.5029 62 29.2883C62 29.0737 61.9338 28.8643 61.8105 28.6886C61.6871 28.5129 61.5126 28.3796 61.3107 28.3067L61.259 28.2929ZM53.4018 41.3322C52.4853 41.3311 51.5901 41.0552 50.8321 40.5401C50.0743 39.989 49.5231 39.2623 49.1787 38.4013L48.2831 35.6392C48.1922 35.3484 48.0258 35.0869 47.8008 34.8815C47.5866 34.6671 47.3279 34.5025 47.043 34.3993L44.4182 33.5383C43.4881 33.1939 42.7303 32.6394 42.1792 31.8817C41.628 31.124 41.3525 30.2251 41.3525 29.2917C41.3525 28.6374 41.4902 27.983 41.7658 27.3975C41.2147 27.2597 40.698 27.0186 40.2157 26.6742C39.3961 26.0735 38.7719 25.2445 38.4211 24.2909L37.181 20.53C36.871 19.7379 36.561 19.2901 36.1821 18.9113C35.7195 18.4646 35.1662 18.1228 34.5596 17.9091L30.9049 16.7037C30.3094 16.5056 29.7583 16.1932 29.2825 15.7841V59.4205C30.63 60.6157 32.2691 61.4344 34.0343 61.7939C35.7994 62.1535 37.6282 62.0411 39.336 61.4682C41.0438 60.8953 42.5703 59.8821 43.7614 58.5309C44.9524 57.1796 45.766 55.5382 46.1198 53.7722L46.2473 53.1282C48.9421 52.5567 51.3316 51.0118 52.9586 48.789C54.5855 46.5663 55.3357 43.8219 55.0655 41.0808C54.5284 41.2549 53.9664 41.3399 53.4018 41.3322ZM25.8378 8.48265C24.7054 7.66025 23.3842 7.13581 21.9959 6.95759C20.6076 6.77937 19.1968 6.95308 17.8933 7.46276C16.5897 7.97243 15.4353 8.80169 14.5363 9.87424C13.6372 10.9468 13.0223 12.2282 12.7482 13.6005L12.3177 15.76L10.9191 16.0389C8.81269 16.4614 6.91748 17.6 5.5555 19.2612C4.19351 20.9224 3.44874 23.0039 3.44773 25.152V25.8339C3.44773 28.3343 4.51557 30.5867 6.22066 32.1606C4.138 33.1925 2.42845 34.8472 1.3295 36.895C0.23056 38.9428 -0.203215 41.282 0.0884389 43.5876C0.380093 45.8932 1.38269 48.0507 2.95696 49.7604C4.53123 51.4702 6.599 52.6473 8.87303 53.1282L9.00048 53.7653C9.35387 55.5316 10.167 57.1734 11.3579 58.5251C12.5488 59.8767 14.0752 60.8903 15.7831 61.4636C17.491 62.0369 19.32 62.1496 21.0853 61.7902C22.8507 61.4309 24.49 60.6123 25.8378 59.417V8.48265Z"/></clipPath><linearGradient id="paint0_diamond_1_410" x1="0" y1="0" x2="500" y2="500" gradientUnits="userSpaceOnUse">
<stop stop-color="#FFAAD6"/>
<stop offset="0.504808" stop-color="#FFDFE9"/>
<stop offset="1" stop-color="#DB4480"/>
</linearGradient>
</defs>
</svg>
